<svg width="164" height="49" viewBox="0 0 164 49" fill="none" xmlns="http://www.w3.org/2000/svg">
<path d="M0 22H33" stroke="#4B4036" stroke-width="3"/>
<path d="M61.8153 33.2386C60.5881 33.2386 59.4972 33.0284 58.5426 32.608C57.5938 32.1875 56.8438 31.6023 56.2926 30.8523C55.7415 30.1023 55.4489 29.2358 55.4148 28.2528H58.6193C58.6477 28.7244 58.804 29.1364 59.0881 29.4886C59.3722 29.8352 59.75 30.1051 60.2216 30.2983C60.6932 30.4915 61.2216 30.5881 61.8068 30.5881C62.4318 30.5881 62.9858 30.4801 63.4688 30.2642C63.9517 30.0426 64.3295 29.7358 64.6023 29.3438C64.875 28.9517 65.0085 28.5 65.0028 27.9886C65.0085 27.4602 64.8722 26.9943 64.5938 26.5909C64.3153 26.1875 63.9119 25.8722 63.3835 25.6449C62.8608 25.4176 62.2301 25.304 61.4915 25.304H59.9489V22.8665H61.4915C62.0994 22.8665 62.6307 22.7614 63.0852 22.5511C63.5455 22.3409 63.9063 22.0455 64.1676 21.6648C64.429 21.2784 64.5568 20.8324 64.5511 20.3267C64.5568 19.8324 64.446 19.4034 64.2188 19.0398C63.9972 18.6705 63.6818 18.3835 63.2727 18.179C62.8693 17.9744 62.3949 17.8722 61.8494 17.8722C61.3153 17.8722 60.821 17.9687 60.3665 18.1619C59.9119 18.3551 59.5455 18.6307 59.267 18.9886C58.9886 19.3409 58.8409 19.7614 58.8239 20.25H55.7812C55.804 19.2727 56.0852 18.4148 56.625 17.6761C57.1705 16.9318 57.8977 16.3523 58.8068 15.9375C59.7159 15.517 60.7358 15.3068 61.8665 15.3068C63.0313 15.3068 64.0426 15.5256 64.9006 15.9631C65.7642 16.3949 66.4318 16.9773 66.9034 17.7102C67.375 18.4432 67.6108 19.2528 67.6108 20.1392C67.6165 21.1222 67.3267 21.946 66.7415 22.6108C66.1619 23.2756 65.4006 23.7102 64.4574 23.9148V24.0511C65.6847 24.2216 66.625 24.6761 67.2784 25.4148C67.9375 26.1477 68.2642 27.0597 68.2585 28.1506C68.2585 29.1278 67.9801 30.0028 67.4233 30.7756C66.8722 31.5426 66.1108 32.1449 65.1392 32.5824C64.1733 33.0199 63.0653 33.2386 61.8153 33.2386ZM78.2408 15.5455H81.3771V27.8182C81.3714 28.9432 81.1328 29.9119 80.6612 30.7244C80.1896 31.5312 79.5305 32.1534 78.6839 32.5909C77.843 33.0227 76.8629 33.2386 75.7436 33.2386C74.7209 33.2386 73.8004 33.0568 72.9822 32.6932C72.1697 32.3239 71.5249 31.7784 71.0476 31.0568C70.5703 30.3352 70.3317 29.4375 70.3317 28.3636H73.4766C73.4822 28.8352 73.5845 29.2415 73.7834 29.5824C73.9879 29.9233 74.2692 30.1847 74.6271 30.3665C74.9851 30.5483 75.397 30.6392 75.8629 30.6392C76.3686 30.6392 76.7976 30.5341 77.1499 30.3239C77.5021 30.108 77.7692 29.7898 77.951 29.3693C78.1385 28.9489 78.2351 28.4318 78.2408 27.8182V15.5455ZM100.246 20.3438C100.167 19.5994 99.8317 19.0199 99.2408 18.6051C98.6555 18.1903 97.8942 17.983 96.9567 17.983C96.2976 17.983 95.7322 18.0824 95.2607 18.2812C94.7891 18.4801 94.4283 18.75 94.1783 19.0909C93.9283 19.4318 93.8004 19.821 93.7947 20.2585C93.7947 20.6222 93.8771 20.9375 94.0419 21.2045C94.2124 21.4716 94.4425 21.6989 94.7322 21.8864C95.022 22.0682 95.343 22.2216 95.6953 22.3466C96.0476 22.4716 96.4027 22.5767 96.7607 22.6619L98.397 23.071C99.0561 23.2244 99.6896 23.4318 100.298 23.6932C100.911 23.9545 101.46 24.2841 101.942 24.6818C102.431 25.0795 102.817 25.5597 103.102 26.1222C103.386 26.6847 103.528 27.3437 103.528 28.0994C103.528 29.1222 103.266 30.0227 102.744 30.8011C102.221 31.5739 101.465 32.179 100.477 32.6165C99.4936 33.0483 98.3033 33.2642 96.9055 33.2642C95.5476 33.2642 94.3686 33.054 93.3686 32.6335C92.3743 32.2131 91.5959 31.5994 91.0334 30.7926C90.4766 29.9858 90.1754 29.0028 90.13 27.8438H93.2408C93.2862 28.4517 93.4737 28.9574 93.8033 29.3608C94.1328 29.7642 94.5618 30.0653 95.0902 30.2642C95.6243 30.4631 96.2209 30.5625 96.88 30.5625C97.5675 30.5625 98.1697 30.4602 98.6868 30.2557C99.2095 30.0455 99.6186 29.7557 99.9141 29.3864C100.21 29.0114 100.36 28.5739 100.366 28.0739C100.36 27.6193 100.227 27.2443 99.9652 26.9489C99.7038 26.6477 99.3374 26.3977 98.8658 26.1989C98.3999 25.9943 97.8544 25.8125 97.2294 25.6534L95.2436 25.142C93.8061 24.7727 92.6697 24.2131 91.8345 23.4631C91.005 22.7074 90.5902 21.7045 90.5902 20.4545C90.5902 19.4261 90.8686 18.5256 91.4254 17.7528C91.9879 16.9801 92.7521 16.3807 93.718 15.9545C94.6839 15.5227 95.7777 15.3068 96.9993 15.3068C98.2379 15.3068 99.3232 15.5227 100.255 15.9545C101.192 16.3807 101.928 16.9744 102.462 17.7358C102.996 18.4915 103.272 19.3608 103.289 20.3438H100.246ZM109.977 33.2642C109.148 33.2642 108.401 33.1165 107.736 32.821C107.077 32.5199 106.554 32.0767 106.168 31.4915C105.787 30.9062 105.597 30.1847 105.597 29.3267C105.597 28.5881 105.733 27.9773 106.006 27.4943C106.278 27.0114 106.651 26.625 107.122 26.3352C107.594 26.0455 108.125 25.8267 108.716 25.679C109.313 25.5256 109.929 25.4148 110.565 25.3466C111.332 25.267 111.955 25.196 112.432 25.1335C112.909 25.0653 113.256 24.9631 113.472 24.8267C113.693 24.6847 113.804 24.4659 113.804 24.1705V24.1193C113.804 23.4773 113.614 22.9801 113.233 22.6278C112.852 22.2756 112.304 22.0994 111.588 22.0994C110.832 22.0994 110.233 22.2642 109.79 22.5938C109.352 22.9233 109.057 23.3125 108.903 23.7614L106.023 23.3523C106.25 22.5568 106.625 21.892 107.148 21.358C107.67 20.8182 108.31 20.4148 109.065 20.1477C109.821 19.875 110.656 19.7386 111.571 19.7386C112.202 19.7386 112.83 19.8125 113.455 19.9602C114.08 20.108 114.651 20.3523 115.168 20.6932C115.685 21.0284 116.099 21.4858 116.412 22.0653C116.73 22.6449 116.889 23.3693 116.889 24.2386V33H113.923V31.2017H113.821C113.634 31.5653 113.369 31.9062 113.028 32.2244C112.693 32.5369 112.27 32.7898 111.759 32.983C111.253 33.1705 110.659 33.2642 109.977 33.2642ZM110.778 30.9972C111.398 30.9972 111.935 30.875 112.389 30.6307C112.844 30.3807 113.193 30.0511 113.438 29.642C113.688 29.233 113.812 28.7869 113.812 28.304V26.7614C113.716 26.8409 113.551 26.9148 113.318 26.983C113.091 27.0511 112.835 27.1108 112.551 27.1619C112.267 27.2131 111.986 27.2585 111.707 27.2983C111.429 27.3381 111.188 27.3722 110.983 27.4006C110.523 27.4631 110.111 27.5653 109.747 27.7074C109.384 27.8494 109.097 28.0483 108.886 28.304C108.676 28.554 108.571 28.8778 108.571 29.2756C108.571 29.8438 108.778 30.2727 109.193 30.5625C109.608 30.8523 110.136 30.9972 110.778 30.9972ZM123.077 15.5455V33H119.991V15.5455H123.077ZM131.96 33.2557C130.681 33.2557 129.573 32.9744 128.636 32.4119C127.698 31.8494 126.971 31.0625 126.454 30.0511C125.942 29.0398 125.687 27.858 125.687 26.5057C125.687 25.1534 125.942 23.9687 126.454 22.9517C126.971 21.9347 127.698 21.1449 128.636 20.5824C129.573 20.0199 130.681 19.7386 131.96 19.7386C133.238 19.7386 134.346 20.0199 135.283 20.5824C136.221 21.1449 136.945 21.9347 137.457 22.9517C137.974 23.9687 138.232 25.1534 138.232 26.5057C138.232 27.858 137.974 29.0398 137.457 30.0511C136.945 31.0625 136.221 31.8494 135.283 32.4119C134.346 32.9744 133.238 33.2557 131.96 33.2557ZM131.977 30.7841C132.67 30.7841 133.249 30.5937 133.715 30.2131C134.181 29.8267 134.528 29.3097 134.755 28.6619C134.988 28.0142 135.104 27.2926 135.104 26.4972C135.104 25.696 134.988 24.9716 134.755 24.3239C134.528 23.6705 134.181 23.1506 133.715 22.7642C133.249 22.3778 132.67 22.1847 131.977 22.1847C131.266 22.1847 130.675 22.3778 130.204 22.7642C129.738 23.1506 129.388 23.6705 129.156 24.3239C128.928 24.9716 128.815 25.696 128.815 26.4972C128.815 27.2926 128.928 28.0142 129.156 28.6619C129.388 29.3097 129.738 29.8267 130.204 30.2131C130.675 30.5937 131.266 30.7841 131.977 30.7841ZM143.936 25.3295V33H140.851V19.9091H143.8V22.1335H143.953C144.254 21.4006 144.734 20.8182 145.393 20.3864C146.058 19.9545 146.879 19.7386 147.857 19.7386C148.76 19.7386 149.547 19.9318 150.217 20.3182C150.893 20.7045 151.416 21.2642 151.786 21.9972C152.161 22.7301 152.345 23.6193 152.339 24.6648V33H149.254V25.142C149.254 24.267 149.027 23.5824 148.572 23.0881C148.124 22.5937 147.501 22.3466 146.706 22.3466C146.166 22.3466 145.686 22.4659 145.266 22.7045C144.851 22.9375 144.524 23.2756 144.286 23.7188C144.053 24.1619 143.936 24.6989 143.936 25.3295Z" fill="#4B4036"/>
</svg>
