<svg width="449" height="160" viewBox="0 0 449 160" fill="none" xmlns="http://www.w3.org/2000/svg">
<rect x="9" y="1" width="439" height="158" rx="29" fill="#F1E3D6" stroke="white" stroke-width="2"/>
<path opacity="0.3" d="M406.333 50.6667H339.667V105.542L344.542 100.667H406.333V50.6667ZM381.333 92.3333H348V84H381.333V92.3333ZM398 79.8333H348V71.5H398V79.8333ZM398 67.3333H348V59H398V67.3333Z" fill="#4B4036"/>
<path d="M406.333 109C410.917 109 414.667 105.25 414.667 100.667V50.6667C414.667 46.0833 410.917 42.3333 406.333 42.3333H339.667C335.083 42.3333 331.375 46.0833 331.375 50.6667L331.333 125.667L348 109H406.333ZM339.667 105.542V50.6667H406.333V100.667H344.542L339.667 105.542ZM348 84H381.333V92.3333H348V84ZM348 71.5H398V79.8333H348V71.5ZM348 59H398V67.3333H348V59Z" fill="#4B4036"/>
<path d="M420 140C419.3 140 418.708 139.744 418.225 139.232C417.742 138.721 417.5 138.094 417.5 137.353C417.5 136.612 417.742 135.985 418.225 135.474C418.708 134.962 419.3 134.706 420 134.706C420.7 134.706 421.292 134.962 421.775 135.474C422.258 135.985 422.5 136.612 422.5 137.353C422.5 138.094 422.258 138.721 421.775 139.232C421.292 139.744 420.7 140 420 140ZM414.35 134.018L412.25 131.741C413.233 130.7 414.388 129.875 415.713 129.267C417.038 128.658 418.467 128.354 420 128.353C421.533 128.353 422.963 128.662 424.288 129.279C425.613 129.897 426.767 130.735 427.75 131.794L425.65 134.018C424.917 133.241 424.067 132.632 423.1 132.191C422.133 131.75 421.1 131.529 420 131.529C418.9 131.529 417.867 131.75 416.9 132.191C415.933 132.632 415.083 133.241 414.35 134.018ZM410.1 129.518L408 127.294C409.533 125.635 411.325 124.338 413.375 123.403C415.425 122.468 417.633 122 420 122C422.367 122 424.575 122.468 426.625 123.403C428.675 124.338 430.467 125.635 432 127.294L429.9 129.518C428.617 128.159 427.129 127.096 425.438 126.328C423.747 125.561 421.934 125.177 420 125.176C418.067 125.176 416.254 125.56 414.563 126.328C412.872 127.096 411.384 128.16 410.1 129.518Z" fill="#4B4036"/>
<path d="M421 21.2083V17.3333H416.875V14.75H421V10.875H423.75V14.75H427.875V17.3333H423.75V21.2083H421ZM426.431 34.125C423.567 34.125 420.736 33.5386 417.941 32.3657C415.145 31.1929 412.601 29.5297 410.309 27.376C408.018 25.2233 406.248 22.8337 404.999 20.2073C403.751 17.5809 403.126 14.9222 403.125 12.2313C403.125 11.8438 403.262 11.5208 403.537 11.2625C403.812 11.0042 404.156 10.875 404.569 10.875H410.138C410.458 10.875 410.745 10.9775 410.997 11.1824C411.249 11.3874 411.398 11.6293 411.444 11.9083L412.337 16.4292C412.383 16.7736 412.372 17.0642 412.303 17.301C412.234 17.5378 412.108 17.7424 411.925 17.9146L408.591 21.0792C409.049 21.8757 409.593 22.6451 410.223 23.3874C410.852 24.1297 411.546 24.8457 412.303 25.5354C413.014 26.2028 413.758 26.8219 414.538 27.3928C415.317 27.9637 416.142 28.4856 417.013 28.9583L420.244 25.9229C420.45 25.7292 420.72 25.5841 421.052 25.4876C421.385 25.3912 421.711 25.3641 422.031 25.4062L426.775 26.3104C427.096 26.3965 427.359 26.5528 427.566 26.7793C427.772 27.0058 427.875 27.2585 427.875 27.5375V32.7688C427.875 33.1563 427.738 33.4792 427.463 33.7375C427.188 33.9958 426.844 34.125 426.431 34.125Z" fill="#4B4036"/>
<path d="M53.125 91.0909V75.7273H56.1818V91.0909H53.125ZM46.9773 84.9318V81.8864H62.3409V84.9318H46.9773ZM75.6761 95.3182C74.6383 95.303 73.6155 95.1136 72.608 94.75C71.608 94.3864 70.6989 93.7803 69.8807 92.9318C69.0625 92.0833 68.4072 90.9432 67.9148 89.5114C67.4299 88.0795 67.1875 86.2917 67.1875 84.1477C67.1875 82.1174 67.3883 80.3144 67.7898 78.7386C68.1989 77.1629 68.786 75.8333 69.5511 74.75C70.3163 73.6591 71.2405 72.8295 72.3239 72.2614C73.4072 71.6932 74.6231 71.4091 75.9716 71.4091C77.358 71.4091 78.589 71.6818 79.6648 72.2273C80.7405 72.7727 81.6117 73.5265 82.2784 74.4886C82.9527 75.4508 83.3807 76.5455 83.5625 77.7727H80.0966C79.8617 76.803 79.3958 76.0114 78.6989 75.3977C78.0019 74.7841 77.0928 74.4773 75.9716 74.4773C74.267 74.4773 72.9375 75.2197 71.983 76.7045C71.036 78.1894 70.5587 80.2538 70.5511 82.8977H70.7216C71.1231 82.2386 71.6155 81.678 72.1989 81.2159C72.7898 80.7462 73.4489 80.3864 74.1761 80.1364C74.911 79.8788 75.6837 79.75 76.4943 79.75C77.8428 79.75 79.0625 80.0795 80.1534 80.7386C81.2519 81.3902 82.1269 82.2917 82.7784 83.4432C83.4299 84.5947 83.7557 85.9129 83.7557 87.3977C83.7557 88.8826 83.4186 90.2273 82.7443 91.4318C82.0777 92.6364 81.1383 93.5909 79.9261 94.2955C78.714 94.9924 77.2973 95.3333 75.6761 95.3182ZM75.6648 92.3636C76.5587 92.3636 77.358 92.1439 78.0625 91.7045C78.767 91.2652 79.3239 90.6742 79.733 89.9318C80.142 89.1894 80.3466 88.3598 80.3466 87.4432C80.3466 86.5492 80.1458 85.7348 79.7443 85C79.3504 84.2652 78.8049 83.6818 78.108 83.25C77.4186 82.8182 76.6307 82.6023 75.7443 82.6023C75.0701 82.6023 74.4451 82.7311 73.8693 82.9886C73.3011 83.2462 72.8011 83.6023 72.3693 84.0568C71.9375 84.5114 71.5966 85.0341 71.3466 85.625C71.1042 86.2083 70.983 86.8258 70.983 87.4773C70.983 88.3485 71.1837 89.1553 71.5852 89.8977C71.9943 90.6402 72.5511 91.2386 73.2557 91.6932C73.9678 92.1402 74.7708 92.3636 75.6648 92.3636ZM95.9972 95.3182C94.4366 95.3182 93.0426 95.0492 91.8153 94.5114C90.5956 93.9735 89.6297 93.2273 88.9176 92.2727C88.2131 91.3106 87.8343 90.197 87.7812 88.9318H91.3494C91.3949 89.6212 91.6259 90.2197 92.0426 90.7273C92.4669 91.2273 93.0199 91.6136 93.7017 91.8864C94.3835 92.1591 95.1411 92.2955 95.9744 92.2955C96.8911 92.2955 97.7017 92.1364 98.4062 91.8182C99.1184 91.5 99.6752 91.0568 100.077 90.4886C100.478 89.9129 100.679 89.25 100.679 88.5C100.679 87.7197 100.478 87.0341 100.077 86.4432C99.6828 85.8447 99.1032 85.375 98.3381 85.0341C97.5805 84.6932 96.6638 84.5227 95.5881 84.5227H93.6222V81.6591H95.5881C96.4517 81.6591 97.2093 81.5038 97.8608 81.1932C98.5199 80.8826 99.035 80.4508 99.4062 79.8977C99.7775 79.3371 99.9631 78.6818 99.9631 77.9318C99.9631 77.2121 99.8002 76.5871 99.4744 76.0568C99.1563 75.5189 98.7017 75.0985 98.1108 74.7955C97.5275 74.4924 96.8381 74.3409 96.0426 74.3409C95.285 74.3409 94.5767 74.4811 93.9176 74.7614C93.2661 75.0341 92.7358 75.428 92.3267 75.9432C91.9176 76.4508 91.6979 77.0606 91.6676 77.7727H88.2699C88.3078 76.5152 88.679 75.4091 89.3835 74.4545C90.0956 73.5 91.035 72.7538 92.2017 72.2159C93.3684 71.678 94.6638 71.4091 96.0881 71.4091C97.5805 71.4091 98.8684 71.7008 99.9517 72.2841C101.043 72.8598 101.884 73.6288 102.474 74.5909C103.073 75.553 103.368 76.6061 103.361 77.75C103.368 79.053 103.005 80.1591 102.27 81.0682C101.543 81.9773 100.573 82.5871 99.3608 82.8977V83.0795C100.906 83.3144 102.103 83.928 102.952 84.9205C103.808 85.9129 104.232 87.1439 104.224 88.6136C104.232 89.8939 103.876 91.0417 103.156 92.0568C102.444 93.072 101.471 93.8712 100.236 94.4545C99.0009 95.0303 97.5881 95.3182 95.9972 95.3182ZM116.259 71.4091C117.296 71.4167 118.319 71.6061 119.327 71.9773C120.334 72.3485 121.243 72.9545 122.054 73.7955C122.872 74.6364 123.524 75.7727 124.009 77.2045C124.501 78.6288 124.751 80.4015 124.759 82.5227C124.759 84.5606 124.554 86.375 124.145 87.9659C123.736 89.5492 123.149 90.8864 122.384 91.9773C121.626 93.0682 120.705 93.8977 119.622 94.4659C118.539 95.0341 117.319 95.3182 115.963 95.3182C114.577 95.3182 113.346 95.0455 112.27 94.5C111.194 93.9545 110.319 93.2008 109.645 92.2386C108.971 91.2689 108.55 90.1553 108.384 88.8977H111.849C112.077 89.8977 112.539 90.7083 113.236 91.3295C113.94 91.9432 114.849 92.25 115.963 92.25C117.668 92.25 118.997 91.5076 119.952 90.0227C120.906 88.5303 121.387 86.447 121.395 83.7727H121.213C120.819 84.4242 120.327 84.9848 119.736 85.4545C119.152 85.9242 118.497 86.2879 117.77 86.5455C117.043 86.803 116.266 86.9318 115.44 86.9318C114.099 86.9318 112.88 86.6023 111.781 85.9432C110.683 85.2841 109.808 84.3788 109.156 83.2273C108.505 82.0758 108.179 80.7614 108.179 79.2841C108.179 77.8144 108.512 76.4811 109.179 75.2841C109.853 74.0871 110.793 73.1402 111.997 72.4432C113.209 71.7386 114.63 71.3939 116.259 71.4091ZM116.27 74.3636C115.384 74.3636 114.584 74.5833 113.872 75.0227C113.168 75.4545 112.611 76.0417 112.202 76.7841C111.793 77.5189 111.588 78.3371 111.588 79.2386C111.588 80.1402 111.785 80.9583 112.179 81.6932C112.58 82.4205 113.126 83 113.815 83.4318C114.512 83.8561 115.308 84.0682 116.202 84.0682C116.868 84.0682 117.49 83.9394 118.065 83.6818C118.641 83.4242 119.145 83.0682 119.577 82.6136C120.009 82.1515 120.346 81.6288 120.588 81.0455C120.83 80.4621 120.952 79.8485 120.952 79.2045C120.952 78.3485 120.747 77.553 120.338 76.8182C119.937 76.0833 119.384 75.4924 118.679 75.0455C117.974 74.5909 117.171 74.3636 116.27 74.3636ZM128.864 95V92.4545L136.739 84.2955C137.58 83.4091 138.273 82.6326 138.818 81.9659C139.371 81.2917 139.784 80.6515 140.057 80.0455C140.33 79.4394 140.466 78.7955 140.466 78.1136C140.466 77.3409 140.284 76.6742 139.92 76.1136C139.557 75.5455 139.061 75.1098 138.432 74.8068C137.803 74.4962 137.095 74.3409 136.307 74.3409C135.473 74.3409 134.746 74.5114 134.125 74.8523C133.504 75.1932 133.027 75.6742 132.693 76.2955C132.36 76.9167 132.193 77.6439 132.193 78.4773H128.841C128.841 77.0606 129.167 75.822 129.818 74.7614C130.47 73.7008 131.364 72.8788 132.5 72.2955C133.636 71.7045 134.928 71.4091 136.375 71.4091C137.837 71.4091 139.125 71.7008 140.239 72.2841C141.36 72.8598 142.235 73.6477 142.864 74.6477C143.492 75.6402 143.807 76.7614 143.807 78.0114C143.807 78.875 143.644 79.7197 143.318 80.5455C143 81.3712 142.443 82.2917 141.648 83.3068C140.852 84.3144 139.746 85.5379 138.33 86.9773L133.705 91.8182V91.9886H144.182V95H128.864ZM156.352 95.3182C154.723 95.3182 153.284 95.0379 152.034 94.4773C150.792 93.9167 149.818 93.1439 149.114 92.1591C148.409 91.1742 148.061 90.053 148.068 88.7955C148.061 87.8106 148.261 86.9053 148.67 86.0795C149.087 85.2462 149.652 84.553 150.364 84C151.076 83.4394 151.871 83.0833 152.75 82.9318V82.7955C151.591 82.5152 150.663 81.8939 149.966 80.9318C149.269 79.9697 148.924 78.8636 148.932 77.6136C148.924 76.4242 149.239 75.3636 149.875 74.4318C150.519 73.4924 151.402 72.7538 152.523 72.2159C153.644 71.678 154.92 71.4091 156.352 71.4091C157.769 71.4091 159.034 71.6818 160.148 72.2273C161.269 72.7652 162.152 73.5038 162.795 74.4432C163.439 75.375 163.765 76.4318 163.773 77.6136C163.765 78.8636 163.409 79.9697 162.705 80.9318C162 81.8939 161.083 82.5152 159.955 82.7955V82.9318C160.826 83.0833 161.61 83.4394 162.307 84C163.011 84.553 163.572 85.2462 163.989 86.0795C164.413 86.9053 164.629 87.8106 164.636 88.7955C164.629 90.053 164.273 91.1742 163.568 92.1591C162.864 93.1439 161.886 93.9167 160.636 94.4773C159.394 95.0379 157.966 95.3182 156.352 95.3182ZM156.352 92.4432C157.314 92.4432 158.148 92.2841 158.852 91.9659C159.557 91.6402 160.102 91.1894 160.489 90.6136C160.875 90.0303 161.072 89.3485 161.08 88.5682C161.072 87.7576 160.86 87.0417 160.443 86.4205C160.034 85.7992 159.477 85.3106 158.773 84.9545C158.068 84.5985 157.261 84.4205 156.352 84.4205C155.436 84.4205 154.621 84.5985 153.909 84.9545C153.197 85.3106 152.636 85.7992 152.227 86.4205C151.818 87.0417 151.617 87.7576 151.625 88.5682C151.617 89.3485 151.803 90.0303 152.182 90.6136C152.568 91.1894 153.117 91.6402 153.83 91.9659C154.542 92.2841 155.383 92.4432 156.352 92.4432ZM156.352 81.6136C157.125 81.6136 157.811 81.4583 158.409 81.1477C159.008 80.8371 159.477 80.4053 159.818 79.8523C160.167 79.2992 160.345 78.6515 160.352 77.9091C160.345 77.1818 160.17 76.5455 159.83 76C159.496 75.4545 159.03 75.0341 158.432 74.7386C157.833 74.4356 157.14 74.2841 156.352 74.2841C155.549 74.2841 154.845 74.4356 154.239 74.7386C153.64 75.0341 153.174 75.4545 152.841 76C152.508 76.5455 152.345 77.1818 152.352 77.9091C152.345 78.6515 152.511 79.2992 152.852 79.8523C153.193 80.4053 153.663 80.8371 154.261 81.1477C154.867 81.4583 155.564 81.6136 156.352 81.6136ZM169.491 95L179.651 74.9091V74.7386H167.901V71.7273H183.287V74.8409L173.162 95H169.491ZM194.608 95.3182C193.184 95.3182 191.903 95.0455 190.767 94.5C189.638 93.947 188.737 93.1894 188.062 92.2273C187.388 91.2652 187.028 90.1667 186.983 88.9318H190.392C190.475 89.9318 190.919 90.7538 191.722 91.3977C192.525 92.0417 193.487 92.3636 194.608 92.3636C195.502 92.3636 196.294 92.1591 196.983 91.75C197.68 91.3333 198.225 90.7614 198.619 90.0341C199.021 89.3068 199.222 88.4773 199.222 87.5455C199.222 86.5985 199.017 85.7538 198.608 85.0114C198.199 84.2689 197.634 83.6856 196.915 83.2614C196.203 82.8371 195.384 82.6212 194.46 82.6136C193.756 82.6136 193.047 82.7348 192.335 82.9773C191.623 83.2197 191.047 83.5379 190.608 83.9318L187.392 83.4545L188.699 71.7273H201.494V74.7386H191.619L190.881 81.25H191.017C191.472 80.8106 192.074 80.4432 192.824 80.1477C193.581 79.8523 194.392 79.7045 195.256 79.7045C196.672 79.7045 197.934 80.0417 199.04 80.7159C200.153 81.3902 201.028 82.3106 201.665 83.4773C202.309 84.6364 202.627 85.9697 202.619 87.4773C202.627 88.9848 202.286 90.3295 201.597 91.5114C200.915 92.6932 199.968 93.625 198.756 94.3068C197.551 94.9811 196.169 95.3182 194.608 95.3182ZM214.634 95.3182C213.005 95.3182 211.565 95.0379 210.315 94.4773C209.073 93.9167 208.099 93.1439 207.395 92.1591C206.69 91.1742 206.342 90.053 206.349 88.7955C206.342 87.8106 206.543 86.9053 206.952 86.0795C207.368 85.2462 207.933 84.553 208.645 84C209.357 83.4394 210.152 83.0833 211.031 82.9318V82.7955C209.872 82.5152 208.944 81.8939 208.247 80.9318C207.55 79.9697 207.205 78.8636 207.213 77.6136C207.205 76.4242 207.52 75.3636 208.156 74.4318C208.8 73.4924 209.683 72.7538 210.804 72.2159C211.925 71.678 213.202 71.4091 214.634 71.4091C216.05 71.4091 217.315 71.6818 218.429 72.2273C219.55 72.7652 220.433 73.5038 221.077 74.4432C221.721 75.375 222.046 76.4318 222.054 77.6136C222.046 78.8636 221.69 79.9697 220.986 80.9318C220.281 81.8939 219.365 82.5152 218.236 82.7955V82.9318C219.107 83.0833 219.891 83.4394 220.588 84C221.293 84.553 221.853 85.2462 222.27 86.0795C222.694 86.9053 222.91 87.8106 222.918 88.7955C222.91 90.053 222.554 91.1742 221.849 92.1591C221.145 93.1439 220.168 93.9167 218.918 94.4773C217.675 95.0379 216.247 95.3182 214.634 95.3182ZM214.634 92.4432C215.596 92.4432 216.429 92.2841 217.134 91.9659C217.838 91.6402 218.384 91.1894 218.77 90.6136C219.156 90.0303 219.353 89.3485 219.361 88.5682C219.353 87.7576 219.141 87.0417 218.724 86.4205C218.315 85.7992 217.759 85.3106 217.054 84.9545C216.349 84.5985 215.543 84.4205 214.634 84.4205C213.717 84.4205 212.902 84.5985 212.19 84.9545C211.478 85.3106 210.918 85.7992 210.509 86.4205C210.099 87.0417 209.899 87.7576 209.906 88.5682C209.899 89.3485 210.084 90.0303 210.463 90.6136C210.849 91.1894 211.399 91.6402 212.111 91.9659C212.823 92.2841 213.664 92.4432 214.634 92.4432ZM214.634 81.6136C215.406 81.6136 216.092 81.4583 216.69 81.1477C217.289 80.8371 217.759 80.4053 218.099 79.8523C218.448 79.2992 218.626 78.6515 218.634 77.9091C218.626 77.1818 218.452 76.5455 218.111 76C217.777 75.4545 217.312 75.0341 216.713 74.7386C216.115 74.4356 215.421 74.2841 214.634 74.2841C213.83 74.2841 213.126 74.4356 212.52 74.7386C211.921 75.0341 211.455 75.4545 211.122 76C210.789 76.5455 210.626 77.1818 210.634 77.9091C210.626 78.6515 210.793 79.2992 211.134 79.8523C211.474 80.4053 211.944 80.8371 212.543 81.1477C213.149 81.4583 213.846 81.6136 214.634 81.6136ZM234.67 95.3182C233.246 95.3182 231.966 95.0455 230.83 94.5C229.701 93.947 228.799 93.1894 228.125 92.2273C227.451 91.2652 227.091 90.1667 227.045 88.9318H230.455C230.538 89.9318 230.981 90.7538 231.784 91.3977C232.587 92.0417 233.549 92.3636 234.67 92.3636C235.564 92.3636 236.356 92.1591 237.045 91.75C237.742 91.3333 238.288 90.7614 238.682 90.0341C239.083 89.3068 239.284 88.4773 239.284 87.5455C239.284 86.5985 239.08 85.7538 238.67 85.0114C238.261 84.2689 237.697 83.6856 236.977 83.2614C236.265 82.8371 235.447 82.6212 234.523 82.6136C233.818 82.6136 233.11 82.7348 232.398 82.9773C231.686 83.2197 231.11 83.5379 230.67 83.9318L227.455 83.4545L228.761 71.7273H241.557V74.7386H231.682L230.943 81.25H231.08C231.534 80.8106 232.136 80.4432 232.886 80.1477C233.644 79.8523 234.455 79.7045 235.318 79.7045C236.735 79.7045 237.996 80.0417 239.102 80.7159C240.216 81.3902 241.091 82.3106 241.727 83.4773C242.371 84.6364 242.689 85.9697 242.682 87.4773C242.689 88.9848 242.348 90.3295 241.659 91.5114C240.977 92.6932 240.03 93.625 238.818 94.3068C237.614 94.9811 236.231 95.3182 234.67 95.3182ZM246.344 90.4545V87.6136L256.401 71.7273H258.639V75.9091H257.219L250.026 87.2955V87.4773H263.81V90.4545H246.344ZM257.378 95V89.5909L257.401 88.2955V71.7273H260.73V95H257.378ZM275.452 95.3182C274.027 95.3182 272.747 95.0455 271.611 94.5C270.482 93.947 269.58 93.1894 268.906 92.2273C268.232 91.2652 267.872 90.1667 267.827 88.9318H271.236C271.319 89.9318 271.762 90.7538 272.565 91.3977C273.368 92.0417 274.33 92.3636 275.452 92.3636C276.346 92.3636 277.137 92.1591 277.827 91.75C278.524 91.3333 279.069 90.7614 279.463 90.0341C279.865 89.3068 280.065 88.4773 280.065 87.5455C280.065 86.5985 279.861 85.7538 279.452 85.0114C279.043 84.2689 278.478 83.6856 277.759 83.2614C277.046 82.8371 276.228 82.6212 275.304 82.6136C274.599 82.6136 273.891 82.7348 273.179 82.9773C272.467 83.2197 271.891 83.5379 271.452 83.9318L268.236 83.4545L269.543 71.7273H282.338V74.7386H272.463L271.724 81.25H271.861C272.315 80.8106 272.918 80.4432 273.668 80.1477C274.425 79.8523 275.236 79.7045 276.099 79.7045C277.516 79.7045 278.777 80.0417 279.884 80.7159C280.997 81.3902 281.872 82.3106 282.509 83.4773C283.152 84.6364 283.471 85.9697 283.463 87.4773C283.471 88.9848 283.13 90.3295 282.44 91.5114C281.759 92.6932 280.812 93.625 279.599 94.3068C278.395 94.9811 277.012 95.3182 275.452 95.3182ZM295.477 95.3182C293.848 95.3182 292.409 95.0379 291.159 94.4773C289.917 93.9167 288.943 93.1439 288.239 92.1591C287.534 91.1742 287.186 90.053 287.193 88.7955C287.186 87.8106 287.386 86.9053 287.795 86.0795C288.212 85.2462 288.777 84.553 289.489 84C290.201 83.4394 290.996 83.0833 291.875 82.9318V82.7955C290.716 82.5152 289.788 81.8939 289.091 80.9318C288.394 79.9697 288.049 78.8636 288.057 77.6136C288.049 76.4242 288.364 75.3636 289 74.4318C289.644 73.4924 290.527 72.7538 291.648 72.2159C292.769 71.678 294.045 71.4091 295.477 71.4091C296.894 71.4091 298.159 71.6818 299.273 72.2273C300.394 72.7652 301.277 73.5038 301.92 74.4432C302.564 75.375 302.89 76.4318 302.898 77.6136C302.89 78.8636 302.534 79.9697 301.83 80.9318C301.125 81.8939 300.208 82.5152 299.08 82.7955V82.9318C299.951 83.0833 300.735 83.4394 301.432 84C302.136 84.553 302.697 85.2462 303.114 86.0795C303.538 86.9053 303.754 87.8106 303.761 88.7955C303.754 90.053 303.398 91.1742 302.693 92.1591C301.989 93.1439 301.011 93.9167 299.761 94.4773C298.519 95.0379 297.091 95.3182 295.477 95.3182ZM295.477 92.4432C296.439 92.4432 297.273 92.2841 297.977 91.9659C298.682 91.6402 299.227 91.1894 299.614 90.6136C300 90.0303 300.197 89.3485 300.205 88.5682C300.197 87.7576 299.985 87.0417 299.568 86.4205C299.159 85.7992 298.602 85.3106 297.898 84.9545C297.193 84.5985 296.386 84.4205 295.477 84.4205C294.561 84.4205 293.746 84.5985 293.034 84.9545C292.322 85.3106 291.761 85.7992 291.352 86.4205C290.943 87.0417 290.742 87.7576 290.75 88.5682C290.742 89.3485 290.928 90.0303 291.307 90.6136C291.693 91.1894 292.242 91.6402 292.955 91.9659C293.667 92.2841 294.508 92.4432 295.477 92.4432ZM295.477 81.6136C296.25 81.6136 296.936 81.4583 297.534 81.1477C298.133 80.8371 298.602 80.4053 298.943 79.8523C299.292 79.2992 299.47 78.6515 299.477 77.9091C299.47 77.1818 299.295 76.5455 298.955 76C298.621 75.4545 298.155 75.0341 297.557 74.7386C296.958 74.4356 296.265 74.2841 295.477 74.2841C294.674 74.2841 293.97 74.4356 293.364 74.7386C292.765 75.0341 292.299 75.4545 291.966 76C291.633 76.5455 291.47 77.1818 291.477 77.9091C291.47 78.6515 291.636 79.2992 291.977 79.8523C292.318 80.4053 292.788 80.8371 293.386 81.1477C293.992 81.4583 294.689 81.6136 295.477 81.6136Z" fill="#1E1E1E"/>
<path d="M63.7386 116.909H65.1193L69.8686 128.312H69.9837L74.733 116.909H76.1136V130H74.9886V119.434H74.8864L70.4695 130H69.3828L64.9659 119.434H64.8636V130H63.7386V116.909ZM83.1737 130.205C82.3256 130.205 81.5756 129.989 80.9237 129.559C80.2759 129.129 79.7688 128.534 79.4023 127.776C79.0359 127.013 78.8526 126.133 78.8526 125.136C78.8526 124.13 79.0359 123.246 79.4023 122.483C79.7688 121.716 80.2759 121.119 80.9237 120.693C81.5756 120.263 82.3256 120.048 83.1737 120.048C84.0217 120.048 84.7695 120.263 85.4173 120.693C86.065 121.124 86.5721 121.72 86.9386 122.483C87.3093 123.246 87.4947 124.13 87.4947 125.136C87.4947 126.133 87.3114 127.013 86.945 127.776C86.5785 128.534 86.0692 129.129 85.4173 129.559C84.7695 129.989 84.0217 130.205 83.1737 130.205ZM83.1737 129.163C83.8555 129.163 84.4329 128.979 84.9059 128.613C85.3789 128.246 85.7369 127.759 85.9798 127.149C86.2269 126.54 86.3505 125.869 86.3505 125.136C86.3505 124.403 86.2269 123.729 85.9798 123.116C85.7369 122.502 85.3789 122.01 84.9059 121.639C84.4329 121.268 83.8555 121.083 83.1737 121.083C82.4961 121.083 81.9187 121.268 81.4414 121.639C80.9684 122.01 80.6083 122.502 80.3612 123.116C80.1183 123.729 79.9968 124.403 79.9968 125.136C79.9968 125.869 80.1183 126.54 80.3612 127.149C80.6083 127.759 80.9684 128.246 81.4414 128.613C81.9144 128.979 82.4918 129.163 83.1737 129.163ZM91.1301 123.864V130H89.9924V120.182H91.0982V121.722H91.2005C91.4306 121.219 91.7885 120.817 92.2743 120.514C92.7644 120.207 93.3695 120.054 94.0897 120.054C94.7502 120.054 95.3297 120.192 95.8283 120.469C96.3311 120.742 96.7211 121.145 96.998 121.678C97.2793 122.21 97.4199 122.864 97.4199 123.64V130H96.2821V123.71C96.2821 122.905 96.0563 122.268 95.6046 121.799C95.1571 121.33 94.5563 121.096 93.802 121.096C93.2864 121.096 92.8283 121.207 92.4277 121.428C92.0272 121.65 91.7097 121.969 91.4753 122.387C91.2452 122.8 91.1301 123.293 91.1301 123.864ZM103.951 130.205C103.146 130.205 102.44 129.991 101.835 129.565C101.23 129.139 100.757 128.545 100.416 127.782C100.08 127.019 99.9112 126.131 99.9112 125.116C99.9112 124.107 100.08 123.222 100.416 122.464C100.757 121.701 101.232 121.109 101.842 120.687C102.451 120.261 103.161 120.048 103.97 120.048C104.567 120.048 105.063 120.154 105.46 120.367C105.856 120.576 106.173 120.836 106.412 121.147C106.651 121.458 106.836 121.761 106.968 122.055H107.07V116.909H108.214V130H107.102V128.178H106.968C106.836 128.477 106.648 128.783 106.406 129.099C106.163 129.41 105.841 129.672 105.44 129.885C105.044 130.098 104.548 130.205 103.951 130.205ZM104.085 129.163C104.72 129.163 105.261 128.99 105.709 128.645C106.156 128.295 106.497 127.816 106.732 127.207C106.97 126.593 107.089 125.89 107.089 125.097C107.089 124.313 106.972 123.621 106.738 123.02C106.504 122.415 106.163 121.942 105.715 121.601C105.268 121.256 104.724 121.083 104.085 121.083C103.429 121.083 102.875 121.262 102.423 121.62C101.976 121.974 101.635 122.453 101.401 123.058C101.17 123.663 101.055 124.343 101.055 125.097C101.055 125.86 101.173 126.548 101.407 127.162C101.641 127.776 101.982 128.263 102.43 128.626C102.881 128.984 103.433 129.163 104.085 129.163ZM114.197 130.224C113.605 130.224 113.064 130.109 112.574 129.879C112.084 129.644 111.694 129.308 111.404 128.869C111.114 128.425 110.969 127.888 110.969 127.258C110.969 126.772 111.061 126.363 111.244 126.031C111.428 125.698 111.688 125.425 112.024 125.212C112.361 124.999 112.759 124.831 113.219 124.707C113.68 124.584 114.187 124.488 114.741 124.42C115.29 124.352 115.755 124.292 116.134 124.241C116.518 124.19 116.81 124.109 117.01 123.998C117.21 123.887 117.31 123.708 117.31 123.461V123.231C117.31 122.562 117.11 122.036 116.71 121.652C116.313 121.264 115.742 121.07 114.996 121.07C114.289 121.07 113.712 121.226 113.264 121.537C112.821 121.848 112.51 122.214 112.331 122.636L111.251 122.246C111.472 121.71 111.779 121.281 112.171 120.962C112.563 120.638 113.002 120.406 113.488 120.265C113.974 120.12 114.466 120.048 114.964 120.048C115.339 120.048 115.729 120.097 116.134 120.195C116.543 120.293 116.923 120.463 117.272 120.706C117.621 120.945 117.905 121.279 118.122 121.71C118.339 122.136 118.448 122.677 118.448 123.333V130H117.31V128.447H117.24C117.104 128.737 116.901 129.018 116.633 129.29C116.364 129.563 116.028 129.787 115.623 129.962C115.218 130.136 114.743 130.224 114.197 130.224ZM114.351 129.182C114.956 129.182 115.48 129.048 115.923 128.779C116.366 128.511 116.707 128.155 116.946 127.712C117.189 127.264 117.31 126.772 117.31 126.235V124.816C117.225 124.897 117.082 124.969 116.882 125.033C116.686 125.097 116.458 125.155 116.198 125.206C115.942 125.253 115.687 125.293 115.431 125.327C115.175 125.362 114.945 125.391 114.741 125.417C114.187 125.485 113.714 125.592 113.322 125.737C112.93 125.881 112.629 126.082 112.42 126.337C112.212 126.589 112.107 126.913 112.107 127.309C112.107 127.906 112.32 128.368 112.746 128.696C113.173 129.02 113.707 129.182 114.351 129.182ZM121.916 133.682C121.69 133.682 121.479 133.661 121.283 133.618C121.087 133.575 120.931 133.528 120.816 133.477L121.123 132.474C121.511 132.593 121.856 132.636 122.159 132.602C122.461 132.572 122.73 132.435 122.964 132.192C123.199 131.954 123.407 131.587 123.591 131.093L123.949 130.096L120.337 120.182H121.571L124.485 128.498H124.575L127.49 120.182H128.723L124.569 131.553C124.394 132.026 124.179 132.42 123.923 132.736C123.667 133.055 123.371 133.292 123.034 133.445C122.702 133.603 122.329 133.682 121.916 133.682ZM141.311 122.918V123.991H135.865V122.918H141.311ZM149.467 130V116.909H157.042V117.983H150.662V122.911H156.447V123.985H150.662V130H149.467ZM159.672 130V120.182H160.778V121.69H160.861C161.057 121.196 161.398 120.798 161.884 120.495C162.374 120.188 162.928 120.035 163.546 120.035C163.639 120.035 163.744 120.037 163.859 120.041C163.974 120.045 164.07 120.05 164.146 120.054V121.211C164.095 121.202 164.006 121.19 163.878 121.173C163.75 121.156 163.612 121.147 163.463 121.147C162.951 121.147 162.495 121.256 162.095 121.473C161.698 121.686 161.385 121.982 161.155 122.362C160.925 122.741 160.81 123.173 160.81 123.659V130H159.672ZM166.101 130V120.182H167.245V130H166.101ZM166.683 118.494C166.448 118.494 166.248 118.415 166.082 118.258C165.915 118.096 165.832 117.902 165.832 117.676C165.832 117.45 165.915 117.259 166.082 117.101C166.248 116.939 166.448 116.858 166.683 116.858C166.917 116.858 167.117 116.939 167.283 117.101C167.45 117.259 167.533 117.45 167.533 117.676C167.533 117.902 167.45 118.096 167.283 118.258C167.117 118.415 166.917 118.494 166.683 118.494ZM173.789 130.205C172.983 130.205 172.278 129.991 171.673 129.565C171.068 129.139 170.595 128.545 170.254 127.782C169.917 127.019 169.749 126.131 169.749 125.116C169.749 124.107 169.917 123.222 170.254 122.464C170.595 121.701 171.07 121.109 171.68 120.687C172.289 120.261 172.998 120.048 173.808 120.048C174.405 120.048 174.901 120.154 175.297 120.367C175.694 120.576 176.011 120.836 176.25 121.147C176.488 121.458 176.674 121.761 176.806 122.055H176.908V116.909H178.052V130H176.94V128.178H176.806C176.674 128.477 176.486 128.783 176.243 129.099C176.001 129.41 175.679 129.672 175.278 129.885C174.882 130.098 174.385 130.205 173.789 130.205ZM173.923 129.163C174.558 129.163 175.099 128.99 175.547 128.645C175.994 128.295 176.335 127.816 176.569 127.207C176.808 126.593 176.927 125.89 176.927 125.097C176.927 124.313 176.81 123.621 176.576 123.02C176.341 122.415 176.001 121.942 175.553 121.601C175.106 121.256 174.562 121.083 173.923 121.083C173.267 121.083 172.713 121.262 172.261 121.62C171.814 121.974 171.473 122.453 171.238 123.058C171.008 123.663 170.893 124.343 170.893 125.097C170.893 125.86 171.01 126.548 171.245 127.162C171.479 127.776 171.82 128.263 172.268 128.626C172.719 128.984 173.271 129.163 173.923 129.163ZM184.035 130.224C183.443 130.224 182.902 130.109 182.412 129.879C181.922 129.644 181.532 129.308 181.242 128.869C180.952 128.425 180.807 127.888 180.807 127.258C180.807 126.772 180.899 126.363 181.082 126.031C181.265 125.698 181.525 125.425 181.862 125.212C182.199 124.999 182.597 124.831 183.057 124.707C183.518 124.584 184.025 124.488 184.579 124.42C185.128 124.352 185.593 124.292 185.972 124.241C186.356 124.19 186.648 124.109 186.848 123.998C187.048 123.887 187.148 123.708 187.148 123.461V123.231C187.148 122.562 186.948 122.036 186.547 121.652C186.151 121.264 185.58 121.07 184.834 121.07C184.127 121.07 183.55 121.226 183.102 121.537C182.659 121.848 182.348 122.214 182.169 122.636L181.089 122.246C181.31 121.71 181.617 121.281 182.009 120.962C182.401 120.638 182.84 120.406 183.326 120.265C183.812 120.12 184.304 120.048 184.802 120.048C185.177 120.048 185.567 120.097 185.972 120.195C186.381 120.293 186.76 120.463 187.11 120.706C187.459 120.945 187.743 121.279 187.96 121.71C188.177 122.136 188.286 122.677 188.286 123.333V130H187.148V128.447H187.078C186.942 128.737 186.739 129.018 186.471 129.29C186.202 129.563 185.866 129.787 185.461 129.962C185.056 130.136 184.581 130.224 184.035 130.224ZM184.189 129.182C184.794 129.182 185.318 129.048 185.761 128.779C186.204 128.511 186.545 128.155 186.784 127.712C187.027 127.264 187.148 126.772 187.148 126.235V124.816C187.063 124.897 186.92 124.969 186.72 125.033C186.524 125.097 186.296 125.155 186.036 125.206C185.78 125.253 185.525 125.293 185.269 125.327C185.013 125.362 184.783 125.391 184.579 125.417C184.025 125.485 183.552 125.592 183.16 125.737C182.768 125.881 182.467 126.082 182.258 126.337C182.05 126.589 181.945 126.913 181.945 127.309C181.945 127.906 182.158 128.368 182.584 128.696C183.01 129.02 183.545 129.182 184.189 129.182ZM191.754 133.682C191.528 133.682 191.317 133.661 191.121 133.618C190.925 133.575 190.769 133.528 190.654 133.477L190.961 132.474C191.349 132.593 191.694 132.636 191.997 132.602C192.299 132.572 192.568 132.435 192.802 132.192C193.036 131.954 193.245 131.587 193.428 131.093L193.786 130.096L190.175 120.182H191.409L194.323 128.498H194.413L197.328 120.182H198.561L194.406 131.553C194.232 132.026 194.017 132.42 193.761 132.736C193.505 133.055 193.209 133.292 192.872 133.445C192.54 133.603 192.167 133.682 191.754 133.682ZM201.695 129.751C201.444 129.751 201.226 129.661 201.043 129.482C200.864 129.303 200.775 129.086 200.775 128.83C200.775 128.579 200.864 128.364 201.043 128.185C201.226 128.001 201.444 127.91 201.695 127.91C201.951 127.91 202.168 128.001 202.347 128.185C202.526 128.364 202.615 128.579 202.615 128.83C202.615 129.001 202.573 129.156 202.488 129.297C202.407 129.433 202.296 129.544 202.155 129.629C202.019 129.71 201.865 129.751 201.695 129.751ZM201.695 122.668C201.444 122.668 201.226 122.579 201.043 122.4C200.864 122.221 200.775 122.004 200.775 121.748C200.775 121.496 200.864 121.281 201.043 121.102C201.226 120.919 201.444 120.827 201.695 120.827C201.951 120.827 202.168 120.919 202.347 121.102C202.526 121.281 202.615 121.496 202.615 121.748C202.615 121.918 202.573 122.074 202.488 122.214C202.407 122.351 202.296 122.462 202.155 122.547C202.019 122.628 201.865 122.668 201.695 122.668ZM214.685 130.179C213.85 130.179 213.106 130.021 212.454 129.706C211.802 129.391 211.291 128.96 210.92 128.415C210.55 127.865 210.364 127.245 210.364 126.555C210.364 126.013 210.477 125.509 210.703 125.04C210.929 124.567 211.24 124.17 211.636 123.851C212.032 123.527 212.478 123.316 212.972 123.218V123.148C212.329 122.96 211.811 122.592 211.419 122.042C211.027 121.488 210.833 120.859 210.837 120.156C210.833 119.504 210.999 118.92 211.336 118.405C211.672 117.889 212.131 117.482 212.71 117.184C213.294 116.881 213.952 116.73 214.685 116.73C215.414 116.73 216.068 116.881 216.648 117.184C217.227 117.482 217.685 117.889 218.022 118.405C218.363 118.92 218.535 119.504 218.54 120.156C218.535 120.855 218.337 121.484 217.945 122.042C217.553 122.596 217.037 122.964 216.398 123.148V123.218C216.893 123.312 217.336 123.521 217.728 123.844C218.12 124.168 218.431 124.567 218.661 125.04C218.891 125.509 219.006 126.013 219.006 126.555C219.006 127.245 218.819 127.865 218.444 128.415C218.073 128.96 217.562 129.391 216.91 129.706C216.262 130.021 215.52 130.179 214.685 130.179ZM214.685 129.105C215.307 129.105 215.853 128.994 216.322 128.773C216.795 128.547 217.163 128.238 217.427 127.846C217.696 127.454 217.83 127.004 217.83 126.497C217.83 125.973 217.692 125.506 217.415 125.097C217.138 124.684 216.763 124.358 216.29 124.119C215.817 123.876 215.282 123.755 214.685 123.755C214.089 123.755 213.552 123.876 213.074 124.119C212.601 124.358 212.226 124.684 211.949 125.097C211.677 125.506 211.54 125.973 211.54 126.497C211.54 127.004 211.67 127.454 211.93 127.846C212.194 128.238 212.563 128.547 213.036 128.773C213.513 128.994 214.063 129.105 214.685 129.105ZM214.685 122.732C215.197 122.732 215.655 122.624 216.059 122.406C216.464 122.189 216.784 121.893 217.018 121.518C217.257 121.138 217.378 120.708 217.383 120.227C217.378 119.749 217.259 119.327 217.025 118.961C216.79 118.59 216.471 118.303 216.066 118.098C215.665 117.889 215.205 117.785 214.685 117.785C214.165 117.785 213.701 117.889 213.292 118.098C212.887 118.303 212.567 118.59 212.333 118.961C212.103 119.327 211.99 119.749 211.994 120.227C211.99 120.708 212.105 121.138 212.339 121.518C212.578 121.893 212.9 122.189 213.305 122.406C213.714 122.624 214.174 122.732 214.685 122.732ZM224.447 130.224C223.855 130.224 223.314 130.109 222.824 129.879C222.334 129.644 221.944 129.308 221.654 128.869C221.364 128.425 221.219 127.888 221.219 127.258C221.219 126.772 221.311 126.363 221.494 126.031C221.678 125.698 221.938 125.425 222.274 125.212C222.611 124.999 223.009 124.831 223.469 124.707C223.93 124.584 224.437 124.488 224.991 124.42C225.54 124.352 226.005 124.292 226.384 124.241C226.768 124.19 227.06 124.109 227.26 123.998C227.46 123.887 227.56 123.708 227.56 123.461V123.231C227.56 122.562 227.36 122.036 226.96 121.652C226.563 121.264 225.992 121.07 225.246 121.07C224.539 121.07 223.962 121.226 223.514 121.537C223.071 121.848 222.76 122.214 222.581 122.636L221.501 122.246C221.722 121.71 222.029 121.281 222.421 120.962C222.813 120.638 223.252 120.406 223.738 120.265C224.224 120.12 224.716 120.048 225.214 120.048C225.589 120.048 225.979 120.097 226.384 120.195C226.793 120.293 227.173 120.463 227.522 120.706C227.871 120.945 228.155 121.279 228.372 121.71C228.589 122.136 228.698 122.677 228.698 123.333V130H227.56V128.447H227.49C227.354 128.737 227.151 129.018 226.883 129.29C226.614 129.563 226.278 129.787 225.873 129.962C225.468 130.136 224.993 130.224 224.447 130.224ZM224.601 129.182C225.206 129.182 225.73 129.048 226.173 128.779C226.616 128.511 226.957 128.155 227.196 127.712C227.439 127.264 227.56 126.772 227.56 126.235V124.816C227.475 124.897 227.332 124.969 227.132 125.033C226.936 125.097 226.708 125.155 226.448 125.206C226.192 125.253 225.937 125.293 225.681 125.327C225.425 125.362 225.195 125.391 224.991 125.417C224.437 125.485 223.964 125.592 223.572 125.737C223.18 125.881 222.879 126.082 222.67 126.337C222.462 126.589 222.357 126.913 222.357 127.309C222.357 127.906 222.57 128.368 222.996 128.696C223.423 129.02 223.957 129.182 224.601 129.182ZM231.725 130V120.182H232.831V121.69H232.933C233.129 121.183 233.455 120.785 233.911 120.495C234.371 120.201 234.923 120.054 235.566 120.054C236.244 120.054 236.8 120.214 237.235 120.533C237.674 120.849 238.002 121.283 238.219 121.837H238.302C238.524 121.292 238.884 120.859 239.382 120.54C239.885 120.216 240.495 120.054 241.211 120.054C242.123 120.054 242.843 120.342 243.371 120.917C243.9 121.488 244.164 122.323 244.164 123.423V130H243.026V123.423C243.026 122.647 242.828 122.065 242.431 121.678C242.035 121.29 241.513 121.096 240.865 121.096C240.115 121.096 239.538 121.326 239.133 121.786C238.728 122.246 238.526 122.83 238.526 123.538V130H237.363V123.32C237.363 122.656 237.177 122.119 236.806 121.71C236.436 121.3 235.914 121.096 235.24 121.096C234.789 121.096 234.382 121.207 234.02 121.428C233.662 121.65 233.378 121.959 233.169 122.355C232.965 122.747 232.863 123.199 232.863 123.71V130H231.725ZM257.537 122.918V123.991H252.091V122.918H257.537ZM269.241 130.179C268.513 130.179 267.861 130.032 267.285 129.738C266.714 129.44 266.258 129.031 265.917 128.511C265.581 127.991 265.402 127.396 265.381 126.727H266.537C266.576 127.422 266.849 127.993 267.356 128.44C267.863 128.884 268.491 129.105 269.241 129.105C269.825 129.105 270.345 128.967 270.801 128.69C271.257 128.408 271.613 128.025 271.868 127.539C272.128 127.049 272.258 126.497 272.258 125.884C272.254 125.244 272.116 124.682 271.843 124.196C271.57 123.706 271.199 123.322 270.731 123.045C270.266 122.768 269.744 122.63 269.165 122.63C268.726 122.626 268.295 122.698 267.873 122.847C267.452 122.996 267.1 123.188 266.819 123.423L265.623 123.269L266.41 116.909H272.878V117.983H267.413L266.889 122.362H266.953C267.243 122.119 267.594 121.92 268.008 121.767C268.425 121.614 268.866 121.537 269.331 121.537C270.102 121.537 270.795 121.722 271.408 122.093C272.026 122.464 272.514 122.975 272.872 123.627C273.234 124.275 273.415 125.021 273.415 125.864C273.415 126.691 273.234 127.43 272.872 128.082C272.514 128.73 272.02 129.241 271.389 129.616C270.763 129.991 270.047 130.179 269.241 130.179ZM276.18 133.682V120.182H277.286V122.055H277.42C277.556 121.761 277.744 121.46 277.982 121.153C278.221 120.842 278.536 120.58 278.928 120.367C279.325 120.154 279.823 120.048 280.424 120.048C281.234 120.048 281.941 120.261 282.546 120.687C283.156 121.109 283.629 121.701 283.965 122.464C284.306 123.222 284.477 124.107 284.477 125.116C284.477 126.131 284.306 127.019 283.965 127.782C283.629 128.545 283.156 129.139 282.546 129.565C281.941 129.991 281.238 130.205 280.437 130.205C279.845 130.205 279.348 130.098 278.948 129.885C278.551 129.672 278.23 129.41 277.982 129.099C277.74 128.783 277.552 128.477 277.42 128.178H277.318V133.682H276.18ZM277.305 125.097C277.305 125.89 277.422 126.593 277.656 127.207C277.895 127.816 278.236 128.295 278.679 128.645C279.127 128.99 279.668 129.163 280.303 129.163C280.955 129.163 281.504 128.984 281.952 128.626C282.404 128.263 282.747 127.776 282.981 127.162C283.22 126.548 283.339 125.86 283.339 125.097C283.339 124.343 283.222 123.663 282.987 123.058C282.757 122.453 282.416 121.974 281.965 121.62C281.513 121.262 280.959 121.083 280.303 121.083C279.664 121.083 279.12 121.256 278.673 121.601C278.225 121.942 277.884 122.415 277.65 123.02C277.42 123.621 277.305 124.313 277.305 125.097ZM286.973 130V120.182H288.079V121.69H288.181C288.377 121.183 288.703 120.785 289.159 120.495C289.619 120.201 290.171 120.054 290.814 120.054C291.492 120.054 292.048 120.214 292.483 120.533C292.922 120.849 293.25 121.283 293.467 121.837H293.55C293.772 121.292 294.132 120.859 294.631 120.54C295.133 120.216 295.743 120.054 296.459 120.054C297.371 120.054 298.091 120.342 298.619 120.917C299.148 121.488 299.412 122.323 299.412 123.423V130H298.274V123.423C298.274 122.647 298.076 122.065 297.68 121.678C297.283 121.29 296.761 121.096 296.113 121.096C295.363 121.096 294.786 121.326 294.381 121.786C293.976 122.246 293.774 122.83 293.774 123.538V130H292.611V123.32C292.611 122.656 292.425 122.119 292.055 121.71C291.684 121.3 291.162 121.096 290.488 121.096C290.037 121.096 289.63 121.207 289.268 121.428C288.91 121.65 288.626 121.959 288.417 122.355C288.213 122.747 288.111 123.199 288.111 123.71V130H286.973Z" fill="#4B4036" fill-opacity="0.5"/>
<path d="M59.9915 37H58.7898C58.7003 36.5526 58.5384 36.1392 58.304 35.7599C58.0739 35.3764 57.7841 35.0419 57.4347 34.7564C57.0852 34.4709 56.6889 34.2493 56.2457 34.0916C55.8026 33.9339 55.3232 33.8551 54.8075 33.8551C53.9808 33.8551 53.2266 34.0703 52.5447 34.5007C51.8672 34.9311 51.3239 35.5639 50.9148 36.3991C50.5099 37.2301 50.3075 38.2486 50.3075 39.4545C50.3075 40.669 50.5099 41.6918 50.9148 42.5227C51.3239 43.3537 51.8672 43.9844 52.5447 44.4148C53.2266 44.8409 53.9808 45.054 54.8075 45.054C55.3232 45.054 55.8026 44.9751 56.2457 44.8175C56.6889 44.6598 57.0852 44.4403 57.4347 44.1591C57.7841 43.8736 58.0739 43.5391 58.304 43.1555C58.5384 42.772 58.7003 42.3565 58.7898 41.9091H59.9915C59.8849 42.5099 59.6847 43.0703 59.3906 43.5902C59.1009 44.1058 58.7301 44.5575 58.2784 44.9453C57.831 45.3331 57.3153 45.6357 56.7315 45.853C56.1477 46.0703 55.5064 46.179 54.8075 46.179C53.7081 46.179 52.7322 45.9041 51.88 45.3544C51.0277 44.8004 50.3587 44.0206 49.8729 43.0149C49.3913 42.0092 49.1506 40.8224 49.1506 39.4545C49.1506 38.0866 49.3913 36.8999 49.8729 35.8942C50.3587 34.8885 51.0277 34.1108 51.88 33.5611C52.7322 33.0071 53.7081 32.7301 54.8075 32.7301C55.5064 32.7301 56.1477 32.8388 56.7315 33.0561C57.3153 33.2692 57.831 33.5717 58.2784 33.9638C58.7301 34.3516 59.1009 34.8033 59.3906 35.3189C59.6847 35.8345 59.8849 36.3949 59.9915 37ZM65.3049 46.2237C64.7125 46.2237 64.1713 46.1087 63.6813 45.8786C63.1912 45.6442 62.8013 45.3075 62.5115 44.8686C62.2218 44.4254 62.0769 43.8885 62.0769 43.2578C62.0769 42.772 62.1685 42.3629 62.3517 42.0305C62.535 41.6982 62.7949 41.4254 63.1316 41.2124C63.4682 40.9993 63.8667 40.831 64.3269 40.7074C64.7871 40.5838 65.2942 40.4879 65.8482 40.4197C66.3979 40.3516 66.8624 40.2919 67.2417 40.2408C67.6252 40.1896 67.9171 40.1087 68.1174 39.9979C68.3176 39.8871 68.4178 39.7081 68.4178 39.4609V39.2308C68.4178 38.5618 68.2175 38.0355 67.8169 37.652C67.4206 37.2642 66.8496 37.0703 66.1039 37.0703C65.3965 37.0703 64.8191 37.2259 64.3716 37.5369C63.9284 37.848 63.6174 38.2145 63.4384 38.6364L62.3581 38.2464C62.5797 37.7095 62.8865 37.2812 63.2786 36.9616C63.6706 36.6378 64.1096 36.4055 64.5953 36.2649C65.0811 36.12 65.5733 36.0476 66.0719 36.0476C66.4469 36.0476 66.8368 36.0966 67.2417 36.1946C67.6507 36.2926 68.03 36.4631 68.3794 36.706C68.7289 36.9446 69.0123 37.2791 69.2296 37.7095C69.4469 38.1357 69.5556 38.6768 69.5556 39.3331V46H68.4178V44.4467H68.3475C68.2111 44.7365 68.0087 45.0178 67.7402 45.2905C67.4718 45.5632 67.1351 45.7869 66.7303 45.9616C66.3255 46.1364 65.8503 46.2237 65.3049 46.2237ZM65.4583 45.1818C66.0634 45.1818 66.5875 45.0476 67.0307 44.7791C67.4739 44.5107 67.8148 44.1548 68.0534 43.7116C68.2963 43.2642 68.4178 42.772 68.4178 42.2351V40.8161C68.3326 40.897 68.1898 40.9695 67.9895 41.0334C67.7935 41.0973 67.5655 41.1548 67.3056 41.206C67.0499 41.2528 66.7942 41.2933 66.5385 41.3274C66.2828 41.3615 66.0527 41.3913 65.8482 41.4169C65.2942 41.4851 64.8212 41.5916 64.4292 41.7365C64.0371 41.8814 63.7367 42.0817 63.5279 42.3374C63.3191 42.5888 63.2147 42.9126 63.2147 43.3089C63.2147 43.9055 63.4277 44.3679 63.8539 44.696C64.28 45.0199 64.8148 45.1818 65.4583 45.1818ZM73.72 32.9091V46H72.5822V32.9091H73.72ZM77.8684 32.9091V46H76.7306V32.9091H77.8684ZM88.6838 46.2237C88.0914 46.2237 87.5502 46.1087 87.0602 45.8786C86.5701 45.6442 86.1802 45.3075 85.8904 44.8686C85.6007 44.4254 85.4558 43.8885 85.4558 43.2578C85.4558 42.772 85.5474 42.3629 85.7306 42.0305C85.9139 41.6982 86.1738 41.4254 86.5105 41.2124C86.8471 40.9993 87.2456 40.831 87.7058 40.7074C88.166 40.5838 88.6731 40.4879 89.2271 40.4197C89.7768 40.3516 90.2413 40.2919 90.6206 40.2408C91.0041 40.1896 91.296 40.1087 91.4963 39.9979C91.6966 39.8871 91.7967 39.7081 91.7967 39.4609V39.2308C91.7967 38.5618 91.5964 38.0355 91.1958 37.652C90.7995 37.2642 90.2285 37.0703 89.4828 37.0703C88.7754 37.0703 88.198 37.2259 87.7505 37.5369C87.3074 37.848 86.9963 38.2145 86.8173 38.6364L85.737 38.2464C85.9586 37.7095 86.2654 37.2812 86.6575 36.9616C87.0495 36.6378 87.4885 36.4055 87.9743 36.2649C88.46 36.12 88.9522 36.0476 89.4508 36.0476C89.8258 36.0476 90.2157 36.0966 90.6206 36.1946C91.0297 36.2926 91.4089 36.4631 91.7583 36.706C92.1078 36.9446 92.3912 37.2791 92.6085 37.7095C92.8258 38.1357 92.9345 38.6768 92.9345 39.3331V46H91.7967V44.4467H91.7264C91.59 44.7365 91.3876 45.0178 91.1191 45.2905C90.8507 45.5632 90.514 45.7869 90.1092 45.9616C89.7044 46.1364 89.2292 46.2237 88.6838 46.2237ZM88.8372 45.1818C89.4423 45.1818 89.9664 45.0476 90.4096 44.7791C90.8528 44.5107 91.1937 44.1548 91.4324 43.7116C91.6752 43.2642 91.7967 42.772 91.7967 42.2351V40.8161C91.7115 40.897 91.5687 40.9695 91.3684 41.0334C91.1724 41.0973 90.9444 41.1548 90.6845 41.206C90.4288 41.2528 90.1731 41.2933 89.9174 41.3274C89.6618 41.3615 89.4316 41.3913 89.2271 41.4169C88.6731 41.4851 88.2001 41.5916 87.8081 41.7365C87.416 41.8814 87.1156 42.0817 86.9068 42.3374C86.698 42.5888 86.5936 42.9126 86.5936 43.3089C86.5936 43.9055 86.8066 44.3679 87.2328 44.696C87.6589 45.0199 88.1937 45.1818 88.8372 45.1818ZM97.0989 39.8636V46H95.9611V36.1818H97.0669V37.7223H97.1692C97.3993 37.2195 97.7573 36.8168 98.2431 36.5142C98.7331 36.2074 99.3382 36.054 100.058 36.054C100.719 36.054 101.298 36.1925 101.797 36.4695C102.3 36.7422 102.69 37.1449 102.967 37.6776C103.248 38.2102 103.389 38.8643 103.389 39.6399V46H102.251V39.7102C102.251 38.9048 102.025 38.2678 101.573 37.799C101.126 37.3303 100.525 37.0959 99.7708 37.0959C99.2551 37.0959 98.7971 37.2067 98.3965 37.4283C97.9959 37.6499 97.6784 37.9695 97.4441 38.3871C97.214 38.8004 97.0989 39.2926 97.0989 39.8636ZM109.92 46.2045C109.114 46.2045 108.409 45.9915 107.804 45.5653C107.199 45.1392 106.726 44.5447 106.385 43.782C106.048 43.0192 105.88 42.1307 105.88 41.1165C105.88 40.1065 106.048 39.2223 106.385 38.4638C106.726 37.701 107.201 37.1087 107.81 36.6868C108.42 36.2607 109.129 36.0476 109.939 36.0476C110.536 36.0476 111.032 36.1541 111.428 36.3672C111.825 36.576 112.142 36.8359 112.381 37.147C112.619 37.4581 112.805 37.7607 112.937 38.0547H113.039V32.9091H114.183V46H113.071V44.1783H112.937C112.805 44.4766 112.617 44.7834 112.374 45.0987C112.131 45.4098 111.81 45.6719 111.409 45.8849C111.013 46.098 110.516 46.2045 109.92 46.2045ZM110.054 45.1626C110.689 45.1626 111.23 44.9901 111.678 44.6449C112.125 44.2955 112.466 43.8161 112.7 43.2067C112.939 42.593 113.058 41.8899 113.058 41.0973C113.058 40.3132 112.941 39.6207 112.707 39.0199C112.472 38.4148 112.131 37.9418 111.684 37.6009C111.237 37.2557 110.693 37.0831 110.054 37.0831C109.398 37.0831 108.844 37.2621 108.392 37.62C107.945 37.9737 107.604 38.4531 107.369 39.0582C107.139 39.6634 107.024 40.343 107.024 41.0973C107.024 41.8601 107.141 42.5483 107.376 43.1619C107.61 43.7756 107.951 44.2635 108.398 44.6257C108.85 44.9837 109.402 45.1626 110.054 45.1626ZM122.723 46V32.9091H123.867V38.0547H123.969C124.097 37.7607 124.281 37.4581 124.519 37.147C124.762 36.8359 125.08 36.576 125.472 36.3672C125.868 36.1541 126.366 36.0476 126.967 36.0476C127.773 36.0476 128.48 36.2607 129.089 36.6868C129.699 37.1087 130.174 37.701 130.515 38.4638C130.856 39.2223 131.026 40.1065 131.026 41.1165C131.026 42.1307 130.856 43.0192 130.515 43.782C130.178 44.5447 129.705 45.1392 129.096 45.5653C128.491 45.9915 127.788 46.2045 126.987 46.2045C126.39 46.2045 125.891 46.098 125.491 45.8849C125.094 45.6719 124.775 45.4098 124.532 45.0987C124.289 44.7834 124.102 44.4766 123.969 44.1783H123.829V46H122.723ZM123.848 41.0973C123.848 41.8899 123.965 42.593 124.2 43.2067C124.438 43.8161 124.779 44.2955 125.222 44.6449C125.67 44.9901 126.211 45.1626 126.846 45.1626C127.498 45.1626 128.05 44.9837 128.501 44.6257C128.953 44.2635 129.296 43.7756 129.531 43.1619C129.765 42.5483 129.882 41.8601 129.882 41.0973C129.882 40.343 129.765 39.6634 129.531 39.0582C129.3 38.4531 128.96 37.9737 128.508 37.62C128.056 37.2621 127.502 37.0831 126.846 37.0831C126.207 37.0831 125.663 37.2557 125.216 37.6009C124.773 37.9418 124.434 38.4148 124.2 39.0199C123.965 39.6207 123.848 40.3132 123.848 41.0973ZM137.342 46.2045C136.494 46.2045 135.744 45.9893 135.092 45.5589C134.444 45.1286 133.937 44.5341 133.57 43.7756C133.204 43.0128 133.021 42.1328 133.021 41.1357C133.021 40.13 133.204 39.2457 133.57 38.483C133.937 37.7159 134.444 37.1193 135.092 36.6932C135.744 36.2628 136.494 36.0476 137.342 36.0476C138.19 36.0476 138.938 36.2628 139.585 36.6932C140.233 37.1236 140.74 37.7202 141.107 38.483C141.477 39.2457 141.663 40.13 141.663 41.1357C141.663 42.1328 141.479 43.0128 141.113 43.7756C140.746 44.5341 140.237 45.1286 139.585 45.5589C138.938 45.9893 138.19 46.2045 137.342 46.2045ZM137.342 45.1626C138.023 45.1626 138.601 44.9794 139.074 44.6129C139.547 44.2464 139.905 43.7585 140.148 43.1491C140.395 42.5398 140.518 41.8686 140.518 41.1357C140.518 40.4027 140.395 39.7294 140.148 39.1158C139.905 38.5021 139.547 38.0099 139.074 37.6392C138.601 37.2685 138.023 37.0831 137.342 37.0831C136.664 37.0831 136.087 37.2685 135.609 37.6392C135.136 38.0099 134.776 38.5021 134.529 39.1158C134.286 39.7294 134.165 40.4027 134.165 41.1357C134.165 41.8686 134.286 42.5398 134.529 43.1491C134.776 43.7585 135.136 44.2464 135.609 44.6129C136.082 44.9794 136.66 45.1626 137.342 45.1626ZM147.976 46.2045C147.128 46.2045 146.378 45.9893 145.726 45.5589C145.079 45.1286 144.572 44.5341 144.205 43.7756C143.839 43.0128 143.655 42.1328 143.655 41.1357C143.655 40.13 143.839 39.2457 144.205 38.483C144.572 37.7159 145.079 37.1193 145.726 36.6932C146.378 36.2628 147.128 36.0476 147.976 36.0476C148.824 36.0476 149.572 36.2628 150.22 36.6932C150.868 37.1236 151.375 37.7202 151.741 38.483C152.112 39.2457 152.297 40.13 152.297 41.1357C152.297 42.1328 152.114 43.0128 151.748 43.7756C151.381 44.5341 150.872 45.1286 150.22 45.5589C149.572 45.9893 148.824 46.2045 147.976 46.2045ZM147.976 45.1626C148.658 45.1626 149.236 44.9794 149.709 44.6129C150.182 44.2464 150.54 43.7585 150.782 43.1491C151.03 42.5398 151.153 41.8686 151.153 41.1357C151.153 40.4027 151.03 39.7294 150.782 39.1158C150.54 38.5021 150.182 38.0099 149.709 37.6392C149.236 37.2685 148.658 37.0831 147.976 37.0831C147.299 37.0831 146.721 37.2685 146.244 37.6392C145.771 38.0099 145.411 38.5021 145.164 39.1158C144.921 39.7294 144.8 40.4027 144.8 41.1357C144.8 41.8686 144.921 42.5398 145.164 43.1491C145.411 43.7585 145.771 44.2464 146.244 44.6129C146.717 44.9794 147.295 45.1626 147.976 45.1626ZM155.831 42.2926L155.818 40.8033H156.074L160.676 36.1818H162.114L157.569 40.733L157.467 40.7521L155.831 42.2926ZM154.795 46V32.9091H155.933V46H154.795ZM160.912 46L156.924 40.9567L157.742 40.1705L162.37 46H160.912ZM172.057 46.2237C171.464 46.2237 170.923 46.1087 170.433 45.8786C169.943 45.6442 169.553 45.3075 169.263 44.8686C168.974 44.4254 168.829 43.8885 168.829 43.2578C168.829 42.772 168.92 42.3629 169.104 42.0305C169.287 41.6982 169.547 41.4254 169.884 41.2124C170.22 40.9993 170.619 40.831 171.079 40.7074C171.539 40.5838 172.046 40.4879 172.6 40.4197C173.15 40.3516 173.614 40.2919 173.994 40.2408C174.377 40.1896 174.669 40.1087 174.869 39.9979C175.07 39.8871 175.17 39.7081 175.17 39.4609V39.2308C175.17 38.5618 174.969 38.0355 174.569 37.652C174.173 37.2642 173.602 37.0703 172.856 37.0703C172.148 37.0703 171.571 37.2259 171.124 37.5369C170.68 37.848 170.369 38.2145 170.19 38.6364L169.11 38.2464C169.332 37.7095 169.638 37.2812 170.031 36.9616C170.423 36.6378 170.862 36.4055 171.347 36.2649C171.833 36.12 172.325 36.0476 172.824 36.0476C173.199 36.0476 173.589 36.0966 173.994 36.1946C174.403 36.2926 174.782 36.4631 175.131 36.706C175.481 36.9446 175.764 37.2791 175.982 37.7095C176.199 38.1357 176.308 38.6768 176.308 39.3331V46H175.17V44.4467H175.099C174.963 44.7365 174.761 45.0178 174.492 45.2905C174.224 45.5632 173.887 45.7869 173.482 45.9616C173.077 46.1364 172.602 46.2237 172.057 46.2237ZM172.21 45.1818C172.815 45.1818 173.339 45.0476 173.783 44.7791C174.226 44.5107 174.567 44.1548 174.805 43.7116C175.048 43.2642 175.17 42.772 175.17 42.2351V40.8161C175.085 40.897 174.942 40.9695 174.741 41.0334C174.545 41.0973 174.317 41.1548 174.058 41.206C173.802 41.2528 173.546 41.2933 173.29 41.3274C173.035 41.3615 172.805 41.3913 172.6 41.4169C172.046 41.4851 171.573 41.5916 171.181 41.7365C170.789 41.8814 170.489 42.0817 170.28 42.3374C170.071 42.5888 169.967 42.9126 169.967 43.3089C169.967 43.9055 170.18 44.3679 170.606 44.696C171.032 45.0199 171.567 45.1818 172.21 45.1818ZM180.472 39.8636V46H179.334V36.1818H180.44V37.7223H180.542C180.772 37.2195 181.13 36.8168 181.616 36.5142C182.106 36.2074 182.711 36.054 183.431 36.054C184.092 36.054 184.672 36.1925 185.17 36.4695C185.673 36.7422 186.063 37.1449 186.34 37.6776C186.621 38.2102 186.762 38.8643 186.762 39.6399V46H185.624V39.7102C185.624 38.9048 185.398 38.2678 184.946 37.799C184.499 37.3303 183.898 37.0959 183.144 37.0959C182.628 37.0959 182.17 37.2067 181.77 37.4283C181.369 37.6499 181.051 37.9695 180.817 38.3871C180.587 38.8004 180.472 39.2926 180.472 39.8636ZM197.563 46.2237C196.97 46.2237 196.429 46.1087 195.939 45.8786C195.449 45.6442 195.059 45.3075 194.769 44.8686C194.48 44.4254 194.335 43.8885 194.335 43.2578C194.335 42.772 194.426 42.3629 194.61 42.0305C194.793 41.6982 195.053 41.4254 195.389 41.2124C195.726 40.9993 196.124 40.831 196.585 40.7074C197.045 40.5838 197.552 40.4879 198.106 40.4197C198.656 40.3516 199.12 40.2919 199.499 40.2408C199.883 40.1896 200.175 40.1087 200.375 39.9979C200.575 39.8871 200.676 39.7081 200.676 39.4609V39.2308C200.676 38.5618 200.475 38.0355 200.075 37.652C199.678 37.2642 199.107 37.0703 198.362 37.0703C197.654 37.0703 197.077 37.2259 196.629 37.5369C196.186 37.848 195.875 38.2145 195.696 38.6364L194.616 38.2464C194.838 37.7095 195.144 37.2812 195.536 36.9616C195.928 36.6378 196.367 36.4055 196.853 36.2649C197.339 36.12 197.831 36.0476 198.33 36.0476C198.705 36.0476 199.095 36.0966 199.499 36.1946C199.909 36.2926 200.288 36.4631 200.637 36.706C200.987 36.9446 201.27 37.2791 201.487 37.7095C201.705 38.1357 201.813 38.6768 201.813 39.3331V46H200.676V44.4467H200.605C200.469 44.7365 200.267 45.0178 199.998 45.2905C199.73 45.5632 199.393 45.7869 198.988 45.9616C198.583 46.1364 198.108 46.2237 197.563 46.2237ZM197.716 45.1818C198.321 45.1818 198.845 45.0476 199.289 44.7791C199.732 44.5107 200.073 44.1548 200.311 43.7116C200.554 43.2642 200.676 42.772 200.676 42.2351V40.8161C200.59 40.897 200.448 40.9695 200.247 41.0334C200.051 41.0973 199.823 41.1548 199.563 41.206C199.308 41.2528 199.052 41.2933 198.796 41.3274C198.541 41.3615 198.311 41.3913 198.106 41.4169C197.552 41.4851 197.079 41.5916 196.687 41.7365C196.295 41.8814 195.994 42.0817 195.786 42.3374C195.577 42.5888 195.472 42.9126 195.472 43.3089C195.472 43.9055 195.686 44.3679 196.112 44.696C196.538 45.0199 197.073 45.1818 197.716 45.1818ZM204.84 49.6818V36.1818H205.946V38.0547H206.08C206.216 37.7607 206.404 37.4602 206.643 37.1534C206.881 36.8423 207.197 36.5803 207.589 36.3672C207.985 36.1541 208.483 36.0476 209.084 36.0476C209.894 36.0476 210.601 36.2607 211.206 36.6868C211.816 37.1087 212.289 37.701 212.626 38.4638C212.966 39.2223 213.137 40.1065 213.137 41.1165C213.137 42.1307 212.966 43.0192 212.626 43.782C212.289 44.5447 211.816 45.1392 211.206 45.5653C210.601 45.9915 209.898 46.2045 209.097 46.2045C208.505 46.2045 208.008 46.098 207.608 45.8849C207.211 45.6719 206.89 45.4098 206.643 45.0987C206.4 44.7834 206.212 44.4766 206.08 44.1783H205.978V49.6818H204.84ZM205.965 41.0973C205.965 41.8899 206.082 42.593 206.317 43.2067C206.555 43.8161 206.896 44.2955 207.339 44.6449C207.787 44.9901 208.328 45.1626 208.963 45.1626C209.615 45.1626 210.165 44.9837 210.612 44.6257C211.064 44.2635 211.407 43.7756 211.641 43.1619C211.88 42.5483 211.999 41.8601 211.999 41.0973C211.999 40.343 211.882 39.6634 211.648 39.0582C211.417 38.4531 211.077 37.9737 210.625 37.62C210.173 37.2621 209.619 37.0831 208.963 37.0831C208.324 37.0831 207.78 37.2557 207.333 37.6009C206.885 37.9418 206.545 38.4148 206.31 39.0199C206.08 39.6207 205.965 40.3132 205.965 41.0973ZM215.633 49.6818V36.1818H216.739V38.0547H216.873C217.009 37.7607 217.197 37.4602 217.436 37.1534C217.674 36.8423 217.99 36.5803 218.382 36.3672C218.778 36.1541 219.276 36.0476 219.877 36.0476C220.687 36.0476 221.394 36.2607 221.999 36.6868C222.609 37.1087 223.082 37.701 223.419 38.4638C223.759 39.2223 223.93 40.1065 223.93 41.1165C223.93 42.1307 223.759 43.0192 223.419 43.782C223.082 44.5447 222.609 45.1392 221.999 45.5653C221.394 45.9915 220.691 46.2045 219.89 46.2045C219.298 46.2045 218.801 46.098 218.401 45.8849C218.004 45.6719 217.683 45.4098 217.436 45.0987C217.193 44.7834 217.005 44.4766 216.873 44.1783H216.771V49.6818H215.633ZM216.758 41.0973C216.758 41.8899 216.875 42.593 217.11 43.2067C217.348 43.8161 217.689 44.2955 218.132 44.6449C218.58 44.9901 219.121 45.1626 219.756 45.1626C220.408 45.1626 220.958 44.9837 221.405 44.6257C221.857 44.2635 222.2 43.7756 222.434 43.1619C222.673 42.5483 222.792 41.8601 222.792 41.0973C222.792 40.343 222.675 39.6634 222.441 39.0582C222.21 38.4531 221.869 37.9737 221.418 37.62C220.966 37.2621 220.412 37.0831 219.756 37.0831C219.117 37.0831 218.573 37.2557 218.126 37.6009C217.678 37.9418 217.338 38.4148 217.103 39.0199C216.873 39.6207 216.758 40.3132 216.758 41.0973ZM230.242 46.2045C229.394 46.2045 228.644 45.9893 227.992 45.5589C227.344 45.1286 226.837 44.5341 226.471 43.7756C226.104 43.0128 225.921 42.1328 225.921 41.1357C225.921 40.13 226.104 39.2457 226.471 38.483C226.837 37.7159 227.344 37.1193 227.992 36.6932C228.644 36.2628 229.394 36.0476 230.242 36.0476C231.09 36.0476 231.838 36.2628 232.486 36.6932C233.133 37.1236 233.64 37.7202 234.007 38.483C234.378 39.2457 234.563 40.13 234.563 41.1357C234.563 42.1328 234.38 43.0128 234.013 43.7756C233.647 44.5341 233.138 45.1286 232.486 45.5589C231.838 45.9893 231.09 46.2045 230.242 46.2045ZM230.242 45.1626C230.924 45.1626 231.501 44.9794 231.974 44.6129C232.447 44.2464 232.805 43.7585 233.048 43.1491C233.295 42.5398 233.419 41.8686 233.419 41.1357C233.419 40.4027 233.295 39.7294 233.048 39.1158C232.805 38.5021 232.447 38.0099 231.974 37.6392C231.501 37.2685 230.924 37.0831 230.242 37.0831C229.564 37.0831 228.987 37.2685 228.51 37.6392C228.037 38.0099 227.677 38.5021 227.43 39.1158C227.187 39.7294 227.065 40.4027 227.065 41.1357C227.065 41.8686 227.187 42.5398 227.43 43.1491C227.677 43.7585 228.037 44.2464 228.51 44.6129C228.983 44.9794 229.56 45.1626 230.242 45.1626ZM237.074 46V36.1818H238.218V46H237.074ZM237.655 34.4943C237.421 34.4943 237.221 34.4155 237.054 34.2578C236.888 34.0959 236.805 33.902 236.805 33.6761C236.805 33.4503 236.888 33.2585 237.054 33.1009C237.221 32.9389 237.421 32.858 237.655 32.858C237.89 32.858 238.09 32.9389 238.256 33.1009C238.422 33.2585 238.505 33.4503 238.505 33.6761C238.505 33.902 238.422 34.0959 238.256 34.2578C238.09 34.4155 237.89 34.4943 237.655 34.4943ZM242.365 39.8636V46H241.227V36.1818H242.333V37.7223H242.435C242.665 37.2195 243.023 36.8168 243.509 36.5142C243.999 36.2074 244.604 36.054 245.324 36.054C245.985 36.054 246.564 36.1925 247.063 36.4695C247.566 36.7422 247.955 37.1449 248.232 37.6776C248.514 38.2102 248.654 38.8643 248.654 39.6399V46H247.517V39.7102C247.517 38.9048 247.291 38.2678 246.839 37.799C246.392 37.3303 245.791 37.0959 245.036 37.0959C244.521 37.0959 244.063 37.2067 243.662 37.4283C243.262 37.6499 242.944 37.9695 242.71 38.3871C242.48 38.8004 242.365 39.2926 242.365 39.8636ZM255.518 36.1818V37.1726H250.832V36.1818H255.518ZM252.296 33.8295H253.44V43.4368C253.44 43.8459 253.511 44.1676 253.651 44.402C253.792 44.6321 253.975 44.7962 254.201 44.8942C254.427 44.9879 254.668 45.0348 254.923 45.0348C255.072 45.0348 255.2 45.0263 255.307 45.0092C255.413 44.9879 255.507 44.9666 255.588 44.9453L255.831 45.9744C255.72 46.017 255.584 46.0554 255.422 46.0895C255.26 46.1278 255.06 46.147 254.821 46.147C254.403 46.147 254.001 46.0554 253.613 45.8722C253.229 45.6889 252.914 45.4162 252.667 45.054C252.42 44.6918 252.296 44.2422 252.296 43.7053V33.8295ZM258.102 46V36.1818H259.208V37.6903H259.31C259.506 37.1832 259.832 36.7848 260.288 36.495C260.748 36.201 261.3 36.054 261.943 36.054C262.621 36.054 263.177 36.2138 263.612 36.5334C264.051 36.8487 264.379 37.2834 264.596 37.8374H264.679C264.901 37.2919 265.261 36.8594 265.759 36.5398C266.262 36.2159 266.872 36.054 267.588 36.054C268.499 36.054 269.22 36.3416 269.748 36.9169C270.276 37.4879 270.541 38.3232 270.541 39.4226V46H269.403V39.4226C269.403 38.647 269.205 38.0653 268.808 37.6776C268.412 37.2898 267.89 37.0959 267.242 37.0959C266.492 37.0959 265.915 37.326 265.51 37.7862C265.105 38.2464 264.903 38.8303 264.903 39.5376V46H263.74V39.3203C263.74 38.6555 263.554 38.1186 263.183 37.7095C262.813 37.3004 262.291 37.0959 261.617 37.0959C261.166 37.0959 260.759 37.2067 260.396 37.4283C260.039 37.6499 259.755 37.9588 259.546 38.3551C259.342 38.7472 259.24 39.1989 259.24 39.7102V46H258.102ZM277.522 46.2045C276.606 46.2045 275.814 45.9915 275.145 45.5653C274.475 45.1349 273.958 44.5405 273.591 43.782C273.229 43.0192 273.048 42.1413 273.048 41.1484C273.048 40.1598 273.229 39.282 273.591 38.5149C273.958 37.7436 274.463 37.1406 275.106 36.706C275.754 36.267 276.502 36.0476 277.35 36.0476C277.882 36.0476 278.396 36.1456 278.89 36.3416C279.385 36.5334 279.828 36.8295 280.22 37.2301C280.616 37.6264 280.929 38.1271 281.159 38.7322C281.39 39.3331 281.505 40.0447 281.505 40.8672V41.4297H273.834V40.4261H280.341C280.341 39.7955 280.213 39.2287 279.958 38.7259C279.706 38.2187 279.355 37.8182 278.903 37.5241C278.456 37.2301 277.938 37.0831 277.35 37.0831C276.728 37.0831 276.18 37.2493 275.707 37.5817C275.234 37.9141 274.863 38.353 274.595 38.8984C274.331 39.4439 274.196 40.0405 274.192 40.6882V41.2891C274.192 42.0689 274.326 42.7507 274.595 43.3345C274.868 43.9141 275.253 44.3636 275.752 44.6832C276.25 45.0028 276.841 45.1626 277.522 45.1626C277.987 45.1626 278.394 45.0902 278.743 44.9453C279.097 44.8004 279.393 44.6065 279.632 44.3636C279.875 44.1165 280.058 43.8459 280.181 43.5518L281.262 43.9034C281.113 44.3168 280.868 44.6982 280.527 45.0476C280.19 45.397 279.768 45.6783 279.261 45.8913C278.758 46.1001 278.179 46.2045 277.522 46.2045ZM285.15 39.8636V46H284.012V36.1818H285.118V37.7223H285.22C285.45 37.2195 285.808 36.8168 286.294 36.5142C286.784 36.2074 287.389 36.054 288.109 36.054C288.77 36.054 289.349 36.1925 289.848 36.4695C290.351 36.7422 290.741 37.1449 291.018 37.6776C291.299 38.2102 291.439 38.8643 291.439 39.6399V46H290.302V39.7102C290.302 38.9048 290.076 38.2678 289.624 37.799C289.177 37.3303 288.576 37.0959 287.822 37.0959C287.306 37.0959 286.848 37.2067 286.447 37.4283C286.047 37.6499 285.729 37.9695 285.495 38.3871C285.265 38.8004 285.15 39.2926 285.15 39.8636ZM298.303 36.1818V37.1726H293.618V36.1818H298.303ZM295.081 33.8295H296.225V43.4368C296.225 43.8459 296.296 44.1676 296.436 44.402C296.577 44.6321 296.76 44.7962 296.986 44.8942C297.212 44.9879 297.453 45.0348 297.708 45.0348C297.858 45.0348 297.985 45.0263 298.092 45.0092C298.199 44.9879 298.292 44.9666 298.373 44.9453L298.616 45.9744C298.505 46.017 298.369 46.0554 298.207 46.0895C298.045 46.1278 297.845 46.147 297.606 46.147C297.189 46.147 296.786 46.0554 296.398 45.8722C296.015 45.6889 295.699 45.4162 295.452 45.054C295.205 44.6918 295.081 44.2422 295.081 43.7053V33.8295Z" fill="#4B4036" fill-opacity="0.5"/>
</svg>
