<svg width="216" height="201" viewBox="0 0 216 201" fill="none" xmlns="http://www.w3.org/2000/svg">
<path d="M60.893 200.48C60.613 200.48 60.193 200.34 59.633 200.06C59.353 199.78 58.933 199.64 58.373 199.64C57.253 199.36 56.273 199.22 55.433 199.22C54.593 199.22 53.893 199.22 53.333 199.22C53.053 199.22 52.773 199.36 52.493 199.64C52.493 199.92 52.213 200.06 51.653 200.06C51.373 200.06 50.953 199.78 50.393 199.22C50.113 198.94 49.693 198.8 49.133 198.8H42.413C41.573 198.8 41.153 198.24 41.153 197.12C40.033 197.12 38.913 196.84 37.793 196.28C36.673 196 35.833 195.86 35.273 195.86C34.713 195.86 34.573 195.86 34.853 195.86C35.133 196.14 34.993 196.28 34.433 196.28C34.153 196.28 33.873 196 33.593 195.44C33.313 195.16 32.893 195.02 32.333 195.02C31.773 195.02 31.493 195.02 31.493 195.02C31.773 195.3 31.773 195.44 31.493 195.44C30.933 194.88 30.373 194.6 29.813 194.6C29.533 194.6 29.113 194.46 28.553 194.18C27.153 193.06 25.753 191.94 24.353 190.82C22.953 189.98 21.553 189 20.153 187.88C19.593 187.04 18.613 186.06 17.213 184.94C16.093 184.1 14.833 182.84 13.433 181.16C13.153 181.16 13.013 180.74 13.013 179.9C12.733 179.06 12.453 178.5 12.173 178.22C11.893 177.66 11.613 177.1 11.333 176.54C10.773 175.98 10.213 175.7 9.65297 175.7H8.81297C8.81297 175.7 8.81297 175.56 8.81297 175.28C8.81297 175.28 8.95297 175.28 9.23297 175.28L7.97297 174.44C7.69297 173.88 7.27297 173.04 6.71297 171.92C6.15297 171.08 5.87297 170.24 5.87297 169.4C5.59297 168.84 5.17297 168.42 4.61297 168.14C4.05297 167.86 3.63297 167.58 3.35297 167.3C3.35297 166.18 3.07297 164.78 2.51297 163.1C1.95297 161.98 1.53297 161.28 1.25297 161V159.74C1.53297 158.9 1.53297 158.62 1.25297 158.9C0.972968 158.9 0.832968 158.9 0.832968 158.9C0.832968 158.34 0.972968 158.06 1.25297 158.06C1.53297 158.06 1.67297 158.06 1.67297 158.06C0.832968 157.5 0.412968 156.66 0.412968 155.54C0.132968 154.14 0.132968 153.3 0.412968 153.02C0.972969 152.46 1.25297 152.18 1.25297 152.18C1.25297 151.62 1.25297 151.2 1.25297 150.92C0.972968 150.36 0.972968 149.94 1.25297 149.66L2.51297 146.72C2.23297 146.44 2.09297 145.32 2.09297 143.36C2.37297 142.8 2.65297 142.1 2.93297 141.26C3.21297 140.42 3.49297 139.44 3.77297 138.32C4.05297 138.32 4.05297 138.18 3.77297 137.9C3.49297 137.34 3.49297 136.92 3.77297 136.64C4.33297 136.08 4.75297 135.52 5.03297 134.96C5.31297 134.12 5.59297 133.56 5.87297 133.28C7.27297 131.32 9.09297 129.36 11.333 127.4C13.293 125.44 14.413 123.76 14.693 122.36H15.113C15.673 122.36 16.093 122.22 16.373 121.94C16.653 121.38 16.933 120.96 17.213 120.68C17.773 120.12 18.333 119.7 18.893 119.42C19.733 118.86 20.293 118.44 20.573 118.16C21.973 117.32 22.673 116.62 22.673 116.06H23.933C24.493 116.06 24.633 116.2 24.353 116.48C24.073 116.48 24.073 116.48 24.353 116.48C24.913 116.48 25.193 116.06 25.193 115.22C26.313 114.94 27.153 114.52 27.713 113.96C28.273 113.12 28.693 112.7 28.973 112.7H29.813C30.373 112.7 31.073 112.28 31.913 111.44C32.473 110.88 33.173 110.74 34.013 111.02C35.133 111.02 35.833 111.02 36.113 111.02C36.673 110.74 37.513 110.6 38.633 110.6C38.913 110.6 39.193 110.74 39.473 111.02C39.753 111.02 40.033 111.02 40.313 111.02C40.313 112.98 39.053 114.24 36.533 114.8C34.013 115.08 32.613 116.06 32.333 117.74C32.333 117.46 32.053 117.32 31.493 117.32C31.213 117.32 29.953 118.3 27.713 120.26C25.753 121.94 24.073 123.34 22.673 124.46C22.673 125.02 22.533 125.44 22.253 125.72C21.413 126 20.713 126.7 20.153 127.82C19.873 128.66 19.453 129.5 18.893 130.34L16.793 133.28C16.233 133.84 16.233 134.12 16.793 134.12C16.233 134.4 15.953 134.82 15.953 135.38C15.673 135.94 15.393 136.36 15.113 136.64L13.853 138.32C13.013 139.44 12.453 140.56 12.173 141.68C11.613 142.8 11.053 143.92 10.493 145.04C9.93297 145.6 10.073 146.3 10.913 147.14L9.65297 147.98V148.82C9.65297 149.94 9.51297 151.06 9.23297 152.18C8.95297 153.3 8.67297 154.56 8.39297 155.96L9.65297 158.06C9.93297 158.62 9.93297 158.9 9.65297 158.9C9.09297 158.9 8.81297 158.9 8.81297 158.9C8.81297 159.18 8.95297 159.32 9.23297 159.32C9.51297 159.32 9.65297 159.32 9.65297 159.32L9.23297 162.26C9.79297 163.66 10.493 165.34 11.333 167.3C12.173 169.26 13.013 171.08 13.853 172.76C13.853 173.04 14.413 173.32 15.533 173.6C16.373 174.16 17.073 174.72 17.633 175.28C17.913 175.28 18.053 175.56 18.053 176.12C18.333 176.68 18.753 177.1 19.313 177.38C20.153 178.22 21.273 179.2 22.673 180.32C24.353 181.72 25.333 182.42 25.613 182.42C26.173 182.42 26.173 182.28 25.613 182C25.333 182 25.333 182 25.613 182C26.173 182 26.873 182.28 27.713 182.84C28.553 183.4 29.113 183.68 29.393 183.68C29.673 183.68 29.813 183.54 29.813 183.26C30.093 183.26 30.233 183.26 30.233 183.26C30.233 184.38 30.933 184.94 32.333 184.94C33.453 185.22 34.713 185.5 36.113 185.78C37.793 186.34 38.773 186.62 39.053 186.62C39.333 186.62 39.473 186.48 39.473 186.2C39.473 186.2 39.613 186.2 39.893 186.2C40.453 186.2 40.873 186.34 41.153 186.62C41.433 186.9 41.713 187.04 41.993 187.04C43.673 187.32 45.633 187.6 47.873 187.88C50.393 188.44 51.793 188.72 52.073 188.72C52.633 188.72 53.053 188.44 53.333 187.88C53.613 187.6 53.753 187.46 53.753 187.46C54.313 187.46 54.873 187.6 55.433 187.88C55.993 188.16 56.413 188.16 56.693 187.88C58.373 187.32 60.333 186.9 62.573 186.62C64.813 186.62 66.493 186.48 67.613 186.2C69.573 186.48 70.693 186.48 70.973 186.2C71.533 185.92 71.953 185.78 72.233 185.78C72.793 185.78 73.073 185.92 73.073 186.2C73.353 186.48 73.633 186.62 73.913 186.62C74.473 186.62 74.893 186.34 75.173 185.78C75.453 185.5 75.873 185.22 76.433 184.94C78.673 184.1 81.193 183.54 83.993 183.26C87.073 183.26 89.873 182.7 92.393 181.58C93.513 181.02 94.493 180.18 95.333 179.06C96.173 178.22 96.733 177.8 97.013 177.8C97.573 177.8 97.713 177.8 97.433 177.8C97.433 178.08 97.573 178.22 97.853 178.22C99.253 178.22 99.953 177.8 99.953 176.96C99.953 177.24 100.093 177.38 100.373 177.38L105.413 176.12C106.813 175.28 108.213 174.16 109.613 172.76C109.893 172.48 110.313 172.2 110.873 171.92C111.713 171.64 112.553 171.22 113.393 170.66C113.953 170.66 114.793 170.38 115.913 169.82C117.033 169.54 117.453 169.12 117.173 168.56C117.453 168.28 117.873 168.14 118.433 168.14H118.853C119.413 168.14 119.693 168 119.693 167.72C119.973 167.44 120.253 167.16 120.533 166.88C121.093 166.6 122.073 166.18 123.473 165.62C125.153 165.34 125.993 164.64 125.993 163.52C126.553 163.24 127.393 162.68 128.513 161.84C129.633 161.28 130.753 160.72 131.873 160.16C132.433 159.6 132.713 159.18 132.713 158.9H133.553C134.953 157.78 136.073 156.94 136.913 156.38C138.033 155.82 138.733 155.12 139.013 154.28C139.293 153.72 139.713 153.44 140.273 153.44C140.833 153.44 141.253 153.3 141.533 153.02C142.093 153.02 142.373 152.74 142.373 152.18C142.373 151.62 142.513 151.34 142.793 151.34C143.353 150.78 143.913 150.08 144.473 149.24C145.033 148.4 145.453 147.98 145.733 147.98L147.413 148.4L147.833 145.46C149.513 143.22 151.193 140.98 152.873 138.74C154.553 136.5 156.233 134.4 157.913 132.44C157.913 131.88 158.333 131.6 159.173 131.6V130.34C159.173 130.06 159.453 129.64 160.013 129.08C160.853 128.52 161.273 128.1 161.273 127.82V125.3C161.553 124.46 161.973 123.76 162.533 123.2C163.093 122.36 163.513 121.52 163.793 120.68C163.793 120.12 163.793 119.42 163.793 118.58C164.073 117.74 164.353 117.18 164.633 116.9L163.793 116.06L165.473 114.38L165.053 112.28C166.173 111.16 166.593 109.62 166.313 107.66C166.033 105.7 166.313 103.88 167.153 102.2L168.413 98C168.133 97.44 167.853 97.3 167.573 97.58C167.573 97.58 167.293 97.44 166.733 97.16V95.48C166.733 94.36 166.593 93.38 166.313 92.54C166.313 91.42 166.173 90.3 165.893 89.18C165.053 88.9 164.353 88.48 163.793 87.92H163.373C163.653 87.64 163.793 87.08 163.793 86.24C163.513 84.28 162.393 82.32 160.433 80.36C158.473 78.4 157.073 76.86 156.233 75.74C155.393 75.18 154.413 74.48 153.293 73.64C152.173 72.52 151.053 71.54 149.933 70.7C148.533 70.7 147.413 70.42 146.573 69.86C145.733 69.3 145.033 68.74 144.473 68.18C144.193 67.62 143.773 67.2 143.213 66.92C142.933 66.92 142.513 66.92 141.953 66.92C141.393 66.64 140.693 66.22 139.853 65.66L139.013 66.5C138.733 66.22 138.453 65.94 138.173 65.66C138.173 65.38 137.893 65.1 137.333 64.82H130.193C129.073 64.26 128.233 63.98 127.673 63.98C127.393 63.98 126.833 63.98 125.993 63.98C125.153 63.98 124.453 64.12 123.893 64.4C123.613 64.12 123.053 64.26 122.213 64.82C121.653 65.1 121.093 65.24 120.533 65.24C120.253 65.24 120.113 65.1 120.113 64.82C120.113 64.54 119.833 64.54 119.273 64.82C117.313 65.66 115.073 66.78 112.553 68.18C110.033 69.58 107.933 71.26 106.253 73.22L101.213 79.1C100.933 79.38 100.373 79.94 99.533 80.78C98.693 81.34 97.853 81.9 97.013 82.46C96.733 82.46 96.593 83.02 96.593 84.14C95.473 84.42 94.633 85.12 94.073 86.24C93.513 87.08 92.953 87.92 92.393 88.76C92.113 89.04 91.413 89.74 90.293 90.86C89.173 91.7 88.333 91.7 87.773 90.86C87.493 90.3 87.353 89.46 87.353 88.34C87.353 86.66 87.633 85.68 88.193 85.4C89.033 84.84 90.013 84 91.133 82.88C91.693 82.32 92.393 81.76 93.233 81.2C94.353 80.64 95.053 79.94 95.333 79.1V77.84L98.273 75.74C98.833 75.18 99.253 74.62 99.533 74.06C100.093 73.22 100.513 72.66 100.793 72.38C102.193 71.54 104.293 69.72 107.093 66.92C110.173 63.84 112.693 61.46 114.653 59.78C115.493 59.22 116.333 58.38 117.173 57.26C118.013 56.14 118.993 55.16 120.113 54.32C120.673 54.04 121.373 53.76 122.213 53.48C123.333 53.2 124.173 52.92 124.733 52.64C125.293 52.08 125.993 51.24 126.833 50.12C127.953 48.72 128.933 47.88 129.773 47.6C130.053 47.6 130.473 47.04 131.033 45.92C131.033 46.76 131.173 47.32 131.453 47.6C132.293 46.76 133.553 46.06 135.233 45.5L136.493 43.82C137.053 43.54 137.473 43.26 137.753 42.98C138.313 42.7 138.873 42.42 139.433 42.14C139.433 41.58 139.433 41.16 139.433 40.88C139.713 40.6 139.853 40.32 139.853 40.04C140.693 39.76 141.253 39.48 141.533 39.2C142.093 38.64 142.653 38.36 143.213 38.36C143.493 38.08 143.773 37.52 144.053 36.68C144.333 35.84 145.033 35.42 146.153 35.42C146.713 35.42 146.993 35.56 146.993 35.84C146.993 36.12 147.133 36.26 147.413 36.26C147.413 35.98 147.413 35.7 147.413 35.42C147.693 35.14 147.833 35 147.833 35L155.813 29.54C155.813 28.7 156.093 28 156.653 27.44C157.213 27.16 157.773 26.74 158.333 26.18C158.893 25.62 159.453 25.2 160.013 24.92V23.66C159.733 22.82 159.033 22.4 157.913 22.4C156.513 22.4 154.833 22.26 152.873 21.98C151.193 21.7 149.513 21.56 147.833 21.56C147.833 21.28 147.693 21.14 147.413 21.14C146.853 21.14 146.573 21.28 146.573 21.56C146.573 21.28 146.293 21.14 145.733 21.14C145.453 21.14 145.313 21.28 145.313 21.56C145.033 21.28 144.193 21.14 142.793 21.14C142.513 21.14 142.093 21.28 141.533 21.56C141.253 21.56 140.833 21.56 140.273 21.56C139.713 21.56 139.153 21.28 138.593 20.72C137.473 20.72 136.073 20.58 134.393 20.3C132.993 20.02 132.013 19.88 131.453 19.88C130.893 19.88 129.633 20.02 127.673 20.3C125.993 20.58 124.873 21 124.313 21.56C124.313 21.56 123.893 21.14 123.053 20.3C121.933 20.86 121.093 21.14 120.533 21.14C120.253 21.14 120.113 21 120.113 20.72C120.113 20.44 119.833 20.3 119.273 20.3C118.993 20.3 118.713 20.44 118.433 20.72C118.433 21 118.153 21.14 117.593 21.14C117.313 21.14 116.893 21 116.333 20.72C116.053 20.16 115.633 19.88 115.073 19.88C114.793 19.88 114.653 20.02 114.653 20.3C114.933 20.58 114.793 20.72 114.233 20.72C113.953 20.72 113.813 20.72 113.813 20.72C113.813 20.44 113.533 20.3 112.973 20.3C112.693 20.3 111.993 20.58 110.873 21.14C110.033 21.7 109.333 21.98 108.773 21.98C107.933 21.98 107.233 21.7 106.673 21.14C106.393 21.14 105.973 21.28 105.413 21.56C105.133 21.84 104.713 21.98 104.153 21.98C103.873 21.98 103.733 21.84 103.733 21.56C104.013 21.28 104.013 21.14 103.733 21.14C103.453 20.86 103.033 21.28 102.473 22.4C101.073 22.96 99.393 23.66 97.433 24.5C95.473 25.06 94.213 25.34 93.653 25.34C93.093 25.34 92.813 25.34 92.813 25.34C92.813 25.06 92.673 24.92 92.393 24.92C92.113 25.2 91.973 25.76 91.973 26.6C91.133 27.44 90.293 28.42 89.453 29.54C88.893 30.38 88.333 31.22 87.773 32.06L82.313 35.84C81.473 36.12 80.773 36.82 80.213 37.94C79.653 39.06 79.093 40.18 78.533 41.3L76.853 42.14C76.573 42.14 76.433 42 76.433 41.72C76.713 41.16 76.993 40.88 77.273 40.88C78.393 39.48 79.093 37.94 79.373 36.26C79.373 35.7 79.233 35.28 78.953 35C78.953 34.72 78.953 34.44 78.953 34.16C79.233 33.04 79.513 32.06 79.793 31.22C80.353 30.1 80.773 28.98 81.053 27.86C81.613 27.3 82.173 26.6 82.733 25.76C83.573 24.92 84.273 23.94 84.833 22.82C84.833 22.54 84.693 22.4 84.413 22.4C84.413 22.4 84.413 22.26 84.413 21.98C85.253 20.86 86.653 19.6 88.613 18.2C90.573 16.8 91.693 15.4 91.973 14C92.533 13.44 93.233 13.02 94.073 12.74C95.193 12.46 96.313 12.04 97.433 11.48C97.433 11.48 97.573 11.2 97.853 10.64C98.413 9.79999 99.253 9.37999 100.373 9.37999H101.633C102.193 9.37999 102.753 9.23999 103.313 8.95999C104.153 8.39999 104.993 7.97999 105.833 7.7C107.233 7.7 108.913 7.7 110.873 7.7C112.833 7.41999 114.093 7.27999 114.653 7.27999C115.213 7.27999 116.473 7.69999 118.433 8.54C120.673 9.09999 122.073 9.37999 122.633 9.37999H125.993C126.273 9.37999 126.413 9.65999 126.413 10.22C126.693 10.5 126.973 10.64 127.253 10.64C127.813 10.64 128.093 10.64 128.093 10.64C128.093 10.36 128.233 10.22 128.513 10.22C129.073 10.22 129.213 10.36 128.933 10.64C128.933 10.92 129.213 11.06 129.773 11.06L134.393 10.64C134.953 10.64 135.513 11.06 136.073 11.9C136.913 12.74 137.473 13.16 137.753 13.16C138.313 13.16 139.013 13.16 139.853 13.16C140.693 13.16 141.253 13.3 141.533 13.58C142.933 13.86 143.773 14.28 144.053 14.84C144.613 15.4 145.033 15.68 145.313 15.68L148.253 16.1C149.093 16.94 150.073 17.36 151.193 17.36C151.473 17.36 151.613 17.36 151.613 17.36C151.613 17.08 151.613 16.94 151.613 16.94H152.453C153.013 16.94 153.293 16.8 153.293 16.52C153.573 16.24 153.993 16.1 154.553 16.1C155.393 16.1 156.093 16.66 156.653 17.78C156.933 17.78 157.073 17.64 157.073 17.36C157.353 17.08 157.633 16.94 157.913 16.94C158.473 16.94 158.613 17.08 158.333 17.36C158.053 17.64 158.053 17.78 158.333 17.78C158.893 17.78 159.173 17.78 159.173 17.78C159.453 17.5 159.733 17.36 160.013 17.36C160.573 17.64 161.273 17.92 162.113 18.2C162.953 18.2 163.513 18.2 163.793 18.2C164.353 18.2 165.053 18.34 165.893 18.62C167.013 18.9 167.713 19.04 167.993 19.04C168.553 19.04 169.533 18.34 170.933 16.94C172.613 15.26 174.013 13.86 175.133 12.74C175.413 12.74 176.253 12.04 177.653 10.64C177.933 10.36 178.493 9.93999 179.333 9.37999C180.173 8.81999 180.733 8.26 181.013 7.7C182.693 7.13999 183.673 6.44 183.953 5.6H186.053C186.053 4.48 186.473 3.91999 187.313 3.91999C187.873 3.91999 188.013 4.05999 187.733 4.33999C187.453 4.33999 187.593 4.33999 188.153 4.33999C188.713 4.33999 189.133 4.05999 189.413 3.49999C189.973 2.93999 190.393 2.66 190.673 2.66C191.233 2.66 191.373 2.8 191.093 3.07999C190.813 3.07999 190.953 3.07999 191.513 3.07999C192.073 3.07999 192.493 2.93999 192.773 2.66C193.333 2.37999 193.753 2.23999 194.033 2.23999C194.593 2.23999 194.873 2.09999 194.873 1.82C194.873 1.53999 195.153 1.39999 195.713 1.39999C196.273 1.39999 196.553 1.25999 196.553 0.979995C196.553 0.69999 196.693 0.41999 196.973 0.139993C197.253 0.699994 197.673 1.11999 198.233 1.39999C198.793 1.67999 199.213 2.1 199.493 2.66C199.493 2.66 199.493 2.8 199.493 3.07999C199.493 3.07999 199.633 3.07999 199.913 3.07999C200.473 3.07999 200.753 3.07999 200.753 3.07999C201.033 2.8 201.313 2.66 201.593 2.66C201.593 3.5 202.013 4.05999 202.853 4.33999C203.133 4.61999 203.693 4.76 204.533 4.76C205.093 4.76 205.373 4.61999 205.373 4.33999C205.373 4.05999 205.653 3.91999 206.213 3.91999C207.893 3.91999 209.573 3.35999 211.253 2.23999C211.253 1.95999 211.113 1.67999 210.833 1.39999C210.833 1.11999 210.833 0.979995 210.833 0.979995C211.113 0.979995 211.813 0.699994 212.933 0.139993L215.453 2.23999V5.17999C214.613 5.46 213.773 5.87999 212.933 6.43999C212.093 6.99999 211.113 7.55999 209.993 8.11999V9.79999C209.713 9.79999 209.573 9.93999 209.573 10.22C209.573 10.22 209.293 10.22 208.733 10.22C208.453 10.22 208.313 10.08 208.313 9.79999C208.593 9.51999 208.453 9.37999 207.893 9.37999C207.613 9.37999 206.913 9.51999 205.793 9.79999C204.673 10.08 203.833 10.36 203.273 10.64C202.993 10.92 202.713 11.34 202.433 11.9C202.433 12.18 202.153 12.46 201.593 12.74L196.973 14C195.573 14.56 194.873 16.1 194.873 18.62C195.433 18.9 195.713 19.6 195.713 20.72C195.713 21.84 195.573 22.68 195.293 23.24C195.293 23.52 195.153 23.94 194.873 24.5C194.593 25.06 194.453 25.62 194.453 26.18C194.173 26.18 194.033 26.04 194.033 25.76C194.033 25.48 193.753 25.34 193.193 25.34C192.913 25.34 192.493 25.48 191.933 25.76C191.653 26.04 191.233 26.18 190.673 26.18C190.393 26.18 189.973 25.9 189.413 25.34C189.133 24.78 188.713 24.5 188.153 24.5C187.873 24.5 187.593 24.78 187.313 25.34C187.033 25.62 186.613 25.76 186.053 25.76C185.773 25.76 185.493 25.76 185.213 25.76C185.213 25.48 185.073 25.34 184.793 25.34L180.593 24.92C180.313 24.92 179.613 25.2 178.493 25.76C177.373 26.32 176.393 26.88 175.553 27.44C175.273 27.72 174.713 28.28 173.873 29.12C173.033 29.96 172.193 30.66 171.353 31.22C171.073 31.5 170.933 32.06 170.933 32.9C170.653 32.9 170.373 33.04 170.093 33.32C170.093 33.32 169.813 33.32 169.253 33.32C168.973 33.32 168.833 33.04 168.833 32.48C168.273 32.76 167.293 33.46 165.893 34.58C164.493 35.42 163.513 36.4 162.953 37.52C162.673 37.8 162.253 38.22 161.693 38.78C161.133 39.06 160.573 39.2 160.013 39.2C159.733 39.2 159.593 39.2 159.593 39.2C159.873 38.92 159.733 38.78 159.173 38.78C157.773 38.78 156.793 39.62 156.233 41.3H154.973C154.693 41.3 154.273 41.02 153.713 40.46C153.433 39.9 153.013 39.62 152.453 39.62C152.173 39.62 151.613 39.9 150.773 40.46C149.933 40.74 149.233 41.02 148.673 41.3C148.673 42.14 148.533 42.56 148.253 42.56C147.693 42.84 146.993 43.26 146.153 43.82C145.593 44.38 144.893 44.94 144.053 45.5C143.773 45.78 143.353 45.92 142.793 45.92C142.233 45.64 141.813 45.64 141.533 45.92C141.253 45.92 140.833 46.06 140.273 46.34C139.993 46.62 139.573 46.9 139.013 47.18C137.893 47.46 136.213 48.16 133.973 49.28C131.733 50.4 130.333 51.52 129.773 52.64C129.493 52.92 128.933 53.34 128.093 53.9C127.253 54.18 126.553 54.6 125.993 55.16C125.433 56.28 125.153 57.26 125.153 58.1C125.713 58.38 125.993 58.8 125.993 59.36C126.273 59.64 126.693 59.92 127.253 60.2C127.533 60.2 127.813 60.34 128.093 60.62C128.373 60.9 128.653 61.04 128.933 61.04C129.493 61.04 129.913 60.9 130.193 60.62C130.473 60.06 130.753 59.64 131.033 59.36C131.033 59.36 131.313 59.08 131.873 58.52C133.273 58.52 134.113 58.38 134.393 58.1C134.393 59.22 134.813 59.78 135.653 59.78C136.493 59.78 137.053 59.64 137.333 59.36C137.613 58.8 138.593 58.52 140.273 58.52C141.113 58.52 141.533 58.52 141.533 58.52C141.813 58.52 142.373 58.8 143.213 59.36H144.053C147.133 59.36 149.653 59.78 151.613 60.62C153.573 61.18 155.533 61.88 157.493 62.72C158.613 63 159.733 63.7 160.853 64.82C161.973 65.94 162.813 66.5 163.373 66.5C163.933 66.5 164.073 66.5 163.793 66.5C163.793 66.22 164.073 66.08 164.633 66.08C164.913 66.08 165.753 66.5 167.153 67.34C168.553 68.18 169.813 68.88 170.933 69.44C171.493 70.28 171.913 71.12 172.193 71.96C172.753 72.8 173.173 73.36 173.453 73.64C175.973 75.04 178.073 76.44 179.753 77.84C181.433 79.24 182.413 80.78 182.693 82.46C182.133 83.02 182.133 83.44 182.693 83.72C183.533 83.72 184.093 84 184.373 84.56C184.373 85.12 184.653 86.24 185.213 87.92C185.213 89.32 185.353 90.72 185.633 92.12C186.193 93.52 186.613 94.92 186.893 96.32C186.893 96.6 187.173 97.58 187.733 99.26C188.573 100.66 188.993 101.64 188.993 102.2C188.993 102.48 188.713 102.62 188.153 102.62C188.153 103.74 187.873 105.14 187.313 106.82C187.033 108.22 187.033 109.62 187.313 111.02C187.593 111.58 187.873 112.42 188.153 113.54C188.433 114.66 188.293 115.5 187.733 116.06C187.173 116.34 186.613 117.04 186.053 118.16C186.053 118.16 185.913 118.16 185.633 118.16C185.633 117.88 185.493 117.74 185.213 117.74C184.933 118.58 184.793 119.7 184.793 121.1C184.793 122.5 184.513 123.48 183.953 124.04C181.993 125.72 181.013 127.12 181.013 128.24C181.013 129.08 181.293 130.2 181.853 131.6L178.493 133.28C178.213 133 177.933 132.72 177.653 132.44C177.373 131.88 176.953 131.6 176.393 131.6C176.393 131.88 176.393 132.16 176.393 132.44C176.673 132.72 176.953 133.14 177.233 133.7C176.673 134.26 175.973 134.82 175.133 135.38C174.573 135.94 174.153 136.64 173.873 137.48H174.713C174.713 138.04 174.853 138.6 175.133 139.16C175.413 139.44 175.693 139.86 175.973 140.42C175.413 140.42 174.993 140.56 174.713 140.84C174.433 141.12 174.153 141.4 173.873 141.68H171.773C171.493 142.52 171.213 143.36 170.933 144.2C170.653 144.76 170.093 145.32 169.253 145.88L168.413 145.46C167.293 145.74 166.173 146.44 165.053 147.56L165.473 148.82C164.913 149.1 164.073 149.52 162.953 150.08C162.113 150.64 161.553 151.34 161.273 152.18C160.993 152.74 160.293 153.3 159.173 153.86C158.333 154.14 157.633 154.98 157.073 156.38C157.073 157.5 156.933 158.2 156.653 158.48C156.653 158.76 156.233 159.04 155.393 159.32C154.553 159.32 153.853 159.32 153.293 159.32C153.013 159.6 152.873 160.02 152.873 160.58C152.873 160.86 152.733 161.28 152.453 161.84C152.173 162.12 151.613 162.54 150.773 163.1C150.213 163.66 149.653 164.22 149.093 164.78C148.533 165.06 147.833 165.34 146.993 165.62C146.153 166.18 145.453 166.46 144.893 166.46C144.893 167.3 144.753 167.72 144.473 167.72C144.193 167.72 143.213 168 141.533 168.56L140.273 171.08C139.993 171.36 139.573 171.5 139.013 171.5C138.453 171.78 138.033 172.06 137.753 172.34C137.473 172.9 137.053 173.46 136.493 174.02C135.933 174.58 135.513 175.28 135.233 176.12C134.113 176.12 133.133 176.4 132.293 176.96C131.453 177.52 131.173 178.08 131.453 178.64C131.173 178.64 130.613 178.64 129.773 178.64C128.933 178.64 128.233 178.92 127.673 179.48C127.113 179.76 126.693 180.04 126.413 180.32C126.133 180.88 125.853 181.44 125.573 182C125.293 182 125.013 182 124.733 182C124.453 182.28 124.033 182.42 123.473 182.42C123.193 182.42 123.053 182.28 123.053 182C123.333 182 123.193 182 122.633 182C122.353 182 121.933 182.28 121.373 182.84C120.813 183.4 120.393 183.82 120.113 184.1C119.833 184.1 119.553 184.1 119.273 184.1C119.273 184.38 119.133 184.52 118.853 184.52C117.733 185.08 117.033 185.78 116.753 186.62C116.473 186.9 115.773 187.18 114.653 187.46C113.813 187.74 113.533 188.16 113.813 188.72C113.533 188.72 113.393 188.58 113.393 188.3C113.393 188.02 113.113 187.88 112.553 187.88C112.273 187.88 111.993 188.02 111.713 188.3C111.713 188.58 111.433 188.72 110.873 188.72C110.593 188.72 110.313 188.58 110.033 188.3C110.033 188.3 109.753 188.3 109.193 188.3C108.633 188.3 108.073 188.72 107.513 189.56C106.953 190.4 106.673 190.96 106.673 191.24C106.673 191.24 106.673 191.1 106.673 190.82C106.673 190.82 106.393 190.82 105.833 190.82C105.553 190.82 104.573 191.1 102.893 191.66C101.493 192.22 100.513 192.5 99.953 192.5C99.673 192.5 99.533 192.36 99.533 192.08C99.813 192.08 99.673 192.08 99.113 192.08C98.833 192.08 97.433 192.64 94.913 193.76C92.393 195.16 90.853 195.86 90.293 195.86C90.013 195.86 89.733 195.72 89.453 195.44C89.173 195.44 88.753 195.44 88.193 195.44C86.513 195.44 85.673 196 85.673 197.12C85.393 197.12 85.113 196.98 84.833 196.7C84.833 196.7 84.553 196.7 83.993 196.7C83.713 196.7 83.573 196.7 83.573 196.7C83.573 196.98 83.433 197.12 83.153 197.12C82.593 197.4 81.613 197.54 80.213 197.54C79.093 197.54 78.253 197.96 77.693 198.8C77.693 198.24 77.273 197.96 76.433 197.96C75.873 197.96 74.893 198.1 73.493 198.38C72.373 198.94 71.533 199.22 70.973 199.22H69.713L65.513 199.64C64.953 199.64 64.533 199.5 64.253 199.22C64.253 199.22 63.973 199.22 63.413 199.22C63.133 199.22 62.713 199.36 62.153 199.64C61.873 200.2 61.453 200.48 60.893 200.48Z" fill="#F1E3D6"/>
<path d="M92.0879 34.334C103.123 34.7246 111.79 34.9199 118.089 34.9199C124.046 34.9199 132.542 34.7246 143.577 34.334C143.772 35.1152 143.87 35.6523 143.87 35.9453C143.87 36.4824 143.772 37.0928 143.577 37.7764C141.331 37.9717 139.5 38.1914 138.084 38.4355C136.668 38.6309 134.935 38.9727 132.884 39.4609C130.833 39.9492 129.271 40.6572 128.196 41.585C127.122 42.4639 126.585 43.5381 126.585 44.8076C126.536 47.9814 126.463 55.4277 126.365 67.1465C126.316 78.8652 126.243 89.8271 126.146 100.032C126.048 108.187 125.901 114.876 125.706 120.101C125.56 125.276 125.218 131.038 124.681 137.386C124.192 143.685 123.484 148.738 122.557 152.547C121.678 156.404 120.457 160.335 118.895 164.339C117.332 168.392 115.428 171.492 113.182 173.641C110.984 175.789 108.274 177.547 105.052 178.914C101.829 180.281 98.1182 180.965 93.9189 180.965C86.8389 180.965 81.3457 179.231 77.4395 175.765C73.5332 172.298 71.5801 168.196 71.5801 163.46C71.5801 159.407 72.6543 156.258 74.8027 154.012C76.9512 151.814 79.7832 150.716 83.2988 150.716C86.1797 150.716 88.6455 151.497 90.6963 153.06C92.7471 154.622 93.7725 156.941 93.7725 160.018C93.7725 161.678 93.3574 163.143 92.5273 164.412C91.6973 165.73 90.7695 166.683 89.7441 167.269C88.7676 167.903 87.8643 168.465 87.0342 168.953C86.2041 169.49 85.7891 169.856 85.7891 170.052C85.7891 171.907 86.4971 173.421 87.9131 174.593C89.3779 175.765 91.3799 176.351 93.9189 176.351C96.6533 176.351 98.9482 175.838 100.804 174.812C102.708 173.787 104.246 172.347 105.418 170.491C106.639 168.636 107.566 166.048 108.201 162.728C108.836 159.407 109.251 155.867 109.446 152.107C109.69 148.348 109.812 143.636 109.812 137.972C109.812 89.7295 109.568 58.6748 109.08 44.8076C109.031 43.5381 108.47 42.4639 107.396 41.585C106.321 40.6572 104.759 39.9492 102.708 39.4609C100.657 38.9727 98.9238 38.6309 97.5078 38.4355C96.1406 38.1914 94.334 37.9717 92.0879 37.7764C91.8926 36.8975 91.7949 36.2871 91.7949 35.9453C91.7949 35.457 91.8926 34.9199 92.0879 34.334Z" fill="#4B4036"/>
</svg>
