<svg width="554" height="319" viewBox="0 0 554 319" fill="none" xmlns="http://www.w3.org/2000/svg">
<g clip-path="url(#clip0_12_84)">
<rect x="1.04901" y="-5" width="551.951" height="317" rx="29" fill="#F1E3D6" stroke="white" stroke-width="2"/>
<path d="M34.0909 98V74.7273H36.2159V96.0909H47.3068V98H34.0909ZM58.4545 98.3636C56.947 98.3636 55.6136 97.9811 54.4545 97.2159C53.303 96.4508 52.4015 95.3939 51.75 94.0455C51.0985 92.6894 50.7727 91.125 50.7727 89.3523C50.7727 87.5644 51.0985 85.9924 51.75 84.6364C52.4015 83.2727 53.303 82.2121 54.4545 81.4545C55.6136 80.6894 56.947 80.3068 58.4545 80.3068C59.9621 80.3068 61.2917 80.6894 62.4432 81.4545C63.5947 82.2197 64.4962 83.2803 65.1477 84.6364C65.8068 85.9924 66.1364 87.5644 66.1364 89.3523C66.1364 91.125 65.8106 92.6894 65.1591 94.0455C64.5076 95.3939 63.6023 96.4508 62.4432 97.2159C61.2917 97.9811 59.9621 98.3636 58.4545 98.3636ZM58.4545 96.5114C59.6667 96.5114 60.6932 96.1856 61.5341 95.5341C62.375 94.8826 63.0114 94.0152 63.4432 92.9318C63.8826 91.8485 64.1023 90.6553 64.1023 89.3523C64.1023 88.0492 63.8826 86.8523 63.4432 85.7614C63.0114 84.6705 62.375 83.7955 61.5341 83.1364C60.6932 82.4773 59.6667 82.1477 58.4545 82.1477C57.25 82.1477 56.2235 82.4773 55.375 83.1364C54.5341 83.7955 53.8939 84.6705 53.4545 85.7614C53.0227 86.8523 52.8068 88.0492 52.8068 89.3523C52.8068 90.6553 53.0227 91.8485 53.4545 92.9318C53.8939 94.0152 54.5341 94.8826 55.375 95.5341C56.2159 96.1856 57.2424 96.5114 58.4545 96.5114ZM70.5767 98V80.5455H72.5426V83.2273H72.6903C73.0388 82.3485 73.6449 81.6402 74.5085 81.1023C75.3797 80.5568 76.3646 80.2841 77.4631 80.2841C77.6297 80.2841 77.8153 80.2879 78.0199 80.2955C78.2244 80.303 78.3949 80.3106 78.5312 80.3182V82.375C78.4403 82.3598 78.2813 82.3371 78.054 82.3068C77.8267 82.2765 77.5805 82.2614 77.3153 82.2614C76.4063 82.2614 75.5956 82.4545 74.8835 82.8409C74.179 83.2197 73.6222 83.7462 73.2131 84.4205C72.804 85.0947 72.5994 85.8636 72.5994 86.7273V98H70.5767ZM88.5085 98.3636C86.8797 98.3636 85.4706 97.9848 84.2812 97.2273C83.0919 96.4621 82.1714 95.4053 81.5199 94.0568C80.8759 92.7008 80.554 91.1402 80.554 89.375C80.554 87.6174 80.8759 86.0568 81.5199 84.6932C82.1714 83.322 83.0691 82.25 84.2131 81.4773C85.3646 80.697 86.6941 80.3068 88.2017 80.3068C89.1487 80.3068 90.0616 80.4811 90.9403 80.8295C91.8191 81.1705 92.607 81.697 93.304 82.4091C94.0085 83.1136 94.5653 84.0038 94.9744 85.0795C95.3835 86.1477 95.5881 87.4129 95.5881 88.875V89.875H81.9517V88.0909H93.5199C93.5199 86.9697 93.2926 85.9621 92.8381 85.0682C92.3911 84.1667 91.7661 83.4545 90.9631 82.9318C90.1676 82.4091 89.2472 82.1477 88.2017 82.1477C87.0956 82.1477 86.1222 82.4432 85.2812 83.0341C84.4403 83.625 83.7813 84.4053 83.304 85.375C82.8343 86.3447 82.5956 87.4053 82.5881 88.5568V89.625C82.5881 91.0114 82.8267 92.2235 83.304 93.2614C83.7888 94.2917 84.4744 95.0909 85.3608 95.6591C86.2472 96.2273 87.2964 96.5114 88.5085 96.5114C89.3343 96.5114 90.0578 96.3826 90.679 96.125C91.3078 95.8674 91.8343 95.5227 92.2585 95.0909C92.6903 94.6515 93.0161 94.1705 93.2358 93.6477L95.1562 94.2727C94.8911 95.0076 94.4555 95.6856 93.8494 96.3068C93.2509 96.928 92.5009 97.428 91.5994 97.8068C90.7055 98.178 89.6752 98.3636 88.5085 98.3636ZM100.045 98V80.5455H102.011V83.2273H102.193C102.542 82.3258 103.121 81.6174 103.932 81.1023C104.75 80.5795 105.731 80.3182 106.875 80.3182C108.08 80.3182 109.068 80.6023 109.841 81.1705C110.621 81.7311 111.205 82.5038 111.591 83.4886H111.739C112.133 82.5189 112.773 81.75 113.659 81.1818C114.553 80.6061 115.636 80.3182 116.909 80.3182C118.53 80.3182 119.811 80.8295 120.75 81.8523C121.689 82.8674 122.159 84.3523 122.159 86.3068V98H120.136V86.3068C120.136 84.928 119.784 83.8939 119.08 83.2045C118.375 82.5152 117.447 82.1705 116.295 82.1705C114.962 82.1705 113.936 82.5795 113.216 83.3977C112.496 84.2159 112.136 85.2538 112.136 86.5114V98H110.068V86.125C110.068 84.9432 109.739 83.9886 109.08 83.2614C108.42 82.5341 107.492 82.1705 106.295 82.1705C105.492 82.1705 104.769 82.3674 104.125 82.7614C103.489 83.1553 102.985 83.7045 102.614 84.4091C102.25 85.1061 102.068 85.9091 102.068 86.8182V98H100.045ZM136.537 98V80.5455H138.571V98H136.537ZM137.571 77.5455C137.154 77.5455 136.798 77.4053 136.503 77.125C136.207 76.8371 136.06 76.4924 136.06 76.0909C136.06 75.6894 136.207 75.3485 136.503 75.0682C136.798 74.7803 137.154 74.6364 137.571 74.6364C137.988 74.6364 138.344 74.7803 138.639 75.0682C138.935 75.3485 139.082 75.6894 139.082 76.0909C139.082 76.4924 138.935 76.8371 138.639 77.125C138.344 77.4053 137.988 77.5455 137.571 77.5455ZM143.92 104.545V80.5455H145.886V83.875H146.125C146.367 83.3523 146.701 82.8182 147.125 82.2727C147.549 81.7197 148.11 81.2538 148.807 80.875C149.511 80.4962 150.398 80.3068 151.466 80.3068C152.905 80.3068 154.163 80.6856 155.239 81.4432C156.322 82.1932 157.163 83.2462 157.761 84.6023C158.367 85.9508 158.67 87.5227 158.67 89.3182C158.67 91.1212 158.367 92.7008 157.761 94.0568C157.163 95.4129 156.322 96.4697 155.239 97.2273C154.163 97.9848 152.913 98.3636 151.489 98.3636C150.436 98.3636 149.553 98.1742 148.841 97.7955C148.136 97.4167 147.564 96.9508 147.125 96.3977C146.693 95.8371 146.36 95.2917 146.125 94.7614H145.943V104.545H143.92ZM145.92 89.2841C145.92 90.6932 146.129 91.9432 146.545 93.0341C146.97 94.1174 147.576 94.9697 148.364 95.5909C149.159 96.2045 150.121 96.5114 151.25 96.5114C152.409 96.5114 153.386 96.1932 154.182 95.5568C154.985 94.9129 155.595 94.0455 156.011 92.9545C156.436 91.8636 156.648 90.6402 156.648 89.2841C156.648 87.9432 156.439 86.7348 156.023 85.6591C155.614 84.5833 155.008 83.7311 154.205 83.1023C153.402 82.4659 152.417 82.1477 151.25 82.1477C150.114 82.1477 149.148 82.4545 148.352 83.0682C147.557 83.6742 146.951 84.5152 146.534 85.5909C146.125 86.6591 145.92 87.8902 145.92 89.2841ZM174.835 84.375L172.983 84.8977C172.801 84.375 172.544 83.9015 172.21 83.4773C171.877 83.053 171.441 82.7159 170.903 82.4659C170.373 82.2159 169.714 82.0909 168.926 82.0909C167.744 82.0909 166.775 82.3712 166.017 82.9318C165.259 83.4924 164.881 84.2159 164.881 85.1023C164.881 85.8523 165.138 86.4621 165.653 86.9318C166.176 87.3939 166.979 87.7614 168.062 88.0341L170.699 88.6818C172.161 89.0379 173.256 89.6023 173.983 90.375C174.718 91.1477 175.085 92.1174 175.085 93.2841C175.085 94.2689 174.813 95.1439 174.267 95.9091C173.722 96.6742 172.96 97.2765 171.983 97.7159C171.013 98.1477 169.888 98.3636 168.608 98.3636C166.903 98.3636 165.498 97.9811 164.392 97.2159C163.286 96.4432 162.578 95.3295 162.267 93.875L164.21 93.3977C164.46 94.4356 164.949 95.2197 165.676 95.75C166.411 96.2803 167.377 96.5455 168.574 96.5455C169.915 96.5455 170.987 96.2462 171.79 95.6477C172.593 95.0417 172.994 94.2841 172.994 93.375C172.994 92.6705 172.759 92.0795 172.29 91.6023C171.82 91.1174 171.108 90.7614 170.153 90.5341L167.301 89.8523C165.786 89.4886 164.665 88.9129 163.938 88.125C163.21 87.3371 162.847 86.3598 162.847 85.1932C162.847 84.2311 163.108 83.3864 163.631 82.6591C164.153 81.9242 164.873 81.3485 165.79 80.9318C166.706 80.5152 167.752 80.3068 168.926 80.3068C170.525 80.3068 171.801 80.6705 172.756 81.3977C173.718 82.1174 174.411 83.1098 174.835 84.375ZM190.605 91.3295V80.5455H192.628V98H190.605V95.1023H190.446C190.037 95.9962 189.389 96.7424 188.503 97.3409C187.616 97.9318 186.533 98.2273 185.253 98.2273C184.139 98.2273 183.151 97.9848 182.287 97.5C181.423 97.0076 180.745 96.2879 180.253 95.3409C179.76 94.3939 179.514 93.2311 179.514 91.8523V80.5455H181.537V91.7273C181.537 93.0909 181.938 94.1894 182.741 95.0227C183.545 95.8485 184.575 96.2614 185.832 96.2614C186.62 96.2614 187.378 96.072 188.105 95.6932C188.832 95.3144 189.431 94.7614 189.901 94.0341C190.37 93.2992 190.605 92.3977 190.605 91.3295ZM197.983 98V80.5455H199.949V83.2273H200.131C200.479 82.3258 201.059 81.6174 201.869 81.1023C202.688 80.5795 203.669 80.3182 204.812 80.3182C206.017 80.3182 207.006 80.6023 207.778 81.1705C208.559 81.7311 209.142 82.5038 209.528 83.4886H209.676C210.07 82.5189 210.71 81.75 211.597 81.1818C212.491 80.6061 213.574 80.3182 214.847 80.3182C216.468 80.3182 217.748 80.8295 218.688 81.8523C219.627 82.8674 220.097 84.3523 220.097 86.3068V98H218.074V86.3068C218.074 84.928 217.722 83.8939 217.017 83.2045C216.313 82.5152 215.384 82.1705 214.233 82.1705C212.9 82.1705 211.873 82.5795 211.153 83.3977C210.434 84.2159 210.074 85.2538 210.074 86.5114V98H208.006V86.125C208.006 84.9432 207.676 83.9886 207.017 83.2614C206.358 82.5341 205.43 82.1705 204.233 82.1705C203.43 82.1705 202.706 82.3674 202.062 82.7614C201.426 83.1553 200.922 83.7045 200.551 84.4091C200.188 85.1061 200.006 85.9091 200.006 86.8182V98H197.983ZM240.736 98.3636C239.304 98.3636 238.05 97.9848 236.974 97.2273C235.899 96.4697 235.058 95.4129 234.452 94.0568C233.853 92.7008 233.554 91.1212 233.554 89.3182C233.554 87.5227 233.853 85.9508 234.452 84.6023C235.058 83.2462 235.902 82.1932 236.986 81.4432C238.069 80.6856 239.33 80.3068 240.77 80.3068C241.83 80.3068 242.713 80.4962 243.418 80.875C244.122 81.2462 244.687 81.7083 245.111 82.2614C245.535 82.8144 245.865 83.3523 246.099 83.875H246.281V74.7273H248.315V98H246.338V94.7614H246.099C245.865 95.2917 245.531 95.8371 245.099 96.3977C244.668 96.9508 244.096 97.4167 243.384 97.7955C242.679 98.1742 241.796 98.3636 240.736 98.3636ZM240.974 96.5114C242.103 96.5114 243.065 96.2045 243.861 95.5909C244.656 94.9697 245.262 94.1174 245.679 93.0341C246.103 91.9432 246.315 90.6932 246.315 89.2841C246.315 87.8902 246.107 86.6591 245.69 85.5909C245.274 84.5152 244.668 83.6742 243.872 83.0682C243.077 82.4545 242.111 82.1477 240.974 82.1477C239.808 82.1477 238.823 82.4659 238.02 83.1023C237.224 83.7311 236.618 84.5833 236.202 85.6591C235.793 86.7348 235.588 87.9432 235.588 89.2841C235.588 90.6402 235.796 91.8636 236.213 92.9545C236.63 94.0455 237.236 94.9129 238.031 95.5568C238.834 96.1932 239.815 96.5114 240.974 96.5114ZM260.861 98.3636C259.353 98.3636 258.02 97.9811 256.861 97.2159C255.709 96.4508 254.808 95.3939 254.156 94.0455C253.505 92.6894 253.179 91.125 253.179 89.3523C253.179 87.5644 253.505 85.9924 254.156 84.6364C254.808 83.2727 255.709 82.2121 256.861 81.4545C258.02 80.6894 259.353 80.3068 260.861 80.3068C262.368 80.3068 263.698 80.6894 264.849 81.4545C266.001 82.2197 266.902 83.2803 267.554 84.6364C268.213 85.9924 268.543 87.5644 268.543 89.3523C268.543 91.125 268.217 92.6894 267.565 94.0455C266.914 95.3939 266.009 96.4508 264.849 97.2159C263.698 97.9811 262.368 98.3636 260.861 98.3636ZM260.861 96.5114C262.073 96.5114 263.099 96.1856 263.94 95.5341C264.781 94.8826 265.418 94.0152 265.849 92.9318C266.289 91.8485 266.509 90.6553 266.509 89.3523C266.509 88.0492 266.289 86.8523 265.849 85.7614C265.418 84.6705 264.781 83.7955 263.94 83.1364C263.099 82.4773 262.073 82.1477 260.861 82.1477C259.656 82.1477 258.63 82.4773 257.781 83.1364C256.94 83.7955 256.3 84.6705 255.861 85.7614C255.429 86.8523 255.213 88.0492 255.213 89.3523C255.213 90.6553 255.429 91.8485 255.861 92.9318C256.3 94.0152 256.94 94.8826 257.781 95.5341C258.622 96.1856 259.649 96.5114 260.861 96.5114ZM275.006 74.7273V98H272.983V74.7273H275.006ZM287.142 98.3636C285.634 98.3636 284.301 97.9811 283.142 97.2159C281.991 96.4508 281.089 95.3939 280.438 94.0455C279.786 92.6894 279.46 91.125 279.46 89.3523C279.46 87.5644 279.786 85.9924 280.438 84.6364C281.089 83.2727 281.991 82.2121 283.142 81.4545C284.301 80.6894 285.634 80.3068 287.142 80.3068C288.65 80.3068 289.979 80.6894 291.131 81.4545C292.282 82.2197 293.184 83.2803 293.835 84.6364C294.494 85.9924 294.824 87.5644 294.824 89.3523C294.824 91.125 294.498 92.6894 293.847 94.0455C293.195 95.3939 292.29 96.4508 291.131 97.2159C289.979 97.9811 288.65 98.3636 287.142 98.3636ZM287.142 96.5114C288.354 96.5114 289.381 96.1856 290.222 95.5341C291.063 94.8826 291.699 94.0152 292.131 92.9318C292.57 91.8485 292.79 90.6553 292.79 89.3523C292.79 88.0492 292.57 86.8523 292.131 85.7614C291.699 84.6705 291.063 83.7955 290.222 83.1364C289.381 82.4773 288.354 82.1477 287.142 82.1477C285.938 82.1477 284.911 82.4773 284.062 83.1364C283.222 83.7955 282.581 84.6705 282.142 85.7614C281.71 86.8523 281.494 88.0492 281.494 89.3523C281.494 90.6553 281.71 91.8485 282.142 92.9318C282.581 94.0152 283.222 94.8826 284.062 95.5341C284.903 96.1856 285.93 96.5114 287.142 96.5114ZM299.264 98V80.5455H301.23V83.2273H301.378C301.726 82.3485 302.332 81.6402 303.196 81.1023C304.067 80.5568 305.052 80.2841 306.151 80.2841C306.317 80.2841 306.503 80.2879 306.707 80.2955C306.912 80.303 307.082 80.3106 307.219 80.3182V82.375C307.128 82.3598 306.969 82.3371 306.741 82.3068C306.514 82.2765 306.268 82.2614 306.003 82.2614C305.094 82.2614 304.283 82.4545 303.571 82.8409C302.866 83.2197 302.31 83.7462 301.901 84.4205C301.491 85.0947 301.287 85.8636 301.287 86.7273V98H299.264ZM331.398 84.375L329.545 84.8977C329.364 84.375 329.106 83.9015 328.773 83.4773C328.439 83.053 328.004 82.7159 327.466 82.4659C326.936 82.2159 326.277 82.0909 325.489 82.0909C324.307 82.0909 323.337 82.3712 322.58 82.9318C321.822 83.4924 321.443 84.2159 321.443 85.1023C321.443 85.8523 321.701 86.4621 322.216 86.9318C322.739 87.3939 323.542 87.7614 324.625 88.0341L327.261 88.6818C328.723 89.0379 329.818 89.6023 330.545 90.375C331.28 91.1477 331.648 92.1174 331.648 93.2841C331.648 94.2689 331.375 95.1439 330.83 95.9091C330.284 96.6742 329.523 97.2765 328.545 97.7159C327.576 98.1477 326.451 98.3636 325.17 98.3636C323.466 98.3636 322.061 97.9811 320.955 97.2159C319.848 96.4432 319.14 95.3295 318.83 93.875L320.773 93.3977C321.023 94.4356 321.511 95.2197 322.239 95.75C322.973 96.2803 323.939 96.5455 325.136 96.5455C326.477 96.5455 327.549 96.2462 328.352 95.6477C329.155 95.0417 329.557 94.2841 329.557 93.375C329.557 92.6705 329.322 92.0795 328.852 91.6023C328.383 91.1174 327.67 90.7614 326.716 90.5341L323.864 89.8523C322.348 89.4886 321.227 88.9129 320.5 88.125C319.773 87.3371 319.409 86.3598 319.409 85.1932C319.409 84.2311 319.67 83.3864 320.193 82.6591C320.716 81.9242 321.436 81.3485 322.352 80.9318C323.269 80.5152 324.314 80.3068 325.489 80.3068C327.087 80.3068 328.364 80.6705 329.318 81.3977C330.28 82.1174 330.973 83.1098 331.398 84.375ZM336.099 98V80.5455H338.134V98H336.099ZM337.134 77.5455C336.717 77.5455 336.361 77.4053 336.065 77.125C335.77 76.8371 335.622 76.4924 335.622 76.0909C335.622 75.6894 335.77 75.3485 336.065 75.0682C336.361 74.7803 336.717 74.6364 337.134 74.6364C337.55 74.6364 337.906 74.7803 338.202 75.0682C338.497 75.3485 338.645 75.6894 338.645 76.0909C338.645 76.4924 338.497 76.8371 338.202 77.125C337.906 77.4053 337.55 77.5455 337.134 77.5455ZM350.358 80.5455V82.3068H342.028V80.5455H350.358ZM344.631 76.3636H346.665V93.4432C346.665 94.1705 346.79 94.7424 347.04 95.1591C347.29 95.5682 347.616 95.8598 348.017 96.0341C348.419 96.2008 348.847 96.2841 349.301 96.2841C349.566 96.2841 349.794 96.2689 349.983 96.2386C350.172 96.2008 350.339 96.1629 350.483 96.125L350.915 97.9545C350.718 98.0303 350.475 98.0985 350.188 98.1591C349.9 98.2273 349.544 98.2614 349.119 98.2614C348.377 98.2614 347.661 98.0985 346.972 97.7727C346.29 97.447 345.729 96.9621 345.29 96.3182C344.85 95.6742 344.631 94.875 344.631 93.9205V76.3636ZM368.827 98.3977C367.774 98.3977 366.812 98.1932 365.94 97.7841C365.069 97.3674 364.376 96.7689 363.861 95.9886C363.346 95.2008 363.088 94.2462 363.088 93.125C363.088 92.2614 363.251 91.5341 363.577 90.9432C363.902 90.3523 364.365 89.8674 364.963 89.4886C365.562 89.1098 366.27 88.8106 367.088 88.5909C367.906 88.3712 368.808 88.2008 369.793 88.0795C370.77 87.9583 371.596 87.8523 372.27 87.7614C372.952 87.6705 373.471 87.5265 373.827 87.3295C374.183 87.1326 374.361 86.8144 374.361 86.375V85.9659C374.361 84.7765 374.005 83.8409 373.293 83.1591C372.588 82.4697 371.573 82.125 370.247 82.125C368.99 82.125 367.963 82.4015 367.168 82.9545C366.38 83.5076 365.827 84.1591 365.509 84.9091L363.588 84.2159C363.982 83.2614 364.527 82.5 365.224 81.9318C365.921 81.3561 366.702 80.9432 367.565 80.6932C368.429 80.4356 369.304 80.3068 370.19 80.3068C370.857 80.3068 371.55 80.3939 372.27 80.5682C372.997 80.7424 373.671 81.0455 374.293 81.4773C374.914 81.9015 375.418 82.4962 375.804 83.2614C376.19 84.0189 376.384 84.9811 376.384 86.1477V98H374.361V95.2386H374.236C373.993 95.7538 373.634 96.2538 373.156 96.7386C372.679 97.2235 372.08 97.6212 371.361 97.9318C370.641 98.2424 369.796 98.3977 368.827 98.3977ZM369.099 96.5455C370.175 96.5455 371.107 96.3068 371.895 95.8295C372.683 95.3523 373.289 94.7197 373.713 93.9318C374.145 93.1364 374.361 92.2614 374.361 91.3068V88.7841C374.209 88.928 373.955 89.0568 373.599 89.1705C373.251 89.2841 372.846 89.3864 372.384 89.4773C371.929 89.5606 371.474 89.6326 371.02 89.6932C370.565 89.7538 370.156 89.8068 369.793 89.8523C368.808 89.9735 367.967 90.1629 367.27 90.4205C366.573 90.678 366.039 91.0341 365.668 91.4886C365.296 91.9356 365.111 92.5114 365.111 93.2159C365.111 94.2765 365.49 95.0985 366.247 95.6818C367.005 96.2576 367.955 96.5455 369.099 96.5455ZM381.764 98V80.5455H383.73V83.2273H383.912C384.26 82.3258 384.84 81.6174 385.651 81.1023C386.469 80.5795 387.45 80.3182 388.594 80.3182C389.798 80.3182 390.787 80.6023 391.56 81.1705C392.34 81.7311 392.923 82.5038 393.31 83.4886H393.457C393.851 82.5189 394.491 81.75 395.378 81.1818C396.272 80.6061 397.355 80.3182 398.628 80.3182C400.249 80.3182 401.529 80.8295 402.469 81.8523C403.408 82.8674 403.878 84.3523 403.878 86.3068V98H401.855V86.3068C401.855 84.928 401.503 83.8939 400.798 83.2045C400.094 82.5152 399.166 82.1705 398.014 82.1705C396.681 82.1705 395.654 82.5795 394.935 83.3977C394.215 84.2159 393.855 85.2538 393.855 86.5114V98H391.787V86.125C391.787 84.9432 391.457 83.9886 390.798 83.2614C390.139 82.5341 389.211 82.1705 388.014 82.1705C387.211 82.1705 386.488 82.3674 385.844 82.7614C385.207 83.1553 384.704 83.7045 384.332 84.4091C383.969 85.1061 383.787 85.9091 383.787 86.8182V98H381.764ZM416.29 98.3636C414.661 98.3636 413.252 97.9848 412.062 97.2273C410.873 96.4621 409.953 95.4053 409.301 94.0568C408.657 92.7008 408.335 91.1402 408.335 89.375C408.335 87.6174 408.657 86.0568 409.301 84.6932C409.953 83.322 410.85 82.25 411.994 81.4773C413.146 80.697 414.475 80.3068 415.983 80.3068C416.93 80.3068 417.843 80.4811 418.722 80.8295C419.6 81.1705 420.388 81.697 421.085 82.4091C421.79 83.1136 422.347 84.0038 422.756 85.0795C423.165 86.1477 423.369 87.4129 423.369 88.875V89.875H409.733V88.0909H421.301C421.301 86.9697 421.074 85.9621 420.619 85.0682C420.172 84.1667 419.547 83.4545 418.744 82.9318C417.949 82.4091 417.028 82.1477 415.983 82.1477C414.877 82.1477 413.903 82.4432 413.062 83.0341C412.222 83.625 411.563 84.4053 411.085 85.375C410.616 86.3447 410.377 87.4053 410.369 88.5568V89.625C410.369 91.0114 410.608 92.2235 411.085 93.2614C411.57 94.2917 412.256 95.0909 413.142 95.6591C414.028 96.2273 415.078 96.5114 416.29 96.5114C417.116 96.5114 417.839 96.3826 418.46 96.125C419.089 95.8674 419.616 95.5227 420.04 95.0909C420.472 94.6515 420.797 94.1705 421.017 93.6477L422.938 94.2727C422.672 95.0076 422.237 95.6856 421.631 96.3068C421.032 96.928 420.282 97.428 419.381 97.8068C418.487 98.178 417.456 98.3636 416.29 98.3636ZM434.702 80.5455V82.3068H426.372V80.5455H434.702ZM428.974 76.3636H431.009V93.4432C431.009 94.1705 431.134 94.7424 431.384 95.1591C431.634 95.5682 431.959 95.8598 432.361 96.0341C432.762 96.2008 433.19 96.2841 433.645 96.2841C433.91 96.2841 434.137 96.2689 434.327 96.2386C434.516 96.2008 434.683 96.1629 434.827 96.125L435.259 97.9545C435.062 98.0303 434.819 98.0985 434.531 98.1591C434.243 98.2273 433.887 98.2614 433.463 98.2614C432.721 98.2614 432.005 98.0985 431.315 97.7727C430.634 97.447 430.073 96.9621 429.634 96.3182C429.194 95.6742 428.974 94.875 428.974 93.9205V76.3636ZM40.4886 137.364C38.928 137.364 37.5682 136.973 36.4091 136.193C35.2576 135.413 34.3636 134.345 33.7273 132.989C33.0909 131.633 32.7727 130.087 32.7727 128.352C32.7727 126.602 33.0947 125.045 33.7386 123.682C34.3902 122.318 35.2917 121.25 36.4432 120.477C37.5947 119.697 38.9318 119.307 40.4545 119.307C41.6212 119.307 42.678 119.534 43.625 119.989C44.572 120.436 45.3523 121.068 45.9659 121.886C46.5871 122.697 46.9773 123.644 47.1364 124.727H45.0909C44.8788 123.742 44.3674 122.902 43.5568 122.205C42.7538 121.5 41.7311 121.148 40.4886 121.148C39.375 121.148 38.3902 121.451 37.5341 122.057C36.678 122.655 36.0076 123.492 35.5227 124.568C35.0455 125.636 34.8068 126.875 34.8068 128.284C34.8068 129.701 35.0417 130.955 35.5114 132.045C35.9811 133.129 36.6402 133.977 37.4886 134.591C38.3447 135.205 39.3447 135.511 40.4886 135.511C41.2614 135.511 41.9659 135.367 42.6023 135.08C43.2462 134.784 43.7841 134.367 44.2159 133.83C44.6553 133.292 44.9508 132.652 45.1023 131.909H47.1477C46.9962 132.962 46.6212 133.902 46.0227 134.727C45.4318 135.545 44.6629 136.189 43.7159 136.659C42.7765 137.129 41.7008 137.364 40.4886 137.364ZM58.267 137.364C56.7595 137.364 55.4261 136.981 54.267 136.216C53.1155 135.451 52.214 134.394 51.5625 133.045C50.911 131.689 50.5852 130.125 50.5852 128.352C50.5852 126.564 50.911 124.992 51.5625 123.636C52.214 122.273 53.1155 121.212 54.267 120.455C55.4261 119.689 56.7595 119.307 58.267 119.307C59.7746 119.307 61.1042 119.689 62.2557 120.455C63.4072 121.22 64.3087 122.28 64.9602 123.636C65.6193 124.992 65.9489 126.564 65.9489 128.352C65.9489 130.125 65.6231 131.689 64.9716 133.045C64.3201 134.394 63.4148 135.451 62.2557 136.216C61.1042 136.981 59.7746 137.364 58.267 137.364ZM58.267 135.511C59.4792 135.511 60.5057 135.186 61.3466 134.534C62.1875 133.883 62.8239 133.015 63.2557 131.932C63.6951 130.848 63.9148 129.655 63.9148 128.352C63.9148 127.049 63.6951 125.852 63.2557 124.761C62.8239 123.67 62.1875 122.795 61.3466 122.136C60.5057 121.477 59.4792 121.148 58.267 121.148C57.0625 121.148 56.036 121.477 55.1875 122.136C54.3466 122.795 53.7064 123.67 53.267 124.761C52.8352 125.852 52.6193 127.049 52.6193 128.352C52.6193 129.655 52.8352 130.848 53.267 131.932C53.7064 133.015 54.3466 133.883 55.1875 134.534C56.0284 135.186 57.0549 135.511 58.267 135.511ZM72.4119 126.091V137H70.3892V119.545H72.3551V122.284H72.5369C72.946 121.39 73.5824 120.674 74.446 120.136C75.3172 119.591 76.393 119.318 77.6733 119.318C78.8475 119.318 79.8778 119.564 80.7642 120.057C81.6581 120.542 82.3513 121.258 82.8438 122.205C83.3438 123.152 83.5938 124.314 83.5938 125.693V137H81.571V125.818C81.571 124.386 81.1695 123.254 80.3665 122.42C79.571 121.587 78.5028 121.17 77.1619 121.17C76.2453 121.17 75.4309 121.367 74.7188 121.761C74.0066 122.155 73.4422 122.723 73.0256 123.466C72.6165 124.201 72.4119 125.076 72.4119 126.091ZM100.648 123.375L98.7955 123.898C98.6136 123.375 98.3561 122.902 98.0227 122.477C97.6894 122.053 97.2538 121.716 96.7159 121.466C96.1856 121.216 95.5265 121.091 94.7386 121.091C93.5568 121.091 92.5871 121.371 91.8295 121.932C91.072 122.492 90.6932 123.216 90.6932 124.102C90.6932 124.852 90.9508 125.462 91.4659 125.932C91.9886 126.394 92.7917 126.761 93.875 127.034L96.5114 127.682C97.9735 128.038 99.0682 128.602 99.7955 129.375C100.53 130.148 100.898 131.117 100.898 132.284C100.898 133.269 100.625 134.144 100.08 134.909C99.5341 135.674 98.7727 136.277 97.7955 136.716C96.8258 137.148 95.7008 137.364 94.4205 137.364C92.7159 137.364 91.3106 136.981 90.2045 136.216C89.0985 135.443 88.3902 134.33 88.0795 132.875L90.0227 132.398C90.2727 133.436 90.7614 134.22 91.4886 134.75C92.2235 135.28 93.1894 135.545 94.3864 135.545C95.7273 135.545 96.7992 135.246 97.6023 134.648C98.4053 134.042 98.8068 133.284 98.8068 132.375C98.8068 131.67 98.572 131.08 98.1023 130.602C97.6326 130.117 96.9205 129.761 95.9659 129.534L93.1136 128.852C91.5985 128.489 90.4773 127.913 89.75 127.125C89.0227 126.337 88.6591 125.36 88.6591 124.193C88.6591 123.231 88.9205 122.386 89.4432 121.659C89.9659 120.924 90.6856 120.348 91.6023 119.932C92.5189 119.515 93.5644 119.307 94.7386 119.307C96.3371 119.307 97.6136 119.67 98.5682 120.398C99.5303 121.117 100.223 122.11 100.648 123.375ZM112.384 137.364C110.755 137.364 109.346 136.985 108.156 136.227C106.967 135.462 106.046 134.405 105.395 133.057C104.751 131.701 104.429 130.14 104.429 128.375C104.429 126.617 104.751 125.057 105.395 123.693C106.046 122.322 106.944 121.25 108.088 120.477C109.24 119.697 110.569 119.307 112.077 119.307C113.024 119.307 113.937 119.481 114.815 119.83C115.694 120.17 116.482 120.697 117.179 121.409C117.884 122.114 118.44 123.004 118.849 124.08C119.259 125.148 119.463 126.413 119.463 127.875V128.875H105.827V127.091H117.395C117.395 125.97 117.168 124.962 116.713 124.068C116.266 123.167 115.641 122.455 114.838 121.932C114.043 121.409 113.122 121.148 112.077 121.148C110.971 121.148 109.997 121.443 109.156 122.034C108.315 122.625 107.656 123.405 107.179 124.375C106.709 125.345 106.471 126.405 106.463 127.557V128.625C106.463 130.011 106.702 131.223 107.179 132.261C107.664 133.292 108.349 134.091 109.236 134.659C110.122 135.227 111.171 135.511 112.384 135.511C113.209 135.511 113.933 135.383 114.554 135.125C115.183 134.867 115.709 134.523 116.134 134.091C116.565 133.652 116.891 133.17 117.111 132.648L119.031 133.273C118.766 134.008 118.33 134.686 117.724 135.307C117.126 135.928 116.376 136.428 115.474 136.807C114.58 137.178 113.55 137.364 112.384 137.364ZM130.739 137.364C129.178 137.364 127.818 136.973 126.659 136.193C125.508 135.413 124.614 134.345 123.977 132.989C123.341 131.633 123.023 130.087 123.023 128.352C123.023 126.602 123.345 125.045 123.989 123.682C124.64 122.318 125.542 121.25 126.693 120.477C127.845 119.697 129.182 119.307 130.705 119.307C131.871 119.307 132.928 119.534 133.875 119.989C134.822 120.436 135.602 121.068 136.216 121.886C136.837 122.697 137.227 123.644 137.386 124.727H135.341C135.129 123.742 134.617 122.902 133.807 122.205C133.004 121.5 131.981 121.148 130.739 121.148C129.625 121.148 128.64 121.451 127.784 122.057C126.928 122.655 126.258 123.492 125.773 124.568C125.295 125.636 125.057 126.875 125.057 128.284C125.057 129.701 125.292 130.955 125.761 132.045C126.231 133.129 126.89 133.977 127.739 134.591C128.595 135.205 129.595 135.511 130.739 135.511C131.511 135.511 132.216 135.367 132.852 135.08C133.496 134.784 134.034 134.367 134.466 133.83C134.905 133.292 135.201 132.652 135.352 131.909H137.398C137.246 132.962 136.871 133.902 136.273 134.727C135.682 135.545 134.913 136.189 133.966 136.659C133.027 137.129 131.951 137.364 130.739 137.364ZM148.608 119.545V121.307H140.278V119.545H148.608ZM142.881 115.364H144.915V132.443C144.915 133.17 145.04 133.742 145.29 134.159C145.54 134.568 145.866 134.86 146.267 135.034C146.669 135.201 147.097 135.284 147.551 135.284C147.816 135.284 148.044 135.269 148.233 135.239C148.422 135.201 148.589 135.163 148.733 135.125L149.165 136.955C148.968 137.03 148.725 137.098 148.438 137.159C148.15 137.227 147.794 137.261 147.369 137.261C146.627 137.261 145.911 137.098 145.222 136.773C144.54 136.447 143.979 135.962 143.54 135.318C143.1 134.674 142.881 133.875 142.881 132.92V115.364ZM160.071 137.364C158.442 137.364 157.033 136.985 155.844 136.227C154.654 135.462 153.734 134.405 153.082 133.057C152.438 131.701 152.116 130.14 152.116 128.375C152.116 126.617 152.438 125.057 153.082 123.693C153.734 122.322 154.632 121.25 155.776 120.477C156.927 119.697 158.257 119.307 159.764 119.307C160.711 119.307 161.624 119.481 162.503 119.83C163.382 120.17 164.17 120.697 164.866 121.409C165.571 122.114 166.128 123.004 166.537 124.08C166.946 125.148 167.151 126.413 167.151 127.875V128.875H153.514V127.091H165.082C165.082 125.97 164.855 124.962 164.401 124.068C163.954 123.167 163.329 122.455 162.526 121.932C161.73 121.409 160.81 121.148 159.764 121.148C158.658 121.148 157.685 121.443 156.844 122.034C156.003 122.625 155.344 123.405 154.866 124.375C154.397 125.345 154.158 126.405 154.151 127.557V128.625C154.151 130.011 154.389 131.223 154.866 132.261C155.351 133.292 156.037 134.091 156.923 134.659C157.81 135.227 158.859 135.511 160.071 135.511C160.897 135.511 161.62 135.383 162.241 135.125C162.87 134.867 163.397 134.523 163.821 134.091C164.253 133.652 164.579 133.17 164.798 132.648L166.719 133.273C166.454 134.008 166.018 134.686 165.412 135.307C164.813 135.928 164.063 136.428 163.162 136.807C162.268 137.178 161.238 137.364 160.071 137.364ZM178.483 119.545V121.307H170.153V119.545H178.483ZM172.756 115.364H174.79V132.443C174.79 133.17 174.915 133.742 175.165 134.159C175.415 134.568 175.741 134.86 176.142 135.034C176.544 135.201 176.972 135.284 177.426 135.284C177.691 135.284 177.919 135.269 178.108 135.239C178.297 135.201 178.464 135.163 178.608 135.125L179.04 136.955C178.843 137.03 178.6 137.098 178.312 137.159C178.025 137.227 177.669 137.261 177.244 137.261C176.502 137.261 175.786 137.098 175.097 136.773C174.415 136.447 173.854 135.962 173.415 135.318C172.975 134.674 172.756 133.875 172.756 132.92V115.364ZM194.168 130.33V119.545H196.19V137H194.168V134.102H194.009C193.599 134.996 192.952 135.742 192.065 136.341C191.179 136.932 190.096 137.227 188.815 137.227C187.702 137.227 186.713 136.985 185.849 136.5C184.986 136.008 184.308 135.288 183.815 134.341C183.323 133.394 183.077 132.231 183.077 130.852V119.545H185.099V130.727C185.099 132.091 185.501 133.189 186.304 134.023C187.107 134.848 188.137 135.261 189.395 135.261C190.183 135.261 190.94 135.072 191.668 134.693C192.395 134.314 192.993 133.761 193.463 133.034C193.933 132.299 194.168 131.398 194.168 130.33ZM201.545 137V119.545H203.511V122.227H203.659C204.008 121.348 204.614 120.64 205.477 120.102C206.348 119.557 207.333 119.284 208.432 119.284C208.598 119.284 208.784 119.288 208.989 119.295C209.193 119.303 209.364 119.311 209.5 119.318V121.375C209.409 121.36 209.25 121.337 209.023 121.307C208.795 121.277 208.549 121.261 208.284 121.261C207.375 121.261 206.564 121.455 205.852 121.841C205.148 122.22 204.591 122.746 204.182 123.42C203.773 124.095 203.568 124.864 203.568 125.727V137H201.545ZM226.827 137.398C225.774 137.398 224.812 137.193 223.94 136.784C223.069 136.367 222.376 135.769 221.861 134.989C221.346 134.201 221.088 133.246 221.088 132.125C221.088 131.261 221.251 130.534 221.577 129.943C221.902 129.352 222.365 128.867 222.963 128.489C223.562 128.11 224.27 127.811 225.088 127.591C225.906 127.371 226.808 127.201 227.793 127.08C228.77 126.958 229.596 126.852 230.27 126.761C230.952 126.67 231.471 126.527 231.827 126.33C232.183 126.133 232.361 125.814 232.361 125.375V124.966C232.361 123.777 232.005 122.841 231.293 122.159C230.588 121.47 229.573 121.125 228.247 121.125C226.99 121.125 225.963 121.402 225.168 121.955C224.38 122.508 223.827 123.159 223.509 123.909L221.588 123.216C221.982 122.261 222.527 121.5 223.224 120.932C223.921 120.356 224.702 119.943 225.565 119.693C226.429 119.436 227.304 119.307 228.19 119.307C228.857 119.307 229.55 119.394 230.27 119.568C230.997 119.742 231.671 120.045 232.293 120.477C232.914 120.902 233.418 121.496 233.804 122.261C234.19 123.019 234.384 123.981 234.384 125.148V137H232.361V134.239H232.236C231.993 134.754 231.634 135.254 231.156 135.739C230.679 136.223 230.08 136.621 229.361 136.932C228.641 137.242 227.796 137.398 226.827 137.398ZM227.099 135.545C228.175 135.545 229.107 135.307 229.895 134.83C230.683 134.352 231.289 133.72 231.713 132.932C232.145 132.136 232.361 131.261 232.361 130.307V127.784C232.209 127.928 231.955 128.057 231.599 128.17C231.251 128.284 230.846 128.386 230.384 128.477C229.929 128.561 229.474 128.633 229.02 128.693C228.565 128.754 228.156 128.807 227.793 128.852C226.808 128.973 225.967 129.163 225.27 129.42C224.573 129.678 224.039 130.034 223.668 130.489C223.296 130.936 223.111 131.511 223.111 132.216C223.111 133.277 223.49 134.098 224.247 134.682C225.005 135.258 225.955 135.545 227.099 135.545ZM246.048 137.364C244.616 137.364 243.363 136.985 242.287 136.227C241.211 135.47 240.37 134.413 239.764 133.057C239.166 131.701 238.866 130.121 238.866 128.318C238.866 126.523 239.166 124.951 239.764 123.602C240.37 122.246 241.215 121.193 242.298 120.443C243.382 119.686 244.643 119.307 246.082 119.307C247.143 119.307 248.026 119.496 248.73 119.875C249.435 120.246 249.999 120.708 250.423 121.261C250.848 121.814 251.177 122.352 251.412 122.875H251.594V113.727H253.628V137H251.651V133.761H251.412C251.177 134.292 250.844 134.837 250.412 135.398C249.98 135.951 249.408 136.417 248.696 136.795C247.991 137.174 247.109 137.364 246.048 137.364ZM246.287 135.511C247.416 135.511 248.378 135.205 249.173 134.591C249.969 133.97 250.575 133.117 250.991 132.034C251.416 130.943 251.628 129.693 251.628 128.284C251.628 126.89 251.42 125.659 251.003 124.591C250.586 123.515 249.98 122.674 249.185 122.068C248.389 121.455 247.423 121.148 246.287 121.148C245.12 121.148 244.135 121.466 243.332 122.102C242.537 122.731 241.931 123.583 241.514 124.659C241.105 125.735 240.901 126.943 240.901 128.284C240.901 129.64 241.109 130.864 241.526 131.955C241.942 133.045 242.548 133.913 243.344 134.557C244.147 135.193 245.128 135.511 246.287 135.511ZM259.412 137V119.545H261.446V137H259.412ZM260.446 116.545C260.029 116.545 259.673 116.405 259.378 116.125C259.082 115.837 258.935 115.492 258.935 115.091C258.935 114.689 259.082 114.348 259.378 114.068C259.673 113.78 260.029 113.636 260.446 113.636C260.863 113.636 261.219 113.78 261.514 114.068C261.81 114.348 261.957 114.689 261.957 115.091C261.957 115.492 261.81 115.837 261.514 116.125C261.219 116.405 260.863 116.545 260.446 116.545ZM266.795 143.545V119.545H268.761V122.875H269C269.242 122.352 269.576 121.818 270 121.273C270.424 120.72 270.985 120.254 271.682 119.875C272.386 119.496 273.273 119.307 274.341 119.307C275.78 119.307 277.038 119.686 278.114 120.443C279.197 121.193 280.038 122.246 280.636 123.602C281.242 124.951 281.545 126.523 281.545 128.318C281.545 130.121 281.242 131.701 280.636 133.057C280.038 134.413 279.197 135.47 278.114 136.227C277.038 136.985 275.788 137.364 274.364 137.364C273.311 137.364 272.428 137.174 271.716 136.795C271.011 136.417 270.439 135.951 270 135.398C269.568 134.837 269.235 134.292 269 133.761H268.818V143.545H266.795ZM268.795 128.284C268.795 129.693 269.004 130.943 269.42 132.034C269.845 133.117 270.451 133.97 271.239 134.591C272.034 135.205 272.996 135.511 274.125 135.511C275.284 135.511 276.261 135.193 277.057 134.557C277.86 133.913 278.47 133.045 278.886 131.955C279.311 130.864 279.523 129.64 279.523 128.284C279.523 126.943 279.314 125.735 278.898 124.659C278.489 123.583 277.883 122.731 277.08 122.102C276.277 121.466 275.292 121.148 274.125 121.148C272.989 121.148 272.023 121.455 271.227 122.068C270.432 122.674 269.826 123.515 269.409 124.591C269 125.659 268.795 126.89 268.795 128.284ZM286.006 137V119.545H288.04V137H286.006ZM287.04 116.545C286.623 116.545 286.267 116.405 285.972 116.125C285.676 115.837 285.528 115.492 285.528 115.091C285.528 114.689 285.676 114.348 285.972 114.068C286.267 113.78 286.623 113.636 287.04 113.636C287.456 113.636 287.813 113.78 288.108 114.068C288.403 114.348 288.551 114.689 288.551 115.091C288.551 115.492 288.403 115.837 288.108 116.125C287.813 116.405 287.456 116.545 287.04 116.545ZM305.116 123.375L303.264 123.898C303.082 123.375 302.825 122.902 302.491 122.477C302.158 122.053 301.723 121.716 301.185 121.466C300.654 121.216 299.995 121.091 299.207 121.091C298.026 121.091 297.056 121.371 296.298 121.932C295.541 122.492 295.162 123.216 295.162 124.102C295.162 124.852 295.42 125.462 295.935 125.932C296.457 126.394 297.26 126.761 298.344 127.034L300.98 127.682C302.442 128.038 303.537 128.602 304.264 129.375C304.999 130.148 305.366 131.117 305.366 132.284C305.366 133.269 305.094 134.144 304.548 134.909C304.003 135.674 303.241 136.277 302.264 136.716C301.295 137.148 300.17 137.364 298.889 137.364C297.185 137.364 295.779 136.981 294.673 136.216C293.567 135.443 292.859 134.33 292.548 132.875L294.491 132.398C294.741 133.436 295.23 134.22 295.957 134.75C296.692 135.28 297.658 135.545 298.855 135.545C300.196 135.545 301.268 135.246 302.071 134.648C302.874 134.042 303.276 133.284 303.276 132.375C303.276 131.67 303.041 131.08 302.571 130.602C302.101 130.117 301.389 129.761 300.435 129.534L297.582 128.852C296.067 128.489 294.946 127.913 294.219 127.125C293.491 126.337 293.128 125.36 293.128 124.193C293.128 123.231 293.389 122.386 293.912 121.659C294.435 120.924 295.154 120.348 296.071 119.932C296.988 119.515 298.033 119.307 299.207 119.307C300.806 119.307 302.082 119.67 303.037 120.398C303.999 121.117 304.692 122.11 305.116 123.375ZM309.818 137V119.545H311.852V137H309.818ZM310.852 116.545C310.436 116.545 310.08 116.405 309.784 116.125C309.489 115.837 309.341 115.492 309.341 115.091C309.341 114.689 309.489 114.348 309.784 114.068C310.08 113.78 310.436 113.636 310.852 113.636C311.269 113.636 311.625 113.78 311.92 114.068C312.216 114.348 312.364 114.689 312.364 115.091C312.364 115.492 312.216 115.837 311.92 116.125C311.625 116.405 311.269 116.545 310.852 116.545ZM324.02 137.364C322.459 137.364 321.099 136.973 319.94 136.193C318.789 135.413 317.895 134.345 317.259 132.989C316.622 131.633 316.304 130.087 316.304 128.352C316.304 126.602 316.626 125.045 317.27 123.682C317.921 122.318 318.823 121.25 319.974 120.477C321.126 119.697 322.463 119.307 323.986 119.307C325.152 119.307 326.209 119.534 327.156 119.989C328.103 120.436 328.884 121.068 329.497 121.886C330.118 122.697 330.509 123.644 330.668 124.727H328.622C328.41 123.742 327.899 122.902 327.088 122.205C326.285 121.5 325.262 121.148 324.02 121.148C322.906 121.148 321.921 121.451 321.065 122.057C320.209 122.655 319.539 123.492 319.054 124.568C318.577 125.636 318.338 126.875 318.338 128.284C318.338 129.701 318.573 130.955 319.043 132.045C319.512 133.129 320.171 133.977 321.02 134.591C321.876 135.205 322.876 135.511 324.02 135.511C324.793 135.511 325.497 135.367 326.134 135.08C326.777 134.784 327.315 134.367 327.747 133.83C328.187 133.292 328.482 132.652 328.634 131.909H330.679C330.527 132.962 330.152 133.902 329.554 134.727C328.963 135.545 328.194 136.189 327.247 136.659C326.308 137.129 325.232 137.364 324.02 137.364ZM335.037 137V119.545H337.071V137H335.037ZM336.071 116.545C335.654 116.545 335.298 116.405 335.003 116.125C334.707 115.837 334.56 115.492 334.56 115.091C334.56 114.689 334.707 114.348 335.003 114.068C335.298 113.78 335.654 113.636 336.071 113.636C336.488 113.636 336.844 113.78 337.139 114.068C337.435 114.348 337.582 114.689 337.582 115.091C337.582 115.492 337.435 115.837 337.139 116.125C336.844 116.405 336.488 116.545 336.071 116.545ZM344.443 126.091V137H342.42V119.545H344.386V122.284H344.568C344.977 121.39 345.614 120.674 346.477 120.136C347.348 119.591 348.424 119.318 349.705 119.318C350.879 119.318 351.909 119.564 352.795 120.057C353.689 120.542 354.383 121.258 354.875 122.205C355.375 123.152 355.625 124.314 355.625 125.693V137H353.602V125.818C353.602 124.386 353.201 123.254 352.398 122.42C351.602 121.587 350.534 121.17 349.193 121.17C348.277 121.17 347.462 121.367 346.75 121.761C346.038 122.155 345.473 122.723 345.057 123.466C344.648 124.201 344.443 125.076 344.443 126.091ZM367.611 143.909C366.421 143.909 365.38 143.754 364.486 143.443C363.592 143.14 362.838 142.723 362.224 142.193C361.611 141.663 361.134 141.068 360.793 140.409L362.452 139.318C362.702 139.758 363.035 140.189 363.452 140.614C363.876 141.038 364.425 141.39 365.099 141.67C365.781 141.951 366.618 142.091 367.611 142.091C369.156 142.091 370.402 141.705 371.349 140.932C372.304 140.159 372.781 138.958 372.781 137.33V133.398H372.599C372.365 133.928 372.027 134.458 371.588 134.989C371.149 135.511 370.573 135.947 369.861 136.295C369.156 136.644 368.281 136.818 367.236 136.818C365.842 136.818 364.603 136.473 363.52 135.784C362.444 135.095 361.596 134.11 360.974 132.83C360.361 131.542 360.054 130.008 360.054 128.227C360.054 126.462 360.353 124.909 360.952 123.568C361.558 122.227 362.402 121.182 363.486 120.432C364.569 119.682 365.83 119.307 367.27 119.307C368.338 119.307 369.224 119.496 369.929 119.875C370.634 120.246 371.198 120.708 371.622 121.261C372.054 121.814 372.391 122.352 372.634 122.875H372.838V119.545H374.815V137.455C374.815 138.932 374.501 140.148 373.872 141.102C373.243 142.057 372.387 142.761 371.304 143.216C370.221 143.678 368.99 143.909 367.611 143.909ZM367.474 134.966C368.596 134.966 369.554 134.697 370.349 134.159C371.145 133.614 371.755 132.833 372.179 131.818C372.603 130.803 372.815 129.595 372.815 128.193C372.815 126.83 372.607 125.621 372.19 124.568C371.774 123.508 371.168 122.674 370.372 122.068C369.584 121.455 368.618 121.148 367.474 121.148C366.308 121.148 365.323 121.462 364.52 122.091C363.717 122.72 363.111 123.568 362.702 124.636C362.293 125.697 362.088 126.883 362.088 128.193C362.088 129.527 362.296 130.705 362.713 131.727C363.13 132.742 363.74 133.538 364.543 134.114C365.346 134.682 366.323 134.966 367.474 134.966ZM396.227 137.364C394.598 137.364 393.189 136.985 392 136.227C390.811 135.462 389.89 134.405 389.239 133.057C388.595 131.701 388.273 130.14 388.273 128.375C388.273 126.617 388.595 125.057 389.239 123.693C389.89 122.322 390.788 121.25 391.932 120.477C393.083 119.697 394.413 119.307 395.92 119.307C396.867 119.307 397.78 119.481 398.659 119.83C399.538 120.17 400.326 120.697 401.023 121.409C401.727 122.114 402.284 123.004 402.693 124.08C403.102 125.148 403.307 126.413 403.307 127.875V128.875H389.67V127.091H401.239C401.239 125.97 401.011 124.962 400.557 124.068C400.11 123.167 399.485 122.455 398.682 121.932C397.886 121.409 396.966 121.148 395.92 121.148C394.814 121.148 393.841 121.443 393 122.034C392.159 122.625 391.5 123.405 391.023 124.375C390.553 125.345 390.314 126.405 390.307 127.557V128.625C390.307 130.011 390.545 131.223 391.023 132.261C391.508 133.292 392.193 134.091 393.08 134.659C393.966 135.227 395.015 135.511 396.227 135.511C397.053 135.511 397.777 135.383 398.398 135.125C399.027 134.867 399.553 134.523 399.977 134.091C400.409 133.652 400.735 133.17 400.955 132.648L402.875 133.273C402.61 134.008 402.174 134.686 401.568 135.307C400.97 135.928 400.22 136.428 399.318 136.807C398.424 137.178 397.394 137.364 396.227 137.364ZM409.787 113.727V137H407.764V113.727H409.787ZM415.162 137V119.545H417.196V137H415.162ZM416.196 116.545C415.779 116.545 415.423 116.405 415.128 116.125C414.832 115.837 414.685 115.492 414.685 115.091C414.685 114.689 414.832 114.348 415.128 114.068C415.423 113.78 415.779 113.636 416.196 113.636C416.613 113.636 416.969 113.78 417.264 114.068C417.56 114.348 417.707 114.689 417.707 115.091C417.707 115.492 417.56 115.837 417.264 116.125C416.969 116.405 416.613 116.545 416.196 116.545ZM429.42 119.545V121.307H421.091V119.545H429.42ZM423.693 115.364H425.727V132.443C425.727 133.17 425.852 133.742 426.102 134.159C426.352 134.568 426.678 134.86 427.08 135.034C427.481 135.201 427.909 135.284 428.364 135.284C428.629 135.284 428.856 135.269 429.045 135.239C429.235 135.201 429.402 135.163 429.545 135.125L429.977 136.955C429.78 137.03 429.538 137.098 429.25 137.159C428.962 137.227 428.606 137.261 428.182 137.261C427.439 137.261 426.723 137.098 426.034 136.773C425.352 136.447 424.792 135.962 424.352 135.318C423.913 134.674 423.693 133.875 423.693 132.92V115.364ZM435.628 137.17C435.181 137.17 434.795 137.011 434.469 136.693C434.151 136.367 433.991 135.981 433.991 135.534C433.991 135.08 434.151 134.693 434.469 134.375C434.795 134.057 435.181 133.898 435.628 133.898C436.082 133.898 436.469 134.057 436.787 134.375C437.105 134.693 437.264 135.08 437.264 135.534C437.264 135.83 437.188 136.102 437.037 136.352C436.893 136.602 436.696 136.803 436.446 136.955C436.204 137.098 435.931 137.17 435.628 137.17ZM464.665 119.545C464.536 118.25 463.964 117.22 462.949 116.455C461.934 115.689 460.657 115.307 459.119 115.307C458.036 115.307 457.081 115.492 456.256 115.864C455.438 116.235 454.794 116.75 454.324 117.409C453.862 118.061 453.631 118.803 453.631 119.636C453.631 120.25 453.763 120.788 454.028 121.25C454.294 121.712 454.65 122.11 455.097 122.443C455.551 122.769 456.051 123.049 456.597 123.284C457.15 123.519 457.706 123.716 458.267 123.875L460.722 124.58C461.464 124.784 462.206 125.045 462.949 125.364C463.691 125.682 464.369 126.083 464.983 126.568C465.604 127.045 466.1 127.633 466.472 128.33C466.85 129.019 467.04 129.848 467.04 130.818C467.04 132.061 466.718 133.178 466.074 134.17C465.43 135.163 464.506 135.951 463.301 136.534C462.097 137.11 460.653 137.398 458.972 137.398C457.388 137.398 456.013 137.136 454.847 136.614C453.68 136.083 452.763 135.352 452.097 134.42C451.43 133.489 451.055 132.409 450.972 131.182H453.153C453.229 132.098 453.532 132.875 454.062 133.511C454.593 134.148 455.282 134.633 456.131 134.966C456.979 135.292 457.926 135.455 458.972 135.455C460.131 135.455 461.161 135.261 462.062 134.875C462.972 134.481 463.684 133.936 464.199 133.239C464.722 132.534 464.983 131.716 464.983 130.784C464.983 129.996 464.778 129.337 464.369 128.807C463.96 128.269 463.388 127.818 462.653 127.455C461.926 127.091 461.081 126.769 460.119 126.489L457.335 125.67C455.509 125.125 454.093 124.371 453.085 123.409C452.078 122.447 451.574 121.22 451.574 119.727C451.574 118.477 451.907 117.379 452.574 116.432C453.248 115.477 454.157 114.735 455.301 114.205C456.453 113.667 457.744 113.398 459.176 113.398C460.623 113.398 461.903 113.663 463.017 114.193C464.131 114.723 465.013 115.455 465.665 116.386C466.324 117.311 466.676 118.364 466.722 119.545H464.665ZM478.79 137.364C477.161 137.364 475.752 136.985 474.562 136.227C473.373 135.462 472.453 134.405 471.801 133.057C471.157 131.701 470.835 130.14 470.835 128.375C470.835 126.617 471.157 125.057 471.801 123.693C472.453 122.322 473.35 121.25 474.494 120.477C475.646 119.697 476.975 119.307 478.483 119.307C479.43 119.307 480.343 119.481 481.222 119.83C482.1 120.17 482.888 120.697 483.585 121.409C484.29 122.114 484.847 123.004 485.256 124.08C485.665 125.148 485.869 126.413 485.869 127.875V128.875H472.233V127.091H483.801C483.801 125.97 483.574 124.962 483.119 124.068C482.672 123.167 482.047 122.455 481.244 121.932C480.449 121.409 479.528 121.148 478.483 121.148C477.377 121.148 476.403 121.443 475.562 122.034C474.722 122.625 474.063 123.405 473.585 124.375C473.116 125.345 472.877 126.405 472.869 127.557V128.625C472.869 130.011 473.108 131.223 473.585 132.261C474.07 133.292 474.756 134.091 475.642 134.659C476.528 135.227 477.578 135.511 478.79 135.511C479.616 135.511 480.339 135.383 480.96 135.125C481.589 134.867 482.116 134.523 482.54 134.091C482.972 133.652 483.297 133.17 483.517 132.648L485.438 133.273C485.172 134.008 484.737 134.686 484.131 135.307C483.532 135.928 482.782 136.428 481.881 136.807C480.987 137.178 479.956 137.364 478.79 137.364ZM496.611 137.364C495.179 137.364 493.925 136.985 492.849 136.227C491.774 135.47 490.933 134.413 490.327 133.057C489.728 131.701 489.429 130.121 489.429 128.318C489.429 126.523 489.728 124.951 490.327 123.602C490.933 122.246 491.777 121.193 492.861 120.443C493.944 119.686 495.205 119.307 496.645 119.307C497.705 119.307 498.588 119.496 499.293 119.875C499.997 120.246 500.562 120.708 500.986 121.261C501.41 121.814 501.74 122.352 501.974 122.875H502.156V113.727H504.19V137H502.213V133.761H501.974C501.74 134.292 501.406 134.837 500.974 135.398C500.543 135.951 499.971 136.417 499.259 136.795C498.554 137.174 497.671 137.364 496.611 137.364ZM496.849 135.511C497.978 135.511 498.94 135.205 499.736 134.591C500.531 133.97 501.137 133.117 501.554 132.034C501.978 130.943 502.19 129.693 502.19 128.284C502.19 126.89 501.982 125.659 501.565 124.591C501.149 123.515 500.543 122.674 499.747 122.068C498.952 121.455 497.986 121.148 496.849 121.148C495.683 121.148 494.698 121.466 493.895 122.102C493.099 122.731 492.493 123.583 492.077 124.659C491.668 125.735 491.463 126.943 491.463 128.284C491.463 129.64 491.671 130.864 492.088 131.955C492.505 133.045 493.111 133.913 493.906 134.557C494.709 135.193 495.69 135.511 496.849 135.511ZM513.315 133.818L513.111 135.034C512.982 135.852 512.8 136.754 512.565 137.739C512.33 138.723 512.088 139.659 511.838 140.545C511.588 141.432 511.372 142.144 511.19 142.682H509.634C509.732 142.167 509.857 141.511 510.009 140.716C510.168 139.92 510.33 139.038 510.497 138.068C510.664 137.106 510.815 136.114 510.952 135.091L511.111 133.818H513.315ZM33.6932 176V158.545H35.7273V176H33.6932ZM34.7273 155.545C34.3106 155.545 33.9545 155.405 33.6591 155.125C33.3636 154.837 33.2159 154.492 33.2159 154.091C33.2159 153.689 33.3636 153.348 33.6591 153.068C33.9545 152.78 34.3106 152.636 34.7273 152.636C35.1439 152.636 35.5 152.78 35.7955 153.068C36.0909 153.348 36.2386 153.689 36.2386 154.091C36.2386 154.492 36.0909 154.837 35.7955 155.125C35.5 155.405 35.1439 155.545 34.7273 155.545ZM41.0767 176V158.545H43.0426V161.227H43.2244C43.5729 160.326 44.1525 159.617 44.9631 159.102C45.7813 158.58 46.7623 158.318 47.9062 158.318C49.1108 158.318 50.0994 158.602 50.8722 159.17C51.6525 159.731 52.2358 160.504 52.6222 161.489H52.7699C53.1638 160.519 53.804 159.75 54.6903 159.182C55.5843 158.606 56.6676 158.318 57.9403 158.318C59.5616 158.318 60.8419 158.83 61.7812 159.852C62.7206 160.867 63.1903 162.352 63.1903 164.307V176H61.1676V164.307C61.1676 162.928 60.8153 161.894 60.1108 161.205C59.4063 160.515 58.4782 160.17 57.3267 160.17C55.9934 160.17 54.9669 160.58 54.2472 161.398C53.5275 162.216 53.1676 163.254 53.1676 164.511V176H51.0994V164.125C51.0994 162.943 50.7699 161.989 50.1108 161.261C49.4517 160.534 48.5237 160.17 47.3267 160.17C46.5237 160.17 45.8002 160.367 45.1562 160.761C44.5199 161.155 44.0161 161.705 43.6449 162.409C43.2813 163.106 43.0994 163.909 43.0994 164.818V176H41.0767ZM68.5455 182.545V158.545H70.5114V161.875H70.75C70.9924 161.352 71.3258 160.818 71.75 160.273C72.1742 159.72 72.7348 159.254 73.4318 158.875C74.1364 158.496 75.0227 158.307 76.0909 158.307C77.5303 158.307 78.7879 158.686 79.8636 159.443C80.947 160.193 81.7879 161.246 82.3864 162.602C82.9924 163.951 83.2955 165.523 83.2955 167.318C83.2955 169.121 82.9924 170.701 82.3864 172.057C81.7879 173.413 80.947 174.47 79.8636 175.227C78.7879 175.985 77.5379 176.364 76.1136 176.364C75.0606 176.364 74.178 176.174 73.4659 175.795C72.7614 175.417 72.1894 174.951 71.75 174.398C71.3182 173.837 70.9848 173.292 70.75 172.761H70.5682V182.545H68.5455ZM70.5455 167.284C70.5455 168.693 70.7538 169.943 71.1705 171.034C71.5947 172.117 72.2008 172.97 72.9886 173.591C73.7841 174.205 74.7462 174.511 75.875 174.511C77.0341 174.511 78.0114 174.193 78.8068 173.557C79.6098 172.913 80.2197 172.045 80.6364 170.955C81.0606 169.864 81.2727 168.64 81.2727 167.284C81.2727 165.943 81.0644 164.735 80.6477 163.659C80.2386 162.583 79.6326 161.731 78.8295 161.102C78.0265 160.466 77.0417 160.148 75.875 160.148C74.7386 160.148 73.7727 160.455 72.9773 161.068C72.1818 161.674 71.5758 162.515 71.1591 163.591C70.75 164.659 70.5455 165.89 70.5455 167.284ZM94.7898 176.364C93.161 176.364 91.7519 175.985 90.5625 175.227C89.3731 174.462 88.4527 173.405 87.8011 172.057C87.1572 170.701 86.8352 169.14 86.8352 167.375C86.8352 165.617 87.1572 164.057 87.8011 162.693C88.4527 161.322 89.3504 160.25 90.4943 159.477C91.6458 158.697 92.9754 158.307 94.483 158.307C95.4299 158.307 96.3428 158.481 97.2216 158.83C98.1004 159.17 98.8883 159.697 99.5852 160.409C100.29 161.114 100.847 162.004 101.256 163.08C101.665 164.148 101.869 165.413 101.869 166.875V167.875H88.233V166.091H99.8011C99.8011 164.97 99.5739 163.962 99.1193 163.068C98.6723 162.167 98.0473 161.455 97.2443 160.932C96.4489 160.409 95.5284 160.148 94.483 160.148C93.3769 160.148 92.4034 160.443 91.5625 161.034C90.7216 161.625 90.0625 162.405 89.5852 163.375C89.1155 164.345 88.8769 165.405 88.8693 166.557V167.625C88.8693 169.011 89.108 170.223 89.5852 171.261C90.0701 172.292 90.7557 173.091 91.642 173.659C92.5284 174.227 93.5777 174.511 94.7898 174.511C95.6155 174.511 96.339 174.383 96.9602 174.125C97.589 173.867 98.1155 173.523 98.5398 173.091C98.9716 172.652 99.2973 172.17 99.517 171.648L101.438 172.273C101.172 173.008 100.737 173.686 100.131 174.307C99.5322 174.928 98.7822 175.428 97.8807 175.807C96.9867 176.178 95.9564 176.364 94.7898 176.364ZM112.611 176.364C111.179 176.364 109.925 175.985 108.849 175.227C107.774 174.47 106.933 173.413 106.327 172.057C105.728 170.701 105.429 169.121 105.429 167.318C105.429 165.523 105.728 163.951 106.327 162.602C106.933 161.246 107.777 160.193 108.861 159.443C109.944 158.686 111.205 158.307 112.645 158.307C113.705 158.307 114.588 158.496 115.293 158.875C115.997 159.246 116.562 159.708 116.986 160.261C117.41 160.814 117.74 161.352 117.974 161.875H118.156V152.727H120.19V176H118.213V172.761H117.974C117.74 173.292 117.406 173.837 116.974 174.398C116.543 174.951 115.971 175.417 115.259 175.795C114.554 176.174 113.671 176.364 112.611 176.364ZM112.849 174.511C113.978 174.511 114.94 174.205 115.736 173.591C116.531 172.97 117.137 172.117 117.554 171.034C117.978 169.943 118.19 168.693 118.19 167.284C118.19 165.89 117.982 164.659 117.565 163.591C117.149 162.515 116.543 161.674 115.747 161.068C114.952 160.455 113.986 160.148 112.849 160.148C111.683 160.148 110.698 160.466 109.895 161.102C109.099 161.731 108.493 162.583 108.077 163.659C107.668 164.735 107.463 165.943 107.463 167.284C107.463 168.64 107.671 169.864 108.088 170.955C108.505 172.045 109.111 172.913 109.906 173.557C110.709 174.193 111.69 174.511 112.849 174.511ZM125.974 176V158.545H128.009V176H125.974ZM127.009 155.545C126.592 155.545 126.236 155.405 125.94 155.125C125.645 154.837 125.497 154.492 125.497 154.091C125.497 153.689 125.645 153.348 125.94 153.068C126.236 152.78 126.592 152.636 127.009 152.636C127.425 152.636 127.781 152.78 128.077 153.068C128.372 153.348 128.52 153.689 128.52 154.091C128.52 154.492 128.372 154.837 128.077 155.125C127.781 155.405 127.425 155.545 127.009 155.545ZM140.233 158.545V160.307H131.903V158.545H140.233ZM134.506 154.364H136.54V171.443C136.54 172.17 136.665 172.742 136.915 173.159C137.165 173.568 137.491 173.86 137.892 174.034C138.294 174.201 138.722 174.284 139.176 174.284C139.441 174.284 139.669 174.269 139.858 174.239C140.047 174.201 140.214 174.163 140.358 174.125L140.79 175.955C140.593 176.03 140.35 176.098 140.062 176.159C139.775 176.227 139.419 176.261 138.994 176.261C138.252 176.261 137.536 176.098 136.847 175.773C136.165 175.447 135.604 174.962 135.165 174.318C134.725 173.674 134.506 172.875 134.506 171.92V154.364ZM160.611 176.364C159.103 176.364 157.77 175.981 156.611 175.216C155.459 174.451 154.558 173.394 153.906 172.045C153.255 170.689 152.929 169.125 152.929 167.352C152.929 165.564 153.255 163.992 153.906 162.636C154.558 161.273 155.459 160.212 156.611 159.455C157.77 158.689 159.103 158.307 160.611 158.307C162.118 158.307 163.448 158.689 164.599 159.455C165.751 160.22 166.652 161.28 167.304 162.636C167.963 163.992 168.293 165.564 168.293 167.352C168.293 169.125 167.967 170.689 167.315 172.045C166.664 173.394 165.759 174.451 164.599 175.216C163.448 175.981 162.118 176.364 160.611 176.364ZM160.611 174.511C161.823 174.511 162.849 174.186 163.69 173.534C164.531 172.883 165.168 172.015 165.599 170.932C166.039 169.848 166.259 168.655 166.259 167.352C166.259 166.049 166.039 164.852 165.599 163.761C165.168 162.67 164.531 161.795 163.69 161.136C162.849 160.477 161.823 160.148 160.611 160.148C159.406 160.148 158.38 160.477 157.531 161.136C156.69 161.795 156.05 162.67 155.611 163.761C155.179 164.852 154.963 166.049 154.963 167.352C154.963 168.655 155.179 169.848 155.611 170.932C156.05 172.015 156.69 172.883 157.531 173.534C158.372 174.186 159.399 174.511 160.611 174.511ZM172.733 182.545V158.545H174.699V161.875H174.938C175.18 161.352 175.513 160.818 175.938 160.273C176.362 159.72 176.922 159.254 177.619 158.875C178.324 158.496 179.21 158.307 180.278 158.307C181.718 158.307 182.975 158.686 184.051 159.443C185.134 160.193 185.975 161.246 186.574 162.602C187.18 163.951 187.483 165.523 187.483 167.318C187.483 169.121 187.18 170.701 186.574 172.057C185.975 173.413 185.134 174.47 184.051 175.227C182.975 175.985 181.725 176.364 180.301 176.364C179.248 176.364 178.366 176.174 177.653 175.795C176.949 175.417 176.377 174.951 175.938 174.398C175.506 173.837 175.172 173.292 174.938 172.761H174.756V182.545H172.733ZM174.733 167.284C174.733 168.693 174.941 169.943 175.358 171.034C175.782 172.117 176.388 172.97 177.176 173.591C177.972 174.205 178.934 174.511 180.062 174.511C181.222 174.511 182.199 174.193 182.994 173.557C183.797 172.913 184.407 172.045 184.824 170.955C185.248 169.864 185.46 168.64 185.46 167.284C185.46 165.943 185.252 164.735 184.835 163.659C184.426 162.583 183.82 161.731 183.017 161.102C182.214 160.466 181.229 160.148 180.062 160.148C178.926 160.148 177.96 160.455 177.165 161.068C176.369 161.674 175.763 162.515 175.347 163.591C174.938 164.659 174.733 165.89 174.733 167.284ZM198.795 158.545V160.307H190.466V158.545H198.795ZM193.068 154.364H195.102V171.443C195.102 172.17 195.227 172.742 195.477 173.159C195.727 173.568 196.053 173.86 196.455 174.034C196.856 174.201 197.284 174.284 197.739 174.284C198.004 174.284 198.231 174.269 198.42 174.239C198.61 174.201 198.777 174.163 198.92 174.125L199.352 175.955C199.155 176.03 198.913 176.098 198.625 176.159C198.337 176.227 197.981 176.261 197.557 176.261C196.814 176.261 196.098 176.098 195.409 175.773C194.727 175.447 194.167 174.962 193.727 174.318C193.288 173.674 193.068 172.875 193.068 171.92V154.364ZM203.412 176V158.545H205.446V176H203.412ZM204.446 155.545C204.029 155.545 203.673 155.405 203.378 155.125C203.082 154.837 202.935 154.492 202.935 154.091C202.935 153.689 203.082 153.348 203.378 153.068C203.673 152.78 204.029 152.636 204.446 152.636C204.863 152.636 205.219 152.78 205.514 153.068C205.81 153.348 205.957 153.689 205.957 154.091C205.957 154.492 205.81 154.837 205.514 155.125C205.219 155.405 204.863 155.545 204.446 155.545ZM217.58 176.364C216.072 176.364 214.739 175.981 213.58 175.216C212.428 174.451 211.527 173.394 210.875 172.045C210.223 170.689 209.898 169.125 209.898 167.352C209.898 165.564 210.223 163.992 210.875 162.636C211.527 161.273 212.428 160.212 213.58 159.455C214.739 158.689 216.072 158.307 217.58 158.307C219.087 158.307 220.417 158.689 221.568 159.455C222.72 160.22 223.621 161.28 224.273 162.636C224.932 163.992 225.261 165.564 225.261 167.352C225.261 169.125 224.936 170.689 224.284 172.045C223.633 173.394 222.727 174.451 221.568 175.216C220.417 175.981 219.087 176.364 217.58 176.364ZM217.58 174.511C218.792 174.511 219.818 174.186 220.659 173.534C221.5 172.883 222.136 172.015 222.568 170.932C223.008 169.848 223.227 168.655 223.227 167.352C223.227 166.049 223.008 164.852 222.568 163.761C222.136 162.67 221.5 161.795 220.659 161.136C219.818 160.477 218.792 160.148 217.58 160.148C216.375 160.148 215.348 160.477 214.5 161.136C213.659 161.795 213.019 162.67 212.58 163.761C212.148 164.852 211.932 166.049 211.932 167.352C211.932 168.655 212.148 169.848 212.58 170.932C213.019 172.015 213.659 172.883 214.5 173.534C215.341 174.186 216.367 174.511 217.58 174.511ZM244.986 176.364C243.554 176.364 242.3 175.985 241.224 175.227C240.149 174.47 239.308 173.413 238.702 172.057C238.103 170.701 237.804 169.121 237.804 167.318C237.804 165.523 238.103 163.951 238.702 162.602C239.308 161.246 240.152 160.193 241.236 159.443C242.319 158.686 243.58 158.307 245.02 158.307C246.08 158.307 246.963 158.496 247.668 158.875C248.372 159.246 248.937 159.708 249.361 160.261C249.785 160.814 250.115 161.352 250.349 161.875H250.531V152.727H252.565V176H250.588V172.761H250.349C250.115 173.292 249.781 173.837 249.349 174.398C248.918 174.951 248.346 175.417 247.634 175.795C246.929 176.174 246.046 176.364 244.986 176.364ZM245.224 174.511C246.353 174.511 247.315 174.205 248.111 173.591C248.906 172.97 249.512 172.117 249.929 171.034C250.353 169.943 250.565 168.693 250.565 167.284C250.565 165.89 250.357 164.659 249.94 163.591C249.524 162.515 248.918 161.674 248.122 161.068C247.327 160.455 246.361 160.148 245.224 160.148C244.058 160.148 243.073 160.466 242.27 161.102C241.474 161.731 240.868 162.583 240.452 163.659C240.043 164.735 239.838 165.943 239.838 167.284C239.838 168.64 240.046 169.864 240.463 170.955C240.88 172.045 241.486 172.913 242.281 173.557C243.084 174.193 244.065 174.511 245.224 174.511ZM265.384 176.364C263.755 176.364 262.346 175.985 261.156 175.227C259.967 174.462 259.046 173.405 258.395 172.057C257.751 170.701 257.429 169.14 257.429 167.375C257.429 165.617 257.751 164.057 258.395 162.693C259.046 161.322 259.944 160.25 261.088 159.477C262.24 158.697 263.569 158.307 265.077 158.307C266.024 158.307 266.937 158.481 267.815 158.83C268.694 159.17 269.482 159.697 270.179 160.409C270.884 161.114 271.44 162.004 271.849 163.08C272.259 164.148 272.463 165.413 272.463 166.875V167.875H258.827V166.091H270.395C270.395 164.97 270.168 163.962 269.713 163.068C269.266 162.167 268.641 161.455 267.838 160.932C267.043 160.409 266.122 160.148 265.077 160.148C263.971 160.148 262.997 160.443 262.156 161.034C261.315 161.625 260.656 162.405 260.179 163.375C259.709 164.345 259.471 165.405 259.463 166.557V167.625C259.463 169.011 259.702 170.223 260.179 171.261C260.664 172.292 261.349 173.091 262.236 173.659C263.122 174.227 264.171 174.511 265.384 174.511C266.209 174.511 266.933 174.383 267.554 174.125C268.183 173.867 268.709 173.523 269.134 173.091C269.565 172.652 269.891 172.17 270.111 171.648L272.031 172.273C271.766 173.008 271.33 173.686 270.724 174.307C270.126 174.928 269.376 175.428 268.474 175.807C267.58 176.178 266.55 176.364 265.384 176.364ZM278.943 152.727V176H276.92V152.727H278.943ZM291.352 176.364C289.723 176.364 288.314 175.985 287.125 175.227C285.936 174.462 285.015 173.405 284.364 172.057C283.72 170.701 283.398 169.14 283.398 167.375C283.398 165.617 283.72 164.057 284.364 162.693C285.015 161.322 285.913 160.25 287.057 159.477C288.208 158.697 289.538 158.307 291.045 158.307C291.992 158.307 292.905 158.481 293.784 158.83C294.663 159.17 295.451 159.697 296.148 160.409C296.852 161.114 297.409 162.004 297.818 163.08C298.227 164.148 298.432 165.413 298.432 166.875V167.875H284.795V166.091H296.364C296.364 164.97 296.136 163.962 295.682 163.068C295.235 162.167 294.61 161.455 293.807 160.932C293.011 160.409 292.091 160.148 291.045 160.148C289.939 160.148 288.966 160.443 288.125 161.034C287.284 161.625 286.625 162.405 286.148 163.375C285.678 164.345 285.439 165.405 285.432 166.557V167.625C285.432 169.011 285.67 170.223 286.148 171.261C286.633 172.292 287.318 173.091 288.205 173.659C289.091 174.227 290.14 174.511 291.352 174.511C292.178 174.511 292.902 174.383 293.523 174.125C294.152 173.867 294.678 173.523 295.102 173.091C295.534 172.652 295.86 172.17 296.08 171.648L298 172.273C297.735 173.008 297.299 173.686 296.693 174.307C296.095 174.928 295.345 175.428 294.443 175.807C293.549 176.178 292.519 176.364 291.352 176.364ZM309.707 176.364C308.147 176.364 306.787 175.973 305.628 175.193C304.476 174.413 303.582 173.345 302.946 171.989C302.31 170.633 301.991 169.087 301.991 167.352C301.991 165.602 302.313 164.045 302.957 162.682C303.609 161.318 304.51 160.25 305.662 159.477C306.813 158.697 308.151 158.307 309.673 158.307C310.84 158.307 311.897 158.534 312.844 158.989C313.791 159.436 314.571 160.068 315.185 160.886C315.806 161.697 316.196 162.644 316.355 163.727H314.31C314.098 162.742 313.586 161.902 312.776 161.205C311.973 160.5 310.95 160.148 309.707 160.148C308.594 160.148 307.609 160.451 306.753 161.057C305.897 161.655 305.226 162.492 304.741 163.568C304.264 164.636 304.026 165.875 304.026 167.284C304.026 168.701 304.26 169.955 304.73 171.045C305.2 172.129 305.859 172.977 306.707 173.591C307.563 174.205 308.563 174.511 309.707 174.511C310.48 174.511 311.185 174.367 311.821 174.08C312.465 173.784 313.003 173.367 313.435 172.83C313.874 172.292 314.17 171.652 314.321 170.909H316.366C316.215 171.962 315.84 172.902 315.241 173.727C314.651 174.545 313.882 175.189 312.935 175.659C311.995 176.129 310.92 176.364 309.707 176.364ZM327.577 158.545V160.307H319.247V158.545H327.577ZM321.849 154.364H323.884V171.443C323.884 172.17 324.009 172.742 324.259 173.159C324.509 173.568 324.834 173.86 325.236 174.034C325.637 174.201 326.065 174.284 326.52 174.284C326.785 174.284 327.012 174.269 327.202 174.239C327.391 174.201 327.558 174.163 327.702 174.125L328.134 175.955C327.937 176.03 327.694 176.098 327.406 176.159C327.118 176.227 326.762 176.261 326.338 176.261C325.596 176.261 324.88 176.098 324.19 175.773C323.509 175.447 322.948 174.962 322.509 174.318C322.069 173.674 321.849 172.875 321.849 171.92V154.364ZM343.261 169.33V158.545H345.284V176H343.261V173.102H343.102C342.693 173.996 342.045 174.742 341.159 175.341C340.273 175.932 339.189 176.227 337.909 176.227C336.795 176.227 335.807 175.985 334.943 175.5C334.08 175.008 333.402 174.288 332.909 173.341C332.417 172.394 332.17 171.231 332.17 169.852V158.545H334.193V169.727C334.193 171.091 334.595 172.189 335.398 173.023C336.201 173.848 337.231 174.261 338.489 174.261C339.277 174.261 340.034 174.072 340.761 173.693C341.489 173.314 342.087 172.761 342.557 172.034C343.027 171.299 343.261 170.398 343.261 169.33ZM362.366 162.375L360.514 162.898C360.332 162.375 360.075 161.902 359.741 161.477C359.408 161.053 358.973 160.716 358.435 160.466C357.904 160.216 357.245 160.091 356.457 160.091C355.276 160.091 354.306 160.371 353.548 160.932C352.791 161.492 352.412 162.216 352.412 163.102C352.412 163.852 352.67 164.462 353.185 164.932C353.707 165.394 354.51 165.761 355.594 166.034L358.23 166.682C359.692 167.038 360.787 167.602 361.514 168.375C362.249 169.148 362.616 170.117 362.616 171.284C362.616 172.269 362.344 173.144 361.798 173.909C361.253 174.674 360.491 175.277 359.514 175.716C358.545 176.148 357.42 176.364 356.139 176.364C354.435 176.364 353.029 175.981 351.923 175.216C350.817 174.443 350.109 173.33 349.798 171.875L351.741 171.398C351.991 172.436 352.48 173.22 353.207 173.75C353.942 174.28 354.908 174.545 356.105 174.545C357.446 174.545 358.518 174.246 359.321 173.648C360.124 173.042 360.526 172.284 360.526 171.375C360.526 170.67 360.291 170.08 359.821 169.602C359.351 169.117 358.639 168.761 357.685 168.534L354.832 167.852C353.317 167.489 352.196 166.913 351.469 166.125C350.741 165.337 350.378 164.36 350.378 163.193C350.378 162.231 350.639 161.386 351.162 160.659C351.685 159.924 352.404 159.348 353.321 158.932C354.238 158.515 355.283 158.307 356.457 158.307C358.056 158.307 359.332 158.67 360.287 159.398C361.249 160.117 361.942 161.11 362.366 162.375ZM376.045 182.545V158.545H378.011V161.875H378.25C378.492 161.352 378.826 160.818 379.25 160.273C379.674 159.72 380.235 159.254 380.932 158.875C381.636 158.496 382.523 158.307 383.591 158.307C385.03 158.307 386.288 158.686 387.364 159.443C388.447 160.193 389.288 161.246 389.886 162.602C390.492 163.951 390.795 165.523 390.795 167.318C390.795 169.121 390.492 170.701 389.886 172.057C389.288 173.413 388.447 174.47 387.364 175.227C386.288 175.985 385.038 176.364 383.614 176.364C382.561 176.364 381.678 176.174 380.966 175.795C380.261 175.417 379.689 174.951 379.25 174.398C378.818 173.837 378.485 173.292 378.25 172.761H378.068V182.545H376.045ZM378.045 167.284C378.045 168.693 378.254 169.943 378.67 171.034C379.095 172.117 379.701 172.97 380.489 173.591C381.284 174.205 382.246 174.511 383.375 174.511C384.534 174.511 385.511 174.193 386.307 173.557C387.11 172.913 387.72 172.045 388.136 170.955C388.561 169.864 388.773 168.64 388.773 167.284C388.773 165.943 388.564 164.735 388.148 163.659C387.739 162.583 387.133 161.731 386.33 161.102C385.527 160.466 384.542 160.148 383.375 160.148C382.239 160.148 381.273 160.455 380.477 161.068C379.682 161.674 379.076 162.515 378.659 163.591C378.25 164.659 378.045 165.89 378.045 167.284ZM402.017 176.364C400.509 176.364 399.176 175.981 398.017 175.216C396.866 174.451 395.964 173.394 395.312 172.045C394.661 170.689 394.335 169.125 394.335 167.352C394.335 165.564 394.661 163.992 395.312 162.636C395.964 161.273 396.866 160.212 398.017 159.455C399.176 158.689 400.509 158.307 402.017 158.307C403.525 158.307 404.854 158.689 406.006 159.455C407.157 160.22 408.059 161.28 408.71 162.636C409.369 163.992 409.699 165.564 409.699 167.352C409.699 169.125 409.373 170.689 408.722 172.045C408.07 173.394 407.165 174.451 406.006 175.216C404.854 175.981 403.525 176.364 402.017 176.364ZM402.017 174.511C403.229 174.511 404.256 174.186 405.097 173.534C405.938 172.883 406.574 172.015 407.006 170.932C407.445 169.848 407.665 168.655 407.665 167.352C407.665 166.049 407.445 164.852 407.006 163.761C406.574 162.67 405.938 161.795 405.097 161.136C404.256 160.477 403.229 160.148 402.017 160.148C400.813 160.148 399.786 160.477 398.938 161.136C398.097 161.795 397.456 162.67 397.017 163.761C396.585 164.852 396.369 166.049 396.369 167.352C396.369 168.655 396.585 169.848 397.017 170.932C397.456 172.015 398.097 172.883 398.938 173.534C399.778 174.186 400.805 174.511 402.017 174.511ZM425.866 162.375L424.014 162.898C423.832 162.375 423.575 161.902 423.241 161.477C422.908 161.053 422.473 160.716 421.935 160.466C421.404 160.216 420.745 160.091 419.957 160.091C418.776 160.091 417.806 160.371 417.048 160.932C416.291 161.492 415.912 162.216 415.912 163.102C415.912 163.852 416.17 164.462 416.685 164.932C417.207 165.394 418.01 165.761 419.094 166.034L421.73 166.682C423.192 167.038 424.287 167.602 425.014 168.375C425.749 169.148 426.116 170.117 426.116 171.284C426.116 172.269 425.844 173.144 425.298 173.909C424.753 174.674 423.991 175.277 423.014 175.716C422.045 176.148 420.92 176.364 419.639 176.364C417.935 176.364 416.529 175.981 415.423 175.216C414.317 174.443 413.609 173.33 413.298 171.875L415.241 171.398C415.491 172.436 415.98 173.22 416.707 173.75C417.442 174.28 418.408 174.545 419.605 174.545C420.946 174.545 422.018 174.246 422.821 173.648C423.624 173.042 424.026 172.284 424.026 171.375C424.026 170.67 423.791 170.08 423.321 169.602C422.851 169.117 422.139 168.761 421.185 168.534L418.332 167.852C416.817 167.489 415.696 166.913 414.969 166.125C414.241 165.337 413.878 164.36 413.878 163.193C413.878 162.231 414.139 161.386 414.662 160.659C415.185 159.924 415.904 159.348 416.821 158.932C417.738 158.515 418.783 158.307 419.957 158.307C421.556 158.307 422.832 158.67 423.787 159.398C424.749 160.117 425.442 161.11 425.866 162.375ZM442.273 162.375L440.42 162.898C440.239 162.375 439.981 161.902 439.648 161.477C439.314 161.053 438.879 160.716 438.341 160.466C437.811 160.216 437.152 160.091 436.364 160.091C435.182 160.091 434.212 160.371 433.455 160.932C432.697 161.492 432.318 162.216 432.318 163.102C432.318 163.852 432.576 164.462 433.091 164.932C433.614 165.394 434.417 165.761 435.5 166.034L438.136 166.682C439.598 167.038 440.693 167.602 441.42 168.375C442.155 169.148 442.523 170.117 442.523 171.284C442.523 172.269 442.25 173.144 441.705 173.909C441.159 174.674 440.398 175.277 439.42 175.716C438.451 176.148 437.326 176.364 436.045 176.364C434.341 176.364 432.936 175.981 431.83 175.216C430.723 174.443 430.015 173.33 429.705 171.875L431.648 171.398C431.898 172.436 432.386 173.22 433.114 173.75C433.848 174.28 434.814 174.545 436.011 174.545C437.352 174.545 438.424 174.246 439.227 173.648C440.03 173.042 440.432 172.284 440.432 171.375C440.432 170.67 440.197 170.08 439.727 169.602C439.258 169.117 438.545 168.761 437.591 168.534L434.739 167.852C433.223 167.489 432.102 166.913 431.375 166.125C430.648 165.337 430.284 164.36 430.284 163.193C430.284 162.231 430.545 161.386 431.068 160.659C431.591 159.924 432.311 159.348 433.227 158.932C434.144 158.515 435.189 158.307 436.364 158.307C437.962 158.307 439.239 158.67 440.193 159.398C441.155 160.117 441.848 161.11 442.273 162.375ZM446.974 176V158.545H449.009V176H446.974ZM448.009 155.545C447.592 155.545 447.236 155.405 446.94 155.125C446.645 154.837 446.497 154.492 446.497 154.091C446.497 153.689 446.645 153.348 446.94 153.068C447.236 152.78 447.592 152.636 448.009 152.636C448.425 152.636 448.781 152.78 449.077 153.068C449.372 153.348 449.52 153.689 449.52 154.091C449.52 154.492 449.372 154.837 449.077 155.125C448.781 155.405 448.425 155.545 448.009 155.545ZM454.358 176V158.545H456.324V161.227H456.506C456.854 160.326 457.434 159.617 458.244 159.102C459.063 158.58 460.044 158.318 461.188 158.318C462.392 158.318 463.381 158.602 464.153 159.17C464.934 159.731 465.517 160.504 465.903 161.489H466.051C466.445 160.519 467.085 159.75 467.972 159.182C468.866 158.606 469.949 158.318 471.222 158.318C472.843 158.318 474.123 158.83 475.062 159.852C476.002 160.867 476.472 162.352 476.472 164.307V176H474.449V164.307C474.449 162.928 474.097 161.894 473.392 161.205C472.688 160.515 471.759 160.17 470.608 160.17C469.275 160.17 468.248 160.58 467.528 161.398C466.809 162.216 466.449 163.254 466.449 164.511V176H464.381V164.125C464.381 162.943 464.051 161.989 463.392 161.261C462.733 160.534 461.805 160.17 460.608 160.17C459.805 160.17 459.081 160.367 458.438 160.761C457.801 161.155 457.297 161.705 456.926 162.409C456.563 163.106 456.381 163.909 456.381 164.818V176H454.358ZM492.918 169.33V158.545H494.94V176H492.918V173.102H492.759C492.349 173.996 491.702 174.742 490.815 175.341C489.929 175.932 488.846 176.227 487.565 176.227C486.452 176.227 485.463 175.985 484.599 175.5C483.736 175.008 483.058 174.288 482.565 173.341C482.073 172.394 481.827 171.231 481.827 169.852V158.545H483.849V169.727C483.849 171.091 484.251 172.189 485.054 173.023C485.857 173.848 486.887 174.261 488.145 174.261C488.933 174.261 489.69 174.072 490.418 173.693C491.145 173.314 491.743 172.761 492.213 172.034C492.683 171.299 492.918 170.398 492.918 169.33ZM512.023 162.375L510.17 162.898C509.989 162.375 509.731 161.902 509.398 161.477C509.064 161.053 508.629 160.716 508.091 160.466C507.561 160.216 506.902 160.091 506.114 160.091C504.932 160.091 503.962 160.371 503.205 160.932C502.447 161.492 502.068 162.216 502.068 163.102C502.068 163.852 502.326 164.462 502.841 164.932C503.364 165.394 504.167 165.761 505.25 166.034L507.886 166.682C509.348 167.038 510.443 167.602 511.17 168.375C511.905 169.148 512.273 170.117 512.273 171.284C512.273 172.269 512 173.144 511.455 173.909C510.909 174.674 510.148 175.277 509.17 175.716C508.201 176.148 507.076 176.364 505.795 176.364C504.091 176.364 502.686 175.981 501.58 175.216C500.473 174.443 499.765 173.33 499.455 171.875L501.398 171.398C501.648 172.436 502.136 173.22 502.864 173.75C503.598 174.28 504.564 174.545 505.761 174.545C507.102 174.545 508.174 174.246 508.977 173.648C509.78 173.042 510.182 172.284 510.182 171.375C510.182 170.67 509.947 170.08 509.477 169.602C509.008 169.117 508.295 168.761 507.341 168.534L504.489 167.852C502.973 167.489 501.852 166.913 501.125 166.125C500.398 165.337 500.034 164.36 500.034 163.193C500.034 162.231 500.295 161.386 500.818 160.659C501.341 159.924 502.061 159.348 502.977 158.932C503.894 158.515 504.939 158.307 506.114 158.307C507.712 158.307 508.989 158.67 509.943 159.398C510.905 160.117 511.598 161.11 512.023 162.375ZM33.6705 215V197.545H35.6364V200.227H35.8182C36.1667 199.326 36.7462 198.617 37.5568 198.102C38.375 197.58 39.3561 197.318 40.5 197.318C41.7045 197.318 42.6932 197.602 43.4659 198.17C44.2462 198.731 44.8295 199.504 45.2159 200.489H45.3636C45.7576 199.519 46.3977 198.75 47.2841 198.182C48.178 197.606 49.2614 197.318 50.5341 197.318C52.1553 197.318 53.4356 197.83 54.375 198.852C55.3144 199.867 55.7841 201.352 55.7841 203.307V215H53.7614V203.307C53.7614 201.928 53.4091 200.894 52.7045 200.205C52 199.515 51.072 199.17 49.9205 199.17C48.5871 199.17 47.5606 199.58 46.8409 200.398C46.1212 201.216 45.7614 202.254 45.7614 203.511V215H43.6932V203.125C43.6932 201.943 43.3636 200.989 42.7045 200.261C42.0455 199.534 41.1174 199.17 39.9205 199.17C39.1174 199.17 38.3939 199.367 37.75 199.761C37.1136 200.155 36.6098 200.705 36.2386 201.409C35.875 202.106 35.6932 202.909 35.6932 203.818V215H33.6705ZM66.0142 215.398C64.9612 215.398 63.9991 215.193 63.1278 214.784C62.2566 214.367 61.5634 213.769 61.0483 212.989C60.5331 212.201 60.2756 211.246 60.2756 210.125C60.2756 209.261 60.4384 208.534 60.7642 207.943C61.09 207.352 61.5521 206.867 62.1506 206.489C62.7491 206.11 63.4574 205.811 64.2756 205.591C65.0938 205.371 65.9953 205.201 66.9801 205.08C67.9574 204.958 68.7831 204.852 69.4574 204.761C70.1392 204.67 70.6581 204.527 71.0142 204.33C71.3703 204.133 71.5483 203.814 71.5483 203.375V202.966C71.5483 201.777 71.1922 200.841 70.4801 200.159C69.7756 199.47 68.7604 199.125 67.4347 199.125C66.1771 199.125 65.1506 199.402 64.3551 199.955C63.5672 200.508 63.0142 201.159 62.696 201.909L60.7756 201.216C61.1695 200.261 61.715 199.5 62.4119 198.932C63.1089 198.356 63.8892 197.943 64.7528 197.693C65.6165 197.436 66.4915 197.307 67.3778 197.307C68.0445 197.307 68.7377 197.394 69.4574 197.568C70.1847 197.742 70.8589 198.045 71.4801 198.477C72.1013 198.902 72.6051 199.496 72.9915 200.261C73.3778 201.019 73.571 201.981 73.571 203.148V215H71.5483V212.239H71.4233C71.1809 212.754 70.821 213.254 70.3438 213.739C69.8665 214.223 69.268 214.621 68.5483 214.932C67.8286 215.242 66.9839 215.398 66.0142 215.398ZM66.2869 213.545C67.3627 213.545 68.2945 213.307 69.0824 212.83C69.8703 212.352 70.4763 211.72 70.9006 210.932C71.3324 210.136 71.5483 209.261 71.5483 208.307V205.784C71.3968 205.928 71.143 206.057 70.7869 206.17C70.4384 206.284 70.0331 206.386 69.571 206.477C69.1165 206.561 68.6619 206.633 68.2074 206.693C67.7528 206.754 67.3438 206.807 66.9801 206.852C65.9953 206.973 65.1544 207.163 64.4574 207.42C63.7604 207.678 63.2263 208.034 62.8551 208.489C62.4839 208.936 62.2983 209.511 62.2983 210.216C62.2983 211.277 62.6771 212.098 63.4347 212.682C64.1922 213.258 65.143 213.545 66.2869 213.545ZM85.6108 221.909C84.4214 221.909 83.3797 221.754 82.4858 221.443C81.5919 221.14 80.8381 220.723 80.2244 220.193C79.6108 219.663 79.1335 219.068 78.7926 218.409L80.4517 217.318C80.7017 217.758 81.035 218.189 81.4517 218.614C81.8759 219.038 82.4252 219.39 83.0994 219.67C83.7813 219.951 84.6184 220.091 85.6108 220.091C87.1563 220.091 88.4025 219.705 89.3494 218.932C90.304 218.159 90.7812 216.958 90.7812 215.33V211.398H90.5994C90.3646 211.928 90.0275 212.458 89.5881 212.989C89.1487 213.511 88.5729 213.947 87.8608 214.295C87.1563 214.644 86.2813 214.818 85.2358 214.818C83.8419 214.818 82.6032 214.473 81.5199 213.784C80.4441 213.095 79.5956 212.11 78.9744 210.83C78.3608 209.542 78.054 208.008 78.054 206.227C78.054 204.462 78.3532 202.909 78.9517 201.568C79.5578 200.227 80.4025 199.182 81.4858 198.432C82.5691 197.682 83.8305 197.307 85.2699 197.307C86.3381 197.307 87.2244 197.496 87.929 197.875C88.6335 198.246 89.1979 198.708 89.6222 199.261C90.054 199.814 90.3911 200.352 90.6335 200.875H90.8381V197.545H92.8153V215.455C92.8153 216.932 92.5009 218.148 91.8722 219.102C91.2434 220.057 90.3873 220.761 89.304 221.216C88.2206 221.678 86.9896 221.909 85.6108 221.909ZM85.4744 212.966C86.5956 212.966 87.554 212.697 88.3494 212.159C89.1449 211.614 89.7547 210.833 90.179 209.818C90.6032 208.803 90.8153 207.595 90.8153 206.193C90.8153 204.83 90.607 203.621 90.1903 202.568C89.7737 201.508 89.1676 200.674 88.3722 200.068C87.5843 199.455 86.6184 199.148 85.4744 199.148C84.3078 199.148 83.3229 199.462 82.5199 200.091C81.7169 200.72 81.1108 201.568 80.7017 202.636C80.2926 203.697 80.0881 204.883 80.0881 206.193C80.0881 207.527 80.2964 208.705 80.7131 209.727C81.1297 210.742 81.7396 211.538 82.5426 212.114C83.3456 212.682 84.3229 212.966 85.4744 212.966ZM100.193 204.091V215H98.1705V197.545H100.136V200.284H100.318C100.727 199.39 101.364 198.674 102.227 198.136C103.098 197.591 104.174 197.318 105.455 197.318C106.629 197.318 107.659 197.564 108.545 198.057C109.439 198.542 110.133 199.258 110.625 200.205C111.125 201.152 111.375 202.314 111.375 203.693V215H109.352V203.818C109.352 202.386 108.951 201.254 108.148 200.42C107.352 199.587 106.284 199.17 104.943 199.17C104.027 199.17 103.212 199.367 102.5 199.761C101.788 200.155 101.223 200.723 100.807 201.466C100.398 202.201 100.193 203.076 100.193 204.091ZM121.577 215.398C120.524 215.398 119.562 215.193 118.69 214.784C117.819 214.367 117.126 213.769 116.611 212.989C116.096 212.201 115.838 211.246 115.838 210.125C115.838 209.261 116.001 208.534 116.327 207.943C116.652 207.352 117.115 206.867 117.713 206.489C118.312 206.11 119.02 205.811 119.838 205.591C120.656 205.371 121.558 205.201 122.543 205.08C123.52 204.958 124.346 204.852 125.02 204.761C125.702 204.67 126.221 204.527 126.577 204.33C126.933 204.133 127.111 203.814 127.111 203.375V202.966C127.111 201.777 126.755 200.841 126.043 200.159C125.338 199.47 124.323 199.125 122.997 199.125C121.74 199.125 120.713 199.402 119.918 199.955C119.13 200.508 118.577 201.159 118.259 201.909L116.338 201.216C116.732 200.261 117.277 199.5 117.974 198.932C118.671 198.356 119.452 197.943 120.315 197.693C121.179 197.436 122.054 197.307 122.94 197.307C123.607 197.307 124.3 197.394 125.02 197.568C125.747 197.742 126.421 198.045 127.043 198.477C127.664 198.902 128.168 199.496 128.554 200.261C128.94 201.019 129.134 201.981 129.134 203.148V215H127.111V212.239H126.986C126.743 212.754 126.384 213.254 125.906 213.739C125.429 214.223 124.83 214.621 124.111 214.932C123.391 215.242 122.546 215.398 121.577 215.398ZM121.849 213.545C122.925 213.545 123.857 213.307 124.645 212.83C125.433 212.352 126.039 211.72 126.463 210.932C126.895 210.136 127.111 209.261 127.111 208.307V205.784C126.959 205.928 126.705 206.057 126.349 206.17C126.001 206.284 125.596 206.386 125.134 206.477C124.679 206.561 124.224 206.633 123.77 206.693C123.315 206.754 122.906 206.807 122.543 206.852C121.558 206.973 120.717 207.163 120.02 207.42C119.323 207.678 118.789 208.034 118.418 208.489C118.046 208.936 117.861 209.511 117.861 210.216C117.861 211.277 118.24 212.098 118.997 212.682C119.755 213.258 120.705 213.545 121.849 213.545ZM134.514 215V197.545H136.48V200.227H136.662C137.01 199.326 137.59 198.617 138.401 198.102C139.219 197.58 140.2 197.318 141.344 197.318C142.548 197.318 143.537 197.602 144.31 198.17C145.09 198.731 145.673 199.504 146.06 200.489H146.207C146.601 199.519 147.241 198.75 148.128 198.182C149.022 197.606 150.105 197.318 151.378 197.318C152.999 197.318 154.279 197.83 155.219 198.852C156.158 199.867 156.628 201.352 156.628 203.307V215H154.605V203.307C154.605 201.928 154.253 200.894 153.548 200.205C152.844 199.515 151.916 199.17 150.764 199.17C149.431 199.17 148.404 199.58 147.685 200.398C146.965 201.216 146.605 202.254 146.605 203.511V215H144.537V203.125C144.537 201.943 144.207 200.989 143.548 200.261C142.889 199.534 141.961 199.17 140.764 199.17C139.961 199.17 139.238 199.367 138.594 199.761C137.957 200.155 137.454 200.705 137.082 201.409C136.719 202.106 136.537 202.909 136.537 203.818V215H134.514ZM171.006 215V197.545H173.04V215H171.006ZM172.04 194.545C171.623 194.545 171.267 194.405 170.972 194.125C170.676 193.837 170.528 193.492 170.528 193.091C170.528 192.689 170.676 192.348 170.972 192.068C171.267 191.78 171.623 191.636 172.04 191.636C172.456 191.636 172.813 191.78 173.108 192.068C173.403 192.348 173.551 192.689 173.551 193.091C173.551 193.492 173.403 193.837 173.108 194.125C172.813 194.405 172.456 194.545 172.04 194.545ZM180.412 191.727V215H178.389V191.727H180.412ZM187.787 191.727V215H185.764V191.727H187.787ZM204.23 208.33V197.545H206.253V215H204.23V212.102H204.071C203.662 212.996 203.014 213.742 202.128 214.341C201.241 214.932 200.158 215.227 198.878 215.227C197.764 215.227 196.776 214.985 195.912 214.5C195.048 214.008 194.37 213.288 193.878 212.341C193.385 211.394 193.139 210.231 193.139 208.852V197.545H195.162V208.727C195.162 210.091 195.563 211.189 196.366 212.023C197.17 212.848 198.2 213.261 199.457 213.261C200.245 213.261 201.003 213.072 201.73 212.693C202.457 212.314 203.056 211.761 203.526 211.034C203.995 210.299 204.23 209.398 204.23 208.33ZM211.608 215V197.545H213.574V200.227H213.756C214.104 199.326 214.684 198.617 215.494 198.102C216.313 197.58 217.294 197.318 218.438 197.318C219.642 197.318 220.631 197.602 221.403 198.17C222.184 198.731 222.767 199.504 223.153 200.489H223.301C223.695 199.519 224.335 198.75 225.222 198.182C226.116 197.606 227.199 197.318 228.472 197.318C230.093 197.318 231.373 197.83 232.312 198.852C233.252 199.867 233.722 201.352 233.722 203.307V215H231.699V203.307C231.699 201.928 231.347 200.894 230.642 200.205C229.938 199.515 229.009 199.17 227.858 199.17C226.525 199.17 225.498 199.58 224.778 200.398C224.059 201.216 223.699 202.254 223.699 203.511V215H221.631V203.125C221.631 201.943 221.301 200.989 220.642 200.261C219.983 199.534 219.055 199.17 217.858 199.17C217.055 199.17 216.331 199.367 215.688 199.761C215.051 200.155 214.547 200.705 214.176 201.409C213.813 202.106 213.631 202.909 213.631 203.818V215H211.608ZM240.69 215.17C240.243 215.17 239.857 215.011 239.531 214.693C239.213 214.367 239.054 213.981 239.054 213.534C239.054 213.08 239.213 212.693 239.531 212.375C239.857 212.057 240.243 211.898 240.69 211.898C241.145 211.898 241.531 212.057 241.849 212.375C242.168 212.693 242.327 213.08 242.327 213.534C242.327 213.83 242.251 214.102 242.099 214.352C241.955 214.602 241.759 214.803 241.509 214.955C241.266 215.098 240.993 215.17 240.69 215.17Z" fill="#1E1E1E"/>
</g>
<path d="M390.575 204.005C382.525 204.005 375.995 210.72 375.995 219.005C375.995 227.285 382.525 234.005 390.575 234.005C405.15 234.005 395.435 263 375.995 263V270C410.69 270.005 424.285 204.005 390.575 204.005ZM432.575 204.005C424.53 204.005 418 210.72 418 219.005C418 227.285 424.53 234.005 432.575 234.005C447.155 234.005 437.44 263 418 263V270C452.69 270.005 466.285 204.005 432.575 204.005Z" fill="#4B4036"/>
<defs>
<clipPath id="clip0_12_84">
<rect width="553.951" height="319" fill="white"/>
</clipPath>
</defs>
</svg>
